<svg width="311" height="118" viewBox="0 0 311 118" fill="none" xmlns="http://www.w3.org/2000/svg">
<path d="M266.705 49.7403C261.755 6.70966 206.402 -7.88732 194.431 40.2326C184.234 17.407 139.888 11.1371 134.011 40.3578C123.885 15.1888 92.7613 -13.1286 65.6968 6.62916C50.1079 16.4141 37.1831 34.3563 39.5952 53.3538C21.1082 39.7317 -7.93655 60.7239 2.02703 82.1363C-2.71625 103.996 16.7429 119.192 37.5341 117.126C53.519 117.216 67.5058 106.992 83.5718 107.225C103.247 108.218 117.045 116.509 134.614 101.572C147.538 92.1897 163.316 105.856 178.41 105.15C189.391 105.695 196.177 94.2468 206.897 93.263C242.611 87.5655 261.431 121.974 299.791 96.7333C329.466 77.1007 293.842 18.5965 266.705 49.7403ZM287.29 96.6707C281.115 98.6653 273.213 99.7833 263.267 99.6223C242.323 96.0446 222.54 81.2688 200.632 90.1951C189.832 95.016 186.097 103.048 172.659 100.034C168.048 99.3463 163.498 98.3027 159.05 96.9122H158.924C156.296 96.1251 153.947 95.3649 151.724 94.8103C151.238 94.6851 150.743 94.5688 150.257 94.4794C147.14 93.7511 143.896 93.7511 140.779 94.4794C137.179 95.3738 133.138 97.3594 128.106 101.134C127.206 101.778 126.36 102.476 125.406 103.227C123.497 104.292 121.454 105.101 119.331 105.633C113.345 107.162 106.955 106.608 100.754 105.436C98.9536 105.087 97.0095 104.667 94.8764 104.157L92.5993 103.611C91.8433 103.433 91.0872 103.28 90.3402 103.146C70.8811 99.8191 53.168 112.609 33.8709 111.527H33.7898C33.0068 111.581 32.2057 111.617 31.4227 111.617C22.9442 111.617 14.3217 108.236 8.9214 102.323C8.64239 102.019 8.37235 101.715 8.11133 101.429C7.5983 100.794 7.11234 100.141 6.66232 99.4613C6.4373 99.1125 6.22127 98.7726 6.02326 98.4148C5.09197 96.8097 4.38635 95.0853 3.92612 93.2898C3.81812 92.8873 3.72811 92.4759 3.64711 92.0555C3.18219 89.5439 3.16391 86.9708 3.59311 84.4529C7.19332 89.0502 9.31746 81.4745 7.88637 78.5855C8.58842 79.2921 8.85843 77.6016 8.3904 77.2617C7.65066 76.6115 6.95604 75.9122 6.31128 75.1688C6.24685 75.0958 6.17771 75.0271 6.10429 74.9631L5.88823 74.7663C5.74532 74.6375 5.59181 74.5208 5.42925 74.4175L5.18622 74.2654C5.10719 74.212 5.0227 74.167 4.93418 74.1313C4.12413 66.0815 11.3606 60.375 17.9309 57.1909C26.9315 53.1481 36.9581 57.656 43.5375 64.1495C44.2218 65.1583 44.9578 66.1315 45.7426 67.0653L46.0126 67.3336C46.7454 68.1479 47.6746 68.7634 48.7128 69.1225C49.0984 69.0664 49.4553 68.8875 49.7298 68.6127C50.1601 68.1539 50.4422 67.5776 50.5398 66.958C50.5636 66.8517 50.5817 66.7442 50.5939 66.636C50.6613 66.1831 50.6854 65.7249 50.6658 65.2675C50.6612 65.1841 50.6612 65.1005 50.6658 65.0171C50.4768 63.0672 49.2888 61.5914 47.8847 60.2677L47.8217 60.214C46.7507 59.1944 45.5535 58.2642 44.5995 57.2714C44.4105 56.86 44.2395 56.4575 44.0775 56.046C43.0254 53.3572 42.4881 50.4966 42.4934 47.6116C42.4934 40.6262 45.5086 33.6944 49.9278 27.6123C54.1639 21.8553 59.3894 16.8865 65.3637 12.9348C66.4549 12.0925 67.5938 11.313 68.7749 10.6004C73.3939 7.74678 78.7094 6.20048 84.1478 6.12828C87.0844 6.07621 90.0147 6.41615 92.8603 7.13898H92.9323C97.0638 8.26941 101.006 9.99615 104.633 12.264L104.795 12.3714C111.176 16.4385 116.811 21.5598 121.455 27.5139C125.628 32.7352 129.026 38.5244 131.544 44.7047C131.592 44.7607 131.634 44.8205 131.671 44.8836C131.724 44.9701 131.772 45.0597 131.815 45.152C132.221 46.1397 132.573 47.1489 132.868 48.1751C132.868 48.1751 132.868 48.2556 132.868 48.3003C133.187 49.4786 133.655 50.6117 134.263 51.6723C134.258 51.6869 134.258 51.7024 134.263 51.717C134.587 52.1821 134.947 52.4236 135.325 52.2716C135.342 52.2777 135.361 52.2777 135.379 52.2716C135.5 52.219 135.611 52.143 135.703 52.048L135.766 51.9853C136.063 51.6262 136.306 51.2254 136.486 50.7958C136.358 49.512 136.316 48.2212 136.36 46.9319C136.412 44.271 136.902 41.6365 137.809 39.1325C137.811 39.1177 137.811 39.1026 137.809 39.0878C138.989 35.8563 141.049 33.0139 143.758 30.877C144.262 30.546 144.793 30.233 145.342 29.9825C148 28.6439 150.867 27.7609 153.821 27.3708C154.82 27.2277 155.837 27.1293 156.863 27.0667C164.375 26.7128 171.855 28.2511 178.608 31.5388C179.508 31.9771 180.336 32.4333 181.155 32.9341C181.677 33.2561 182.19 33.5781 182.686 33.9269C183.679 34.6062 184.626 35.3502 185.521 36.1541C185.737 36.3419 185.944 36.5387 186.151 36.7533C186.565 37.1558 186.961 37.5762 187.33 37.9966C189.187 40.181 190.818 42.5452 192.199 45.0536C192.883 46.0106 193.405 48.506 194.773 48.506C194.946 48.5021 195.118 48.4657 195.277 48.3987C195.277 48.2377 195.358 48.0678 195.403 47.9068C195.655 46.7887 195.943 45.7065 196.249 44.6511L196.303 44.4722C200.174 31.4405 207.419 23.2028 215.798 19.4284L216.374 19.1869C219.894 17.7176 223.679 16.9803 227.496 17.0202C231.314 17.0602 235.082 17.8767 238.57 19.4194C238.726 19.4743 238.879 19.537 239.029 19.6072C246.868 23.0687 254.051 29.9557 258.902 40.0269C260.096 42.4912 261.11 45.038 261.935 47.6474C262.421 48.5418 262.493 51.0373 262.673 53.5685V53.6311C262.741 55.1361 262.939 56.6324 263.267 58.1032C263.546 59.1407 263.951 59.892 264.563 60.0709C264.852 60.1323 265.152 60.122 265.436 60.0408C265.72 59.9597 265.98 59.8103 266.192 59.6058C266.525 59.1228 266.867 58.7114 267.2 58.2195C268.968 55.8757 271.123 53.8465 273.573 52.2179C275.493 50.9343 277.658 50.0561 279.934 49.6376C282.21 49.2191 284.548 49.2693 286.803 49.7851C292.204 50.9925 297.181 54.6776 300.709 59.5343C304.571 64.9008 306.686 71.6358 305.714 78.0846C304.724 85.6335 299.269 92.8068 287.29 96.6707Z" fill="black"/>
<path d="M290.051 50.5481C327.161 71.3645 296.435 104.423 263.776 99.3725C242.851 95.8034 223.087 81.0633 201.2 89.977C190.41 94.7773 186.678 102.79 173.253 99.7918C162.948 99.087 153.542 93.1088 143.219 93.43C119.678 103.165 124.435 111.106 93.2236 103.343C72.8836 98.5694 54.5578 112.373 34.5594 111.248C18.7874 112.524 1.45966 101.541 4.31014 84.2219C7.90696 88.8081 10.0201 81.2507 8.59037 78.3687C9.29175 79.0736 9.56145 77.3872 9.09386 77.0482C7.87094 76.1559 7.02572 74.5677 5.64095 73.9342C4.82267 65.9039 12.0613 60.2024 18.6255 56.9813C27.6176 52.9483 37.6347 57.4453 44.2079 63.9231C46.2221 67.4921 51.5545 72.0069 51.3386 64.8153C49.6122 58.4089 42.5713 57.7576 43.0659 49.2543C43.8122 27.3226 66.0766 4.99835 88.5028 5.99768C109.05 9.49533 124.228 26.3322 132.177 44.6057C133.598 46.3902 133.76 52.1185 136.053 52.1631C138.616 50.5749 136.79 47.1932 136.835 44.909C137.734 39.5555 140.144 34.202 144.469 30.7846C156.033 23.1112 179.062 27.4297 188.027 37.8156C189.885 39.9955 191.515 42.3573 192.892 44.8644C193.656 45.9173 194.213 48.8885 195.967 48.2015C206.982 -0.274895 259.487 11.8866 263.551 55.6072C265.071 70.0618 271.491 41.9557 290.051 50.5481Z" fill="white"/>
</svg>
