<svg width="123" height="128" viewBox="0 0 123 128" fill="none" xmlns="http://www.w3.org/2000/svg">
<g clip-path="url(#clip0_446_3742)">
<path d="M2.19139 55.5171C5.97713 41.0901 15.9444 28.985 27.7186 20.2215C35.8952 13.6694 43.6956 5.22945 54.5295 3.68561C54.8852 2.16633 56.9825 2.18681 58.1763 1.61349C63.8999 -0.57328 70.0323 0.0532681 76.0094 0.172026C81.0911 0.196596 85.1671 3.9395 90.0771 4.95099C94.1484 6.36275 98.0432 8.24121 101.684 10.549C132.583 33.0105 127.264 80.3333 102.501 105.432C92.849 116.116 79.141 121.051 65.5802 124.589C59.0389 126.829 52.0888 128.827 45.1061 127.648C12.4571 123.471 -6.74151 85.7715 2.19139 55.5171Z" fill="white"/>
<path d="M60.0284 110.813C54.8404 110.481 49.9304 108.872 44.9876 107.402C37.1381 104.752 27.4366 102.299 33.2543 92.0861C35.4088 86.4513 37.9681 80.9925 40.2657 75.4191C40.9443 73.7442 41.2428 71.8114 42.5469 70.4805C44.5911 69.3379 47.1013 68.9735 48.6017 66.9751C53.0375 61.0863 49.2517 60.2428 48.7938 55.0993C48.4259 53.7807 53.802 36.4913 54.7586 41.3071C53.7728 46.0405 52.3845 50.6808 50.609 55.1771C50.4455 57.7202 53.2746 59.8046 52.3874 63.1052C51.6352 68.3756 48.5036 71.2176 43.6549 72.8925C39.726 81.1277 36.296 89.9853 32.9272 98.5481C34.8528 101.48 38.7694 102 41.811 103.221C47.9026 105.223 54.0268 108.294 60.5231 108.434C64.0676 105.002 65.3514 99.9036 67.6204 95.6324C69.0921 91.1033 71.5492 86.8935 72.8942 82.3726C70.5108 79.6657 69.6236 78.9163 70.4004 75.0915C70.6702 70.4968 73.5688 65.2101 78.8223 65.7465C80.6988 62.2575 81.5369 57.7898 82.9473 53.965C83.6055 52.6955 84.6971 45.3326 86.2507 49.6406C85.1591 55.5375 82.5712 61.3443 80.756 67.143C79.1493 71.2954 72.4486 65.4189 71.7945 78.0482C76.864 82.4872 73.4298 86.9632 71.2998 91.8609C69.9957 95.7103 64.3129 111.026 60.0284 110.813Z" fill="black"/>
<path d="M53.2377 44.0344C52.9965 43.9771 52.882 43.4775 53.1109 43.3464C54.5091 39.8124 55.4617 35.6886 60.0855 35.8688C62.5181 35.8197 65.5352 35.2668 67.7225 36.0572C70.1223 39.5994 57.8861 36.6878 56.1404 40.3161C54.9875 41.389 54.3742 43.0106 53.3031 44.0016C53.2856 44.0197 53.2626 44.0313 53.2377 44.0344Z" fill="black"/>
<path d="M84.4925 52.2573C83.5644 52.114 84.611 50.3736 84.6315 49.8658C85.3224 47.3473 83.6053 45.2711 81.8596 43.7231L81.9087 43.7764C77.522 38.0433 72.0273 39.6362 66.455 37.0973C65.3225 35.32 67.334 33.637 67.7101 31.9211C67.939 31.487 67.9145 30.7745 68.4337 30.5902C70.4779 31.2045 69.0224 33.8663 68.4542 35.148C71.9456 35.8852 75.2816 36.5199 78.6462 37.687C82.8408 41.4463 89.1368 45.7297 84.6356 51.9338C84.656 52.0321 84.6478 52.2737 84.4925 52.2573Z" fill="black"/>
<path d="M78.0248 39.3497C76.9619 37.7116 78.8425 35.5699 78.544 33.7107C79.0592 31.8147 80.4328 33.895 80.2366 34.9638C80.1793 35.4921 78.495 39.6855 78.0248 39.3497Z" fill="black"/>
<path d="M81.8556 35.6517C77.3994 34.4642 72.5507 33.3134 68.5646 31.0161C67.2278 31.614 66.5205 29.2962 66.8721 28.3011C67.5835 26.8719 68.0454 24.8407 69.4109 23.948C72.8778 25.0496 85.2366 26.7859 83.5196 31.9907C83.2129 32.8098 82.8082 35.5985 81.8556 35.6517ZM69.7543 29.6279C73.8058 30.1766 77.6079 31.8065 81.3937 33.2807C81.6553 32.5927 81.8515 31.8802 82.0519 31.1717C78.3234 29.161 73.8753 29.1242 70.0078 27.4861C69.6276 28.1741 69.2801 28.8826 68.9285 29.5869C68.9305 29.6032 68.9305 29.6197 68.9285 29.6361C69.2031 29.6106 69.4793 29.6079 69.7543 29.6279Z" fill="black"/>
<path d="M80.3757 33.3871C76.7167 32.4862 73.0168 31.7123 69.3128 31.0939C68.209 30.6475 67.6489 28.0922 68.7854 27.4493C68.9244 25.7048 73.2008 28.0021 74.4191 27.953C76.823 28.6205 81.1566 29.1815 81.1688 32.3511C81.1525 32.7934 80.9481 33.4609 80.3757 33.3871Z" fill="black"/>
<path d="M81.7658 32.7894C81.4533 32.4866 81.2566 32.0838 81.2098 31.6509C80.871 31.535 80.575 31.3194 80.3606 31.0323C80.1461 30.7451 80.0232 30.3998 80.0078 30.0416C79.877 28.5919 82.0724 29.3208 82.4322 30.1644C82.9391 30.7418 83.0536 33.6371 81.7658 32.7894Z" fill="black"/>
<path d="M81.0993 32.8466C80.2448 32.0276 81.2587 29.6279 82.4361 30.4387C82.8858 30.967 83.0044 32.2856 82.0273 32.1628C81.8025 32.5518 81.6798 33.4568 81.0993 32.8466Z" fill="black"/>
<path d="M80.3879 34.3208C79.5048 33.5387 80.5392 30.7131 81.7656 31.3806C82.7427 31.5403 82.8736 34.2225 81.6512 33.2561C81.1687 33.5387 81.1769 35.1153 80.3879 34.3208Z" fill="black"/>
<path d="M73.6996 64.1823C70.2777 63.4001 67.1583 61.7252 63.7446 60.8571C60.9115 59.6286 53.9328 59.2887 52.8821 56.1682C57.2565 57.3394 62.5631 58.3837 67.1052 60.0381C69.3006 60.8571 71.4142 61.8768 73.6464 62.5811C74.1779 62.7695 74.4518 64.2273 73.6996 64.1823Z" fill="black"/>
<path d="M66.3202 79.6166C61.0299 77.8311 55.1878 77.6878 50.1796 75.1652C49.4601 74.8213 48.3235 74.0841 48.9123 73.175C49.1453 72.9457 49.55 73.0931 49.8239 73.175C51.8681 73.949 54.0798 74.2807 56.2057 74.7475C57.4813 75.026 68.7731 77.9089 66.3202 79.6166Z" fill="black"/>
<path d="M40.3473 96.5416C38.5035 95.3131 40.8869 92.9011 41.2631 91.3777C43.1232 87.3399 44.0635 82.7412 47.0562 79.375C48.6915 80.7223 45.012 85.1532 44.6931 87.0082C43.5484 90.2229 42.3587 93.8798 40.3473 96.5416Z" fill="black"/>
<path d="M47.1544 99.5309C45.3147 98.4621 47.4488 96.2098 47.9189 94.8298C49.2517 92.4014 49.8854 89.9402 51.1896 87.5569C51.5984 86.7706 55.0203 78.9572 54.4316 83.5233C52.1421 88.8346 50.4946 94.9076 47.1544 99.5309Z" fill="black"/>
<path d="M56.4675 101.689C53.7488 100.657 60.192 91.5661 60.7112 89.3056C61.3367 88.6708 63.0701 82.7903 63.573 85.8698C63.6629 86.0705 63.7201 86.5578 63.4053 86.5782C61.582 91.7503 59.2803 97.1845 56.4675 101.689Z" fill="black"/>
<path d="M59.6481 52.0321C58.1722 50.0746 61.7658 42.6707 62.9187 40.5372C63.3276 39.8943 63.9204 41.3562 63.4052 41.4135C62.5753 42.7649 60.7724 53.2361 59.6481 52.0321Z" fill="black"/>
<path d="M65.7969 52.9822C64.9792 51.8314 65.9972 50.6398 66.3897 49.5423C66.7985 48.2523 67.1133 46.9255 67.6407 45.6724C68.1558 44.923 68.6505 41.6961 69.6235 41.9869C69.9219 42.2448 70.1631 42.8059 69.8524 43.1376C69.092 44.2596 67.4976 55.1075 65.7969 52.9822Z" fill="black"/>
<path d="M74.4476 55.0829C72.8123 53.1828 74.8564 50.7258 75.5024 48.797C75.7763 48.3875 77.2971 44.1368 77.8409 45.4759C77.894 45.611 77.984 45.9427 77.7673 45.9836C76.7792 48.1999 76.0626 50.5278 75.6332 52.9166C75.5392 53.621 75.7109 55.9142 74.4476 55.0829Z" fill="black"/>
<path d="M101.684 10.5491C98.0431 8.24133 94.1484 6.36287 90.0771 4.95111C85.1712 3.93962 81.0829 0.196718 76.0093 0.172148C70.0241 0.0533902 63.908 -0.573157 58.1762 1.61362C56.9825 2.18693 54.8852 2.16645 54.5295 3.68573C43.6956 5.22957 35.8829 13.6859 27.7186 20.2217C15.9239 28.9851 5.97708 41.1066 2.19133 55.5172C-6.74156 85.7717 12.457 123.471 45.1183 127.648C52.0684 128.827 59.0552 126.829 65.5924 124.589C79.1532 121.051 92.8612 116.116 102.514 105.432C127.264 80.3334 132.583 33.0106 101.684 10.5491ZM89.9136 112.517C79.5988 118.348 54.9629 127.615 43.577 125.142C19.4112 121.743 3.21749 98.5934 1.42273 75.2719C0.233043 55.206 10.7154 35.6274 26.6638 23.809C35.4209 16.9988 43.3971 7.71938 54.783 5.68413C55.433 7.28121 56.7045 6.29839 57.8533 5.93393C58.4583 5.61042 59.2923 5.72917 59.8034 5.40566C63.7212 4.58749 67.707 4.13917 71.7085 4.06657C77.1418 3.75534 79.0674 3.35403 84.0714 5.97488C87.0681 7.2894 90.2938 7.97328 93.2946 9.27961C109.807 15.8031 119.746 32.8263 121.545 50.0134C122.648 74.2399 110.952 99.7604 89.9136 112.508V112.517Z" fill="black"/>
</g>
<defs>
<clipPath id="clip0_446_3742">
<rect width="123" height="128" fill="white"/>
</clipPath>
</defs>
</svg>
