<svg width="141" height="65" viewBox="0 0 141 65" fill="none" xmlns="http://www.w3.org/2000/svg">
<g clip-path="url(#clip0_446_3764)">
<path d="M133.53 19.0001C134.53 20.0001 135.32 20.8301 136.1 21.7001C141.26 27.4001 141.94 34.5501 137.96 41.1701C136.022 44.2472 133.509 46.9226 130.56 49.0501C123.926 53.934 116.402 57.4738 108.41 59.4701C83.02 66.1502 57.41 66.4702 31.7299 61.3701C24.8963 60.1227 18.2977 57.822 12.1699 54.5501C8.74337 52.7863 5.73292 50.3111 3.33994 47.2901C-0.580061 42.0801 -1.00006 36.5501 1.85994 30.7601C3.88435 26.9841 6.71868 23.7024 10.1599 21.1501C16.1352 16.4956 22.7585 12.7393 29.8199 10.0001C55.56 -0.479959 82.1 -2.45996 109.25 2.83005C116.625 4.13636 123.674 6.87092 130 10.8801C131.348 11.742 132.628 12.7047 133.83 13.7601C136.2 15.8801 136.15 16.5701 133.53 19.0001ZM109.44 8.09005C109.44 7.97005 109.44 7.86005 109.44 7.74005C107.88 7.40005 106.34 7.00005 104.78 6.74005C83.7704 3.06557 62.1916 4.374 41.7799 10.5601C32.7368 13.1384 24.1625 17.142 16.3799 22.4201C13.3884 24.4589 10.658 26.8568 8.24994 29.5601C2.92994 35.8301 3.51994 42.2001 9.99994 47.3201C12.8873 49.5017 16.039 51.3094 19.3799 52.7001C26.4599 55.7901 33.9999 57.3401 41.63 58.3901C59.7206 60.9319 78.0963 60.6485 96.1 57.5501C105.83 55.8701 115.19 53.0101 123.76 47.9501C127.325 45.9909 130.464 43.3389 132.99 40.1501C137.1 34.6501 136.71 28.8301 131.82 24.0401C130.285 22.5502 128.611 21.2107 126.82 20.0401C118.632 14.6853 108.975 12.0245 99.2 12.4301C97.07 12.4801 94.94 12.6701 92.81 12.7501C91.49 12.8001 90.42 12.2701 90.34 10.8401C90.3193 10.5651 90.3557 10.2888 90.4469 10.0286C90.5381 9.76831 90.6821 9.52975 90.87 9.32784C91.0578 9.12593 91.2853 8.96505 91.5383 8.85529C91.7913 8.74554 92.0642 8.68928 92.34 8.69005C94.4245 8.2574 96.536 7.96673 98.66 7.82005C102.25 7.76005 105.84 8.00005 109.44 8.09005Z" fill="black"/>
<path d="M27.156 47.288C26.868 47.216 26.736 47.18 26.76 47.18C26.328 45.404 25.848 42.752 25.32 39.224L23.34 26.372L23.016 24.788C22.488 22.724 22.224 21.272 22.224 20.432C22.224 20.264 22.272 20.12 22.368 20C22.488 19.856 22.608 19.784 22.728 19.784C22.8 19.784 22.884 19.808 22.98 19.856C23.1 19.904 23.208 20.036 23.304 20.252C23.4 20.444 23.448 20.624 23.448 20.792L23.52 21.296L24.024 24.068L24.348 25.976L26.148 38.324L26.616 41.744C26.808 42.896 26.964 43.988 27.084 45.02L27.336 42.464L27.732 38.324L28.596 30.44C28.812 28.208 28.968 26.744 29.064 26.048L29.244 24.176L29.496 22.376C29.616 21.656 29.7 20.984 29.748 20.36C29.796 19.904 30.024 19.676 30.432 19.676L30.648 19.82H30.576L30.936 20.108C30.936 20.804 30.84 21.824 30.648 23.168L30.432 24.572L30.324 25.472C30.012 28.088 29.82 29.72 29.748 30.368C29.388 33.416 29.004 36.716 28.596 40.268C28.212 43.82 28.008 45.908 27.984 46.532C27.792 47.06 27.564 47.324 27.3 47.324L27.156 47.288ZM27.12 45.236L27.084 45.128L27.012 45.236H27.12ZM39.043 47.684C36.235 47.684 34.831 43.268 34.831 34.436V33.176C34.831 26.48 35.695 23.132 37.423 23.132C37.543 23.132 37.711 23.168 37.927 23.24C38.695 23.504 39.451 23.672 40.195 23.744C40.651 23.84 41.107 24.308 41.563 25.148C42.067 26.012 42.439 27.152 42.679 28.568C42.943 29.984 43.075 31.436 43.075 32.924L43.003 33.104C43.003 33.896 43.015 34.604 43.039 35.228L43.075 37.388C43.075 38.612 43.027 39.716 42.931 40.7C42.787 42.188 42.547 43.472 42.211 44.552C41.995 45.2 41.743 45.74 41.455 46.172C41.191 46.604 40.855 46.964 40.447 47.252C40.063 47.54 39.595 47.684 39.043 47.684ZM38.899 46.64C39.835 46.64 40.531 45.98 40.987 44.66C41.443 43.316 41.719 41.948 41.815 40.556C41.911 39.116 41.959 37.964 41.959 37.1C41.959 36.14 41.887 34.724 41.743 32.852C41.623 30.764 41.563 29.348 41.563 28.604L41.419 28.316L41.491 28.136C41.491 27.08 41.191 26.168 40.591 25.4C40.015 24.632 39.307 24.248 38.467 24.248C37.363 24.248 36.703 24.776 36.487 25.832C36.439 26.192 36.391 26.708 36.343 27.38C36.343 29.156 36.271 30.368 36.127 31.016C36.127 31.376 36.091 31.94 36.019 32.708L35.947 34.4C35.947 34.928 35.959 35.396 35.983 35.804L36.019 37.244C36.019 38.372 36.115 39.668 36.307 41.132C36.451 42.212 36.619 43.124 36.811 43.868C37.003 44.612 37.279 45.248 37.639 45.776C37.999 46.352 38.419 46.64 38.899 46.64ZM48.3923 47.468C48.0563 47.468 47.8523 47.192 47.7803 46.64C47.8283 46.496 47.8523 46.1 47.8523 45.452C47.8523 43.244 47.8883 39.968 47.9603 35.624C48.0323 31.304 48.0683 28.184 48.0683 26.264L48.1403 24.968L48.2483 23.888C48.2483 23.72 48.3323 23.636 48.5003 23.636C48.6203 23.636 48.7883 23.672 49.0043 23.744L49.1123 23.78C49.1123 24.308 49.1003 24.788 49.0763 25.22V26.624V30.548C49.1003 31.7 49.1123 33.008 49.1123 34.472C49.0883 34.592 49.0763 34.856 49.0763 35.264L49.0403 36.02C49.0163 36.5 49.0043 36.992 49.0043 37.496C49.0043 38.048 49.0163 38.552 49.0403 39.008L49.0763 40.556L48.9683 40.844L49.0043 40.808C49.0043 40.88 48.9923 40.928 48.9683 40.952V41.096C48.9683 41.288 49.0043 41.456 49.0763 41.6L48.9683 45.056V45.272C48.9683 45.68 48.9803 45.92 49.0043 45.992C49.0043 46.112 49.0643 46.172 49.1843 46.172L51.0563 46.244C51.6083 46.244 51.9803 46.256 52.1723 46.28C52.3883 46.28 52.5203 46.28 52.5683 46.28H52.6763C52.7963 46.28 52.9163 46.352 53.0363 46.496C53.1563 46.616 53.2163 46.748 53.2163 46.892C53.2163 47.18 53.0243 47.336 52.6403 47.36C52.2323 47.336 51.2363 47.324 49.6523 47.324L49.7243 47.36C49.4843 47.36 49.2563 47.372 49.0403 47.396C48.8483 47.444 48.6323 47.468 48.3923 47.468ZM60.4892 47.54C60.1052 47.54 59.6852 47.408 59.2292 47.144C58.7972 46.904 58.4372 46.616 58.1492 46.28C57.8132 45.848 57.5492 44.636 57.3572 42.644C57.1652 40.652 57.0452 38.372 56.9972 35.804C56.9972 35.228 56.9852 34.796 56.9612 34.508C56.9132 28.484 56.8172 24.92 56.6732 23.816L56.8892 23.312C57.4412 23.384 57.7172 24.044 57.7172 25.292L57.8252 34.832C57.8252 35.504 57.8852 36.776 58.0052 38.648C58.1492 40.328 58.2212 41.6 58.2212 42.464C58.2212 45.2 59.1212 46.568 60.9212 46.568C62.0252 46.568 62.7332 44.048 63.0452 39.008L63.0812 38.288C63.2492 31.688 63.3332 26.804 63.3332 23.636L63.2972 23.312C63.2732 23.216 63.2612 23.108 63.2612 22.988C63.2612 22.724 63.4652 22.592 63.8732 22.592C64.1612 22.592 64.3412 22.664 64.4132 22.808C64.4612 23.048 64.4852 23.468 64.4852 24.068C64.4852 25.892 64.4132 27.116 64.2692 27.74L64.3052 27.956C64.3052 28.268 64.2692 28.748 64.1972 29.396L64.1252 30.836V31.196C64.1492 31.292 64.1612 31.412 64.1612 31.556C64.1132 32.132 64.0892 32.684 64.0892 33.212C64.0652 33.38 64.0532 33.644 64.0532 34.004C64.0052 36.284 63.9572 38.264 63.9092 39.944C63.8372 42.032 63.5492 43.796 63.0452 45.236C62.5172 46.772 61.6652 47.54 60.4892 47.54ZM79.0728 47.144C78.8808 47.144 78.7368 47.072 78.6408 46.928C78.5688 46.784 78.4968 46.568 78.4248 46.28C78.4008 46.088 78.3528 45.92 78.2808 45.776L78.3168 45.668C78.1248 44.54 77.7168 43.16 77.0928 41.528L76.4448 39.656C76.3968 39.608 76.1688 38.996 75.7608 37.82L75.4728 36.956C73.3128 30.284 71.9568 26.672 71.4048 26.12C71.2128 26.768 71.1168 27.608 71.1168 28.64C71.1168 29.192 71.1288 29.672 71.1528 30.08L71.1888 31.484L71.1528 32.348C71.1288 32.612 71.1168 32.9 71.1168 33.212C71.1168 33.74 71.1408 34.196 71.1888 34.58C71.2368 35.348 71.2608 35.732 71.2608 35.732H71.1528C71.1528 39.74 71.2368 41.948 71.4048 42.356V45.596C71.5008 45.788 71.5488 46.04 71.5488 46.352C71.5488 46.544 71.4768 46.712 71.3328 46.856C71.2128 47 71.0568 47.072 70.8648 47.072C70.3608 47.072 70.1088 46.424 70.1088 45.128L70.1808 43.976C70.2288 43.616 70.2528 43.22 70.2528 42.788C70.2528 41.636 70.2168 39.908 70.1448 37.604C70.0728 35.3 70.0368 33.572 70.0368 32.42C70.0368 31.724 70.0728 30.656 70.1448 29.216C70.2168 27.8 70.2528 26.744 70.2528 26.048V25.58C70.2528 24.404 70.4688 23.636 70.9008 23.276L71.0088 23.384L71.3688 23.312C71.4648 23.336 71.5728 23.408 71.6928 23.528C71.7888 23.624 71.8368 23.732 71.8368 23.852L71.9088 24.068C71.9088 24.116 71.9088 24.164 71.9088 24.212C71.9328 24.236 71.9448 24.248 71.9448 24.248C72.3288 25.952 73.1928 28.34 74.5368 31.412C75.9048 34.652 76.7568 36.8 77.0928 37.856C77.3328 38.696 77.5248 39.44 77.6688 40.088C78.1248 42.128 78.6648 43.7 79.2888 44.804L79.3608 44.696C79.9128 39.368 80.1888 32.828 80.1888 25.076L80.1528 24.644C80.1288 24.524 80.1168 24.368 80.1168 24.176C80.1168 23.672 80.2848 23.42 80.6208 23.42C80.8368 23.42 81.0168 23.528 81.1608 23.744C81.3288 23.96 81.4128 24.2 81.4128 24.464V26.876L81.2328 27.164C81.2328 29.444 81.1008 33.188 80.8368 38.396C80.5728 43.604 80.3208 46.436 80.0808 46.892L79.4688 47.036V47.072L79.4328 47.036L79.0728 47.144ZM88.8274 46.496L88.7914 45.164C88.7674 44.78 88.7554 44.348 88.7554 43.868C88.7554 43.628 88.7674 43.424 88.7914 43.256L88.8274 42.608C88.8274 42.368 88.7794 42.08 88.6834 41.744C88.6834 40.136 88.5634 37.148 88.3234 32.78C88.0834 28.556 87.9514 25.688 87.9274 24.176C86.4394 24.176 85.4434 24.14 84.9394 24.068C84.4594 23.948 84.2194 23.756 84.2194 23.492C84.3394 23.228 84.5674 23.096 84.9034 23.096C85.6234 23.096 86.6674 23.144 88.0354 23.24C89.2834 23.36 90.3274 23.42 91.1674 23.42H91.9234L92.6794 23.384C93.1114 23.384 93.3274 23.54 93.3274 23.852C93.3274 23.996 93.2434 24.116 93.0754 24.212C92.9314 24.284 92.7514 24.32 92.5354 24.32C92.0554 24.32 91.5514 24.296 91.0234 24.248L89.4754 24.176C89.3794 24.176 89.3314 24.212 89.3314 24.284C89.3074 24.356 89.2954 24.584 89.2954 24.968C89.2954 27.296 89.4394 30.824 89.7274 35.552C89.9914 40.448 90.1234 43.964 90.1234 46.1C90.1234 46.268 90.0154 46.424 89.7994 46.568C89.6074 46.712 89.4154 46.784 89.2234 46.784L88.8274 46.496ZM97.8229 47.468C97.3909 47.468 97.1509 47.216 97.1029 46.712V46.244C97.1269 46.124 97.1389 45.98 97.1389 45.812L96.9949 45.668C97.1869 45.164 97.2829 44.672 97.2829 44.192C97.2829 43.64 97.2469 42.848 97.1749 41.816L97.1029 39.44C97.1029 38.24 97.1389 36.44 97.2109 34.04C97.3069 31.904 97.3549 30.092 97.3549 28.604L97.2829 26.444C97.2349 25.796 97.2109 25.076 97.2109 24.284C97.2109 23.924 97.2949 23.672 97.4629 23.528C97.6309 23.36 97.8949 23.276 98.2549 23.276C98.4949 23.276 98.6869 23.348 98.8309 23.492C98.8789 23.516 99.2269 23.564 99.8749 23.636C100.475 23.708 100.991 23.816 101.423 23.96C101.879 24.104 102.107 24.284 102.107 24.5C102.107 24.74 101.879 24.98 101.423 25.22C100.055 24.764 99.0829 24.536 98.5069 24.536L98.3269 24.752C98.3509 24.968 98.3629 25.484 98.3629 26.3C98.3629 27.332 98.3389 28.256 98.2909 29.072C98.2669 29.912 98.2549 30.848 98.2549 31.88C98.2549 32.552 98.4229 32.888 98.7589 32.888L99.3349 32.852C99.5269 32.828 99.7309 32.816 99.9469 32.816C100.883 32.816 101.351 33.032 101.351 33.464C101.351 33.728 101.291 33.956 101.171 34.148C101.051 34.316 100.871 34.4 100.631 34.4C100.271 34.4 99.9949 34.304 99.8029 34.112L98.6509 33.932H98.4709L98.2909 34.112V34.22C98.3389 34.628 98.3629 35.576 98.3629 37.064C98.3629 38 98.3509 38.852 98.3269 39.62L98.2909 42.176C98.2909 43.112 98.3269 44.072 98.3989 45.056C98.4229 45.608 98.5429 45.98 98.7589 46.172C98.9749 46.34 99.3709 46.424 99.9469 46.424L100.595 46.388C100.811 46.364 101.051 46.352 101.315 46.352C102.011 46.352 102.359 46.508 102.359 46.82C102.359 47.252 101.831 47.468 100.775 47.468H97.8229ZM107.034 47.468C106.602 47.468 106.362 47.216 106.314 46.712V46.244C106.338 46.124 106.35 45.98 106.35 45.812L106.206 45.668C106.398 45.164 106.494 44.672 106.494 44.192C106.494 43.64 106.458 42.848 106.386 41.816L106.314 39.44C106.314 38.24 106.35 36.44 106.422 34.04C106.518 31.904 106.566 30.092 106.566 28.604L106.494 26.444C106.446 25.796 106.422 25.076 106.422 24.284C106.422 23.924 106.506 23.672 106.674 23.528C106.842 23.36 107.106 23.276 107.466 23.276C107.706 23.276 107.898 23.348 108.042 23.492C108.09 23.516 108.438 23.564 109.086 23.636C109.686 23.708 110.202 23.816 110.634 23.96C111.09 24.104 111.318 24.284 111.318 24.5C111.318 24.74 111.09 24.98 110.634 25.22C109.266 24.764 108.294 24.536 107.718 24.536L107.538 24.752C107.562 24.968 107.574 25.484 107.574 26.3C107.574 27.332 107.55 28.256 107.502 29.072C107.478 29.912 107.466 30.848 107.466 31.88C107.466 32.552 107.634 32.888 107.97 32.888L108.546 32.852C108.738 32.828 108.942 32.816 109.158 32.816C110.094 32.816 110.562 33.032 110.562 33.464C110.562 33.728 110.502 33.956 110.382 34.148C110.262 34.316 110.082 34.4 109.842 34.4C109.482 34.4 109.206 34.304 109.014 34.112L107.862 33.932H107.682L107.502 34.112V34.22C107.55 34.628 107.574 35.576 107.574 37.064C107.574 38 107.562 38.852 107.538 39.62L107.502 42.176C107.502 43.112 107.538 44.072 107.61 45.056C107.634 45.608 107.754 45.98 107.97 46.172C108.186 46.34 108.582 46.424 109.158 46.424L109.806 46.388C110.022 46.364 110.262 46.352 110.526 46.352C111.222 46.352 111.57 46.508 111.57 46.82C111.57 47.252 111.042 47.468 109.986 47.468H107.034ZM121.069 47.432C120.781 47.12 120.469 46.292 120.133 44.948C119.797 43.604 119.485 42.092 119.197 40.412C119.005 39.044 118.729 37.688 118.369 36.344C118.081 35.144 117.805 34.544 117.541 34.544H117.433C116.905 34.544 116.641 34.712 116.641 35.048C116.641 36.776 116.737 39.404 116.929 42.932C117.025 45.092 117.133 46.352 117.253 46.712L116.965 47.324H116.461L116.173 47.036C115.789 35.948 115.597 28.388 115.597 24.356C115.597 24.092 115.609 23.876 115.633 23.708C115.681 23.54 115.765 23.384 115.885 23.24C115.981 23.072 116.149 22.988 116.389 22.988C117.613 22.988 118.597 23.288 119.341 23.888C120.085 24.488 120.457 25.352 120.457 26.48V29.108C120.457 29.564 120.301 30.176 119.989 30.944C119.701 31.712 119.377 32.42 119.017 33.068L118.549 33.968C118.813 35.192 119.329 37.4 120.097 40.592C120.889 43.76 121.321 45.44 121.393 45.632C121.417 45.656 121.441 45.716 121.465 45.812C121.513 45.908 121.597 46.052 121.717 46.244C121.885 46.58 121.969 46.868 121.969 47.108C121.969 47.444 121.837 47.612 121.573 47.612L121.069 47.432ZM116.821 33.644C117.277 33.644 117.685 33.416 118.045 32.96C118.405 32.504 118.693 31.916 118.909 31.196C119.293 29.732 119.485 28.568 119.485 27.704C119.485 27.152 119.449 26.696 119.377 26.336C119.329 25.976 119.233 25.592 119.089 25.184C118.801 24.344 118.117 23.924 117.037 23.924C116.917 23.924 116.821 24.032 116.749 24.248C116.677 24.44 116.641 24.644 116.641 24.86C116.641 26.468 116.665 27.92 116.713 29.216C116.737 30.512 116.749 31.964 116.749 33.572L116.821 33.644Z" fill="black"/>
</g>
<defs>
<clipPath id="clip0_446_3764">
<rect width="140.53" height="64.8601" fill="white"/>
</clipPath>
</defs>
</svg>
