<svg width="285" height="270" viewBox="0 0 285 270" fill="none" xmlns="http://www.w3.org/2000/svg">
<path fill-rule="evenodd" clip-rule="evenodd" d="M140.09 0.433325C140.09 0.617924 140.275 2.0742 140.48 3.67406C140.89 6.05333 141.628 12.5348 141.895 14.9346C141.895 15.5499 141.895 15.5704 140.193 15.2833C136.383 14.7108 132.538 14.4024 128.686 14.3603L123.558 14.2577L122.902 11.1606C122.714 10.0342 122.418 8.92845 122.02 7.8583C122.02 7.71472 121.835 7.55063 121.876 7.50961C121.917 7.46859 121.876 6.87377 121.712 6.87377C121.548 6.87377 121.487 7.50961 121.979 10.0735C122.245 11.3452 122.512 12.8014 122.594 13.2937L122.717 14.2372H114.759V11.3452C114.833 10.3355 114.764 9.32034 114.554 8.33005C114.524 8.28821 114.508 8.23799 114.508 8.18647C114.508 8.13496 114.524 8.08474 114.554 8.0429C114.591 8.00456 114.612 7.95301 114.612 7.89932C114.612 7.84563 114.591 7.79408 114.554 7.75574H114.349C114.349 9.04794 114.123 13.786 114.062 13.909C110.351 14.2299 106.626 14.3463 102.904 14.2577C96.7503 14.2577 91.3559 14.4423 90.7816 14.5244L89.756 14.6269L89.6124 11.6118C89.6869 10.5281 89.6249 9.43932 89.4279 8.37107C89.3048 8.24801 89.1817 8.20699 89.1202 8.24801C88.9778 9.25408 88.8956 10.2678 88.8741 11.2836C88.871 12.3268 88.7956 13.3685 88.6484 14.4013C88.278 14.5778 87.8682 14.6556 87.4588 14.6269C86.8025 14.6269 86.3717 14.7705 86.3717 14.8936C86.3717 15.0166 86.5563 15.1192 86.7819 15.1192C87.0453 15.1453 87.306 15.1933 87.5614 15.2628C87.8072 15.28 88.0539 15.28 88.2998 15.2628C88.5869 15.2628 88.6279 15.5089 88.6279 17.0267C88.6279 19.0778 88.8946 18.9342 85.7769 18.4009C84.6078 18.1958 83.0489 17.9702 82.3105 17.9087C81.5722 17.8471 80.7927 17.7446 80.5671 17.7036C80.12 17.6151 79.6679 17.5534 79.2134 17.519C74.1677 16.9857 71.009 16.8831 71.009 17.2113C71.0057 17.2593 71.0179 17.3071 71.0438 17.3477C71.0696 17.3883 71.1077 17.4195 71.1526 17.4369H71.6859C71.891 17.4369 73.4703 17.7036 75.1727 17.9087C79.7877 18.483 88.3203 19.8367 88.5049 19.9598C88.6895 20.0828 88.6074 22.5852 88.6895 25.7234L88.8125 31.3844H81.7773C77.3276 31.4961 72.8788 31.1317 68.5067 30.2973C66.7017 29.9691 62.9277 29.0666 60.6099 28.4103C60.3433 28.4103 60.1587 28.4103 60.1587 28.5129C60.1587 29.3333 65.6146 31.0972 70.9064 31.9997C74.9717 32.6795 79.0927 32.968 83.213 32.8612H88.751L88.8741 35.384C88.8741 36.7583 89.0176 43.1577 89.0381 49.5981V61.3099L86.5153 61.5355C85.1411 61.6791 80.5056 61.8227 76.2598 61.9047L68.4656 62.0483V56.8385C68.4656 53.967 68.4656 48.0598 68.4656 43.6705C68.4656 37.5172 68.4656 35.7532 68.24 35.8763C68.0014 36.4963 67.9169 37.165 67.9939 37.8248C67.9986 38.4553 67.9643 39.0856 67.8913 39.7118C67.8913 39.7118 67.7272 44.8191 67.6657 50.8903C67.6042 56.9616 67.4811 62.1098 67.4606 62.1098C67.4401 62.1098 60.7125 61.8022 59.8305 61.6996L58.846 61.5971L58.9691 59.9357C59.2767 55.9771 60.0561 48.6546 60.5689 44.9216C60.5689 44.4089 60.5689 44.1012 60.4048 43.9986C60.2407 43.8961 60.2407 43.8346 60.4048 43.8346C60.5689 43.8346 60.6099 43.6294 60.5484 43.3423C60.4869 43.0551 60.5484 42.8705 60.692 42.8705C60.8356 42.8705 60.8766 42.8705 60.692 42.6244C60.5074 42.3783 60.4253 42.4603 60.3638 42.5218C60.3023 42.5834 58.7639 52.7773 58.3127 58.2538C58.1486 60.0382 57.9845 61.556 57.964 61.556C54.9882 61.2945 52.0298 60.863 49.1033 60.2638L47.4419 59.8741V57.823C47.4419 56.736 47.2778 54.2336 47.1958 52.2646C47.1625 50.9544 46.9415 49.6558 46.5394 48.4085C46.3343 48.1008 46.2933 48.1213 46.1907 48.6957C46.0882 49.27 46.0676 51.5467 46.0676 54.3157V59.3408H45.6369L45.1857 59.2178L45.6574 59.5665L46.1087 59.9152V69.1861C46.24 73.4466 46.0548 77.7109 45.5549 81.9439C44.8771 82.0735 44.1922 82.1625 43.5038 82.2106L41.5757 82.3542H43.6268H45.6779V82.9695C45.4113 84.6514 44.5909 92.7943 44.3242 96.4862C44.1601 98.7629 43.9755 103.563 43.8935 107.131L43.7704 113.633L42.027 113.777C41.063 113.777 39.8118 113.9 39.2375 113.9H37.9043V110.352C38.1504 104.198 38.4171 99.4398 38.8068 94.6402C39.5657 85.5334 39.7708 81.8004 39.8939 75.9547C40.0169 70.1091 39.8938 69.2477 39.4631 69.986C39.2848 71.5181 39.189 73.0587 39.176 74.601C38.9503 80.1595 38.6632 84.8565 38.3145 88.3434C38.1709 89.9022 38.0068 91.6867 37.9453 92.3225C37.8838 92.9583 37.7607 94.3736 37.6582 95.6043C37.3505 98.927 37.0838 103.583 36.9608 107.603C36.9608 109.654 36.8172 111.91 36.7557 112.649V114.023L33.0432 114.167C25.8438 114.392 21.6801 114.474 12.3066 114.577C2.93307 114.679 0 114.782 0 115.049C0 115.315 0.758905 115.397 3.09716 115.479C7.42497 115.602 31.2792 115.479 34.0072 115.479L36.7557 115.356V117.407C36.7839 118.197 36.7289 118.988 36.5916 119.766C36.448 119.971 35.5455 119.971 30.8485 119.766C27.7924 119.582 25.249 119.479 25.208 119.541C25.167 119.602 26.1925 119.828 30.0896 120.135L35.2379 120.546L36.6941 120.648V121.263C36.6941 121.612 36.6941 123.52 36.53 125.55C36.366 127.581 36.2839 129.304 36.2839 129.632C36.2839 129.96 36.2839 130.473 36.2839 130.781V131.355L32.6125 131.232C29.2897 131.129 29.0435 131.232 29.0435 131.457C29.0435 131.683 29.3717 131.827 31.5049 132.032C32.8791 132.155 34.479 132.257 35.1148 132.257H36.2839L36.1609 134.308C36.1609 135.457 35.9763 137.036 35.9147 137.816L35.7917 139.231H34.9097C31.4716 138.84 28.0069 138.737 24.5516 138.923C18.6035 139.416 15.9165 140.564 15.2397 142.841C14.8705 144.051 14.8705 144.01 15.2397 143.744C15.5671 143.492 15.8335 143.169 16.0191 142.8C16.4703 141.877 17.1062 141.405 18.624 140.872C22.8493 139.76 27.2406 139.42 31.5869 139.867C36.1403 140.195 35.7917 140.031 35.6891 141.692C35.5865 142.944 35.2379 148.482 34.8892 153.425C34.7987 154.195 34.7987 154.973 34.8892 155.742C35.0738 156.214 35.0943 156.194 35.1968 155.455C35.1968 155.025 35.3609 154.245 35.4225 153.712C35.7301 150.635 36.0993 146.348 36.3044 143.456L36.53 140.236L38.253 140.482C38.8614 140.54 39.4648 140.643 40.0579 140.79C40.0579 140.79 40.0579 142.021 39.8733 143.456C39.1864 151.69 39.0219 159.959 39.3811 168.213C39.8304 171.776 40.5156 175.304 41.4322 178.776C42.0065 181.135 42.4987 183.207 42.4987 183.371C42.4987 183.535 41.9655 183.822 39.176 183.986C38.5281 183.99 37.8847 184.094 37.2684 184.294C37.2684 184.458 38.0684 184.519 41.3706 184.581C42.9705 184.581 48.7136 184.376 51.9953 184.171L54.2926 184.027L54.1695 188.129C54.0054 192.949 53.9439 193.79 53.5542 198.385C53.3901 200.292 53.2055 203.615 53.1439 205.769C53.0209 209.379 53.1439 209.707 53.349 209.871C53.4263 209.918 53.515 209.943 53.6054 209.943C53.6959 209.943 53.7846 209.918 53.8618 209.871C53.9849 209.727 54.7233 201.502 55.154 195.103L55.2566 193.442H61.8611H68.4656V193.852C68.4656 194.077 68.3631 195.903 68.281 197.954C68.1785 201.236 68.281 201.502 68.4656 201.174C68.6505 200.884 68.7631 200.553 68.7938 200.21C68.7711 199.848 68.7711 199.485 68.7938 199.123C68.8964 198.446 69.2656 194.262 69.2656 193.77C69.2656 193.278 69.3681 193.38 74.2702 193.237C79.6031 193.093 87.4588 193.052 87.5614 193.237C87.6639 193.421 87.7254 207.122 87.5614 207.204C87.3973 207.287 85.4077 207.328 82.8438 207.389C78.0032 207.512 63.625 208.394 63.4404 208.579C63.2559 208.763 63.4404 208.743 63.4404 208.825C67.4085 209.085 71.3893 209.085 75.3573 208.825C77.8597 208.681 81.6747 208.538 83.8284 208.538H87.746V209.235C87.746 209.645 87.8485 211.655 87.9305 213.727C88.0126 215.799 88.1152 217.521 88.0741 217.542C86.0103 217.454 83.9546 217.227 81.9208 216.865C80.8748 216.681 80.0749 216.599 80.1774 216.701C82.1073 217.436 84.1179 217.939 86.1666 218.198L88.2177 218.444V219.45C88.2177 219.983 88.5459 224.167 88.8125 228.741C89.2433 236.145 89.9201 245.56 90.1663 248.001C90.1663 248.493 90.3714 250.257 90.556 251.959C90.6758 254.409 91.033 256.84 91.6225 259.22C91.9507 259.22 91.9917 258.441 91.8071 256.308C91.2738 250.031 89.5304 218.855 89.756 218.691C89.9817 218.527 91.9507 218.691 94.4736 218.691C96.9964 218.691 100.627 218.896 102.678 218.896C103.882 218.859 105.088 218.893 106.288 218.998C106.288 219.798 107.149 234.361 107.354 237.274C107.703 241.868 107.806 242.504 108.113 242.504C108.421 242.504 108.339 242.032 108.298 240.801C107.99 232.392 107.642 223.572 107.539 221.542L107.395 219.08H107.888C108.503 219.08 108.565 219.306 108.606 221.808C108.647 224.311 109.159 232.618 109.303 233.007C109.447 233.397 109.447 233.212 109.693 233.007C109.939 232.802 109.98 231.736 109.98 225.91V219.06H116.748V219.778C116.748 220.557 117.2 228.269 117.446 231.387C117.439 232.002 117.544 232.614 117.754 233.192C117.754 233.192 117.877 233.192 117.754 233.417C117.63 233.643 117.754 233.582 117.856 233.417C117.959 233.253 118.102 232.269 118 228.126C118 225.295 117.815 221.972 117.754 221.008L117.61 218.957H121.076C127.213 218.808 133.333 218.239 139.393 217.255C141.444 216.927 143.249 216.681 143.29 216.722C143.331 216.763 143.802 223.839 144.172 230.731C144.664 239.161 145.156 246.688 145.259 246.975C145.304 247.067 145.374 247.144 145.461 247.199C145.548 247.253 145.649 247.282 145.751 247.283C146.182 247.283 146.182 247.139 146.141 241.273C146.141 237.027 145.854 231.223 145.341 222.403C145.125 220.359 145.07 218.302 145.177 216.25C145.3 216.25 146.879 215.881 148.705 215.614C150.53 215.347 152.212 215.06 152.458 214.999C152.704 214.937 152.889 214.999 152.889 215.45C152.889 215.901 152.889 216.291 152.889 216.66C152.889 217.029 153.361 222.075 153.853 227.88C155.248 244.555 156.253 254.298 156.971 257.908C157.114 258.687 157.565 258.605 157.483 257.908C156.683 249.539 156.068 242.381 155.207 231.059C154.612 223.449 154.078 216.701 154.017 216.045L153.914 214.876L154.632 214.753C156.109 214.506 156.068 214.465 156.068 216.004C156.068 217.542 156.642 227.305 157.401 240.248C157.791 246.401 158.242 254.872 158.509 260.861C158.509 262.4 158.652 265.086 158.673 266.809C158.673 269.578 158.673 269.907 158.981 269.64C159.288 269.373 159.288 268.45 159.35 264.081C159.35 257.744 159.186 251.508 158.283 236.289C157.586 224.352 157.073 214.568 157.155 214.465C157.237 214.363 176.661 211.553 176.887 211.799C177.112 212.045 178.671 228.085 178.938 231.059C179.204 234.033 179.307 234.894 179.574 235.058C179.84 235.222 179.738 235.058 179.574 234.874C179.41 234.689 179.574 234.546 179.574 234.546C179.542 227.355 179.11 220.172 178.281 213.03L178.671 211.84H179.266C180.374 211.676 183.491 211.348 183.532 211.389C183.573 211.43 183.758 214.67 184.312 225.48C184.455 228.618 184.64 231.859 184.701 232.638C184.763 233.418 184.824 235.305 184.886 236.74C184.947 238.176 185.05 239.694 185.091 240.022C185.132 240.35 185.091 241.294 185.091 242.073C185.091 243.632 185.337 243.94 185.85 243.304C186.363 242.668 186.014 234.258 185.378 220.742C185.153 215.47 184.989 211.122 185.009 211.081C185.03 211.04 192.824 210.24 192.885 210.302C192.846 211.304 192.757 212.303 192.619 213.296C192.126 217.398 192.085 218.034 192.27 217.911C192.454 217.788 192.434 217.911 192.434 217.911C192.434 217.966 192.412 218.018 192.374 218.056C192.335 218.095 192.283 218.116 192.229 218.116C192.173 218.126 192.122 218.157 192.088 218.203C192.054 218.249 192.038 218.306 192.044 218.362C192.044 218.506 192.044 218.506 192.311 218.362C192.776 216.978 193.093 215.548 193.254 214.096L193.911 210.138L197.377 209.912C201.172 209.666 201.91 209.502 201.91 208.845C201.91 208.538 201.91 208.497 201.582 208.579C201.254 208.661 194.157 209.112 194.034 209.009C193.911 208.907 194.034 207.799 194.177 206.364C194.283 204.314 194.283 202.26 194.177 200.21C194.124 199.062 194.138 197.911 194.218 196.764C194.218 196.764 197.152 196.313 200.659 195.882C204.166 195.452 207.428 195.082 207.92 195L208.802 194.898V200.087C208.856 204.654 208.464 209.216 207.633 213.706C206.894 217.809 206.853 218.116 207.222 217.809C208.114 215.402 208.74 212.906 209.089 210.363C209.688 206.682 209.948 202.954 209.868 199.226V194.795H210.525C211.817 194.57 214.36 194.262 214.442 194.303C214.45 194.751 214.409 195.198 214.319 195.636C214.319 196.313 214.114 197.482 214.053 198.241C213.991 199 213.847 200.292 213.745 201.338C213.642 202.384 213.478 204.292 213.355 205.789C213.232 207.287 212.904 210.979 212.576 213.994C211.673 222.834 211.735 222.034 212.104 221.665C212.473 221.296 213.765 213.46 214.422 205.482C214.729 201.543 215.468 194.221 215.55 194.139C215.632 194.057 217.909 193.77 220.719 193.401L226.359 192.621H226.872V194.201C226.872 195.062 227.159 198.651 227.385 202.179C227.61 205.707 227.815 209.112 227.856 209.809C228.123 213.194 228.39 219.942 228.308 221.296C228.239 221.785 228.239 222.282 228.308 222.772C228.308 222.772 228.595 222.547 228.779 222.239C228.964 221.931 229.149 221.255 229.231 218.321C229.231 214.999 229.026 206.835 228.677 201.687C228.677 200.251 228.451 197.585 228.369 195.759L228.226 192.457L229.764 192.252C232.733 191.783 235.725 191.475 238.727 191.329C241.619 191.329 242.03 191.165 241.865 190.919C238.528 190.512 235.153 190.512 231.815 190.919C230.482 191.083 229.108 191.206 228.738 191.206H228.082V186.017C228.308 178.181 229.005 165.362 229.231 165.177C229.456 164.993 236.881 164.357 239.22 164.193C240.512 164.07 240.799 164.193 240.799 164.316C240.799 164.87 239.814 171.331 239.343 173.833C239.096 175.228 238.85 176.623 238.789 176.91C238.727 177.197 238.789 177.402 238.973 177.32C239.158 177.238 239.343 176.971 239.343 176.971C239.343 176.971 239.343 176.787 239.486 176.787C239.63 176.787 239.65 176.787 239.486 176.664C239.322 176.541 239.486 176.459 239.486 176.335C240.312 173.365 240.942 170.343 241.373 167.29L241.906 163.865L243.773 163.742C249.926 163.29 254.357 162.737 254.48 162.347C254.603 161.957 254.48 162.039 250.049 162.347L244.265 162.757L241.968 162.88L242.091 162.45C242.091 162.224 242.399 160.398 242.645 158.183C243.055 154.512 243.096 154.327 243.486 154.327C243.616 154.324 243.743 154.294 243.86 154.237C243.977 154.18 244.08 154.099 244.163 153.999C244.429 153.712 244.388 153.691 243.814 153.814C243.24 153.937 243.096 154.389 243.568 149.405C243.773 147.353 244.04 143.785 244.142 141.651C244.245 139.518 244.409 137.242 244.47 136.606V135.437L245.865 135.026C248.121 134.332 250.424 133.804 252.757 133.447C253.967 133.344 254.131 133.283 253.68 133.16C251.312 133.181 248.959 133.526 246.686 134.185C245.974 134.412 245.247 134.591 244.511 134.719C244.511 134.719 244.511 131.437 244.511 127.478C244.389 125.046 244.505 122.607 244.86 120.197C247.496 119.618 250.182 119.295 252.88 119.233C256.982 119.233 256.346 118.597 252.08 118.556C249.807 118.614 247.543 118.861 245.311 119.294C244.634 119.438 244.573 119.417 244.573 119.028C244.573 118.638 244.716 118.577 246.747 118.248C251.774 117.314 256.719 115.983 261.535 114.269C267.361 112.218 268.817 111.767 267.873 111.767C265.21 112.297 262.58 112.982 259.997 113.818C255.459 115.291 250.827 116.456 246.132 117.305C244.983 117.489 244.675 117.469 244.552 117.305C244.38 115.759 244.318 114.203 244.368 112.649V108.26H244.819L247.957 107.972C251.283 107.774 254.585 107.28 257.823 106.496C258.09 106.311 258.295 106.147 258.254 106.106C258.213 106.065 256.203 106.229 253.598 106.496C250.993 106.762 247.998 107.07 246.706 107.152C244.45 107.275 244.347 107.152 244.286 106.885C244.224 106.619 244.163 104.198 244.101 101.388C244.04 98.5784 243.937 95.4197 243.876 94.3941L243.732 92.5276L252.039 92.4045C260.571 92.261 262.54 92.4045 264.099 92.9789C264.981 93.3275 265.35 93.2045 264.776 92.7737C263.588 92.1681 262.291 91.8055 260.961 91.7072C260.12 91.7072 255.936 91.5021 251.629 91.4816H243.835L243.711 90.1688C243.711 89.4715 243.568 86.8461 243.486 84.3437C243.404 81.8414 243.322 79.6672 243.301 79.5237C243.281 79.3801 243.301 78.7237 243.301 78.1289C243.301 77.1649 243.301 77.0418 242.953 77.1444C242.604 77.2469 242.645 77.8418 242.768 84.3848L242.911 91.5021H241.373C240.553 91.5021 238.543 91.5021 236.922 91.6456L233.989 91.7687V88.3229C233.989 86.4564 233.989 83.1541 233.825 80.9184C233.753 79.5519 233.753 78.1826 233.825 76.8162L242.03 75.565L249.598 74.4164C260.031 72.4884 269.48 71.0663 277.944 70.1501C282.416 69.6579 285 69.2066 285 68.8579C285 68.5093 284.692 68.7144 283.072 69.0015C282.785 69.0015 280.836 69.2271 278.703 69.3707C268.316 70.2755 257.984 71.7339 247.752 73.7395C241.332 74.8882 233.928 76.1188 233.846 76.0163C233.764 75.9137 233.661 73.8626 233.558 71.3193C233.333 66.7453 232.861 59.2998 232.656 57.741V56.9616L235.999 56.8385C237.825 56.8385 239.486 56.6949 239.712 56.6334L240.245 56.5308C240.287 56.5147 240.322 56.4865 240.348 56.45C240.373 56.4135 240.388 56.3703 240.389 56.3257C239.117 56.0955 237.821 56.0265 236.533 56.1206H232.594V55.3002C232.594 54.8489 232.307 52.5927 232.082 50.316C231.569 44.9832 231.569 44.9011 231.179 44.9011C230.79 44.9011 230.892 45.2088 230.995 47.8137C230.995 49.434 231.179 50.8903 231.22 51.0749C231.261 51.2595 231.22 52.4697 231.405 53.7619C231.528 55.813 231.405 56.1206 231.405 56.0386C231.405 55.9565 230.277 55.9155 229.231 55.8335C228.185 55.7514 227.18 55.6694 227.18 55.6489C226.719 55.5533 226.253 55.4848 225.785 55.4438C225.149 55.4438 223.734 55.1771 222.606 54.9925L220.555 54.6643V46.0087C220.555 37.8043 220.555 37.3326 220.842 37.4351C221.519 37.6197 229.169 38.8914 231.446 39.1786C234.851 39.6093 236.533 39.6708 236.758 39.3837C236.984 39.0965 236.881 39.158 236.758 39.158L235.856 39.035L234.112 38.8094C232.697 38.6248 225.703 37.4556 222.893 36.9018C221.478 36.6147 220.657 36.3891 220.678 36.225C220.698 36.0609 220.678 35.4661 220.678 34.7892V33.3945H228.082C236.163 33.3945 242.091 33.0663 242.44 32.5945C242.604 32.4715 242.665 32.2664 242.583 32.2048C242.501 32.1433 237.599 32.0407 231.713 32.0202C224.964 32.0202 220.903 32.0202 220.78 31.8151C220.63 30.6508 220.63 29.472 220.78 28.3077C221.026 24.6158 220.965 24.3901 219.939 24.3901C219.467 24.3901 219.406 24.3901 219.549 24.6568C219.684 26.7593 219.595 28.8701 219.283 30.9537L219.16 31.7946L217.396 31.651C216.411 31.651 214.319 31.4049 212.719 31.2613L205.561 30.5845C202.884 30.3846 200.22 30.0354 197.582 29.5384C197.582 29.5384 197.582 27.3642 197.726 24.7593C197.992 18.2574 197.972 17.8266 197.726 17.8266C197.646 17.8367 197.573 17.8756 197.52 17.9361C197.467 17.9966 197.438 18.0744 197.439 18.1548C197.439 18.8522 196.803 29.3333 196.741 29.3948C196.68 29.4564 185.501 27.2412 184.927 26.954C184.353 26.6669 184.578 26.1951 184.578 16.4934V5.84822C184.578 5.80603 184.57 5.76428 184.553 5.72555C184.536 5.68682 184.512 5.65194 184.481 5.62309C184.45 5.59423 184.414 5.57201 184.374 5.55782C184.334 5.54362 184.292 5.53775 184.25 5.54056C184.045 5.54056 184.004 5.54056 184.25 5.66362C184.496 5.78669 184.455 5.82771 184.25 5.9918C184.029 7.47157 183.933 8.96731 183.963 10.4632C183.963 12.8014 183.799 15.4884 183.778 16.4524C183.758 17.4164 183.778 20.1239 183.778 22.4621V26.7694L182.281 26.3797L180.107 25.8464L179.43 25.6413V20.8623C179.367 17.508 179.121 14.1597 178.692 10.8324C178.692 10.5657 178.569 9.78633 178.507 9.08896C178.384 7.96085 177.974 6.7302 177.81 6.7302C177.697 8.20299 177.766 9.6841 178.015 11.1401C178.281 14.8731 178.384 25.0465 178.179 25.2721C172.807 24.1513 167.512 22.6922 162.324 20.9033L157.832 19.406C157.832 19.406 157.647 17.7241 157.504 15.6935C156.827 7.1199 156.683 6.01231 156.314 6.38151C156.256 8.20103 156.297 10.0224 156.437 11.8374C156.601 14.8115 156.745 17.6215 156.745 18.1138V19.0368L153.894 18.2163L151.145 17.3959L150.735 14.709C150.14 11.0785 148.561 2.27931 148.356 1.52041C148.253 1.19223 148.212 0.864056 148.356 0.802523C148.499 0.74099 148.356 0.679457 148.233 0.679457C147.761 0.679457 147.925 2.0742 149.566 12.7194C149.915 15.0371 150.161 16.9652 150.12 17.0062C147.989 16.7077 145.879 16.2761 143.802 15.714C143.802 15.714 143.515 14.0321 143.249 12.0836C142.736 8.35056 141.669 1.27428 141.485 0.53588C141.3 -0.202515 140.254 -0.120472 140.254 0.433325H140.09ZM113.918 16.9857C113.918 17.8882 113.918 19.4265 113.918 20.4315L113.815 22.1955H112.626L109.324 21.8878L105.939 21.5801C103.621 21.4366 98.1655 20.6982 93.9608 19.9803L89.8586 19.2829V17.4164V15.5089H99.3962H111.559H114.164L113.918 16.9857ZM122.902 15.6114C123.339 17.7937 123.654 19.9986 123.845 22.216V22.8313L122.738 22.7082C122.122 22.7082 120.687 22.5442 119.292 22.4826C117.897 22.4211 116.482 22.339 115.867 22.2775L114.759 22.1544V15.2628H118.861C120.213 15.282 121.562 15.3847 122.902 15.5704V15.6114ZM131.106 15.6114C134.344 15.7256 137.571 16.0476 140.767 16.5755C142.285 16.8421 142.162 16.5755 142.469 20.8212C142.469 22.3801 142.715 24.0415 142.756 24.5132V25.4362L141.423 25.1901C137.711 24.4517 130.86 23.3646 128.788 23.139C127.496 23.139 126.081 22.8928 125.671 22.8313H124.85L124.707 21.5186C124.707 20.8212 124.399 19.2624 124.214 18.1138C124.03 16.9652 123.845 15.8576 123.845 15.714C123.845 15.5704 125.589 15.3038 131.065 15.5909L131.106 15.6114ZM147.043 17.8061C148.121 18.0029 149.178 18.2981 150.202 18.6881C150.545 20.8411 150.764 23.012 150.858 25.1901C150.981 26.4412 150.858 26.6874 150.694 26.6874C150.53 26.6874 145.443 25.949 144.849 25.8259C144.254 25.7028 144.418 25.4567 144.11 21.7237C143.741 17.3344 143.741 17.2113 143.864 17.2113L147.043 17.8061ZM152.909 19.2624C153.668 19.447 156.806 20.411 156.909 20.4931C157.012 20.5751 157.012 22.175 157.094 24.185C157.094 27.3232 157.094 27.836 156.95 27.7334C156.806 27.6309 155.719 27.4668 154.55 27.2822C153.771 27.1866 153.003 27.0218 152.253 26.7899C152.018 25.8627 151.873 24.9147 151.822 23.9594C151.699 22.4826 151.515 20.7392 151.433 20.0418C151.433 18.9137 151.433 18.8317 151.679 18.9342L152.909 19.2624ZM95.253 21.3135C100.012 22.1134 104.791 22.7288 109.18 23.0569C110.616 23.0569 112.257 23.3236 112.81 23.3851H113.815V30.0307L112.523 30.1537C111.785 30.1537 110.329 30.3178 109.241 30.3999L107.19 30.5434V29.8871C107.19 29.5179 107.19 28.2462 107.19 27.0976C107.19 25.949 107.19 24.9234 107.088 24.8619C107.067 24.6231 107.067 24.3828 107.088 24.144C107.088 23.8158 107.088 23.5082 106.965 23.5082C106.805 24.3323 106.736 25.1714 106.76 26.0105C106.798 27.5461 106.715 29.0822 106.514 30.605C106.349 30.7691 93.3044 31.651 90.8431 31.651C90.1457 31.651 90.1252 31.651 90.0227 30.8101C90.0227 30.3588 89.8791 27.836 89.8176 25.1901L89.6124 20.3905H90.1868C90.4739 20.3905 92.7711 20.8623 95.2735 21.2725L95.253 21.3135ZM162.673 22.339C167.164 23.8158 169.728 24.5747 174.671 25.8669L177.748 26.6874C178.076 26.6874 178.097 26.9335 177.994 28.5539C177.789 31.1588 177.83 31.0562 176.558 30.9126C175.697 30.8101 162.611 28.6359 158.775 27.9591L158.14 27.836V26.6258C158.14 25.9285 158.14 24.3286 157.996 23.0774C157.852 21.8263 157.996 20.8007 157.996 20.8417L162.673 22.339ZM120.379 23.9184C121.616 23.9395 122.85 24.0492 124.071 24.2466C124.317 26.0965 124.454 27.9594 124.481 29.8256C124.481 29.8256 122.286 29.8256 119.641 29.9486H114.861V28.5334C114.861 27.7129 114.861 26.2361 114.718 25.2721L114.615 23.4672L115.661 23.5902C116.236 23.5902 118.307 23.8158 120.276 23.9184H120.379ZM132.193 24.9439C134.901 25.3542 140.09 26.2566 142.162 26.7079C142.736 26.8515 142.797 26.913 142.9 27.836C142.9 28.3898 143.023 29.4358 143.023 30.1537V31.4869L142.469 31.3434C138.482 30.5989 134.443 30.1669 130.388 30.0512C125.732 29.8256 125.589 29.805 125.568 29.4153C125.548 29.0256 125.445 27.918 125.322 26.6053L125.076 24.2055L127.127 24.3491C128.112 24.4312 130.409 24.6978 132.173 24.9439H132.193ZM147.946 27.6719C149.628 27.918 151.002 28.1642 151.043 28.2052C151.084 28.2462 151.145 29.4564 151.227 30.9537L151.35 33.6201L150.797 33.497C149.792 33.2919 144.972 31.9177 144.869 31.8151C144.649 30.301 144.588 28.7681 144.684 27.2412L147.946 27.6719ZM181.625 27.6719L183.676 28.1847V31.9997L182.958 31.8972L180.579 31.5485L178.938 31.3023V30.3178C178.883 29.2725 179.036 28.2267 179.389 27.2412C179.389 27.2412 180.497 27.4258 181.604 27.6924L181.625 27.6719ZM155.371 28.841L157.299 29.2923V32.3689C157.36 33.3906 157.305 34.4158 157.135 35.4251C156.971 35.4251 152.397 34.0918 152.356 34.0098C152.315 33.9277 152.356 32.7176 152.212 31.1793L152.089 28.4103L152.704 28.5129L155.371 28.841ZM186.978 28.9846C188.065 29.2512 190.465 29.7845 192.27 30.1537L196.003 30.9537C196.393 30.9537 196.413 31.1588 196.413 32.2253V33.3945H195.018C192.967 33.1894 184.906 32.3074 184.763 32.2664C184.661 31.0652 184.661 29.8576 184.763 28.6564L186.978 28.9846ZM166.467 30.728L175.718 32.2048C177.174 32.3894 177.399 32.492 177.399 32.7996C177.399 33.1073 177.092 35.2199 176.723 37.7428C176.353 40.2656 176.046 42.3167 176.046 42.3372C176.046 42.3578 174.877 41.927 173.482 41.3527C168.846 39.5478 164.231 37.7018 161.401 36.7583L158.57 35.7943L158.468 34.0713C158.468 33.1278 158.324 31.651 158.324 30.8306C158.324 29.4564 158.324 29.2923 158.673 29.3948C159.022 29.4974 162.365 30.0512 166.508 30.7485L166.467 30.728ZM124.666 32.0407C125.055 35.0764 125.343 56.859 124.994 59.8536V60.6946L123.107 60.5715C122.081 60.5715 119.702 60.3869 117.815 60.3254L114.39 60.2023V59.0127C114.554 57.2077 114.882 41.886 114.882 36.2455V31.3434H124.543L124.666 32.0407ZM132.542 31.4254C135.992 31.5703 139.423 32.0094 142.797 32.7381C143.225 36.9368 143.273 41.1655 142.941 45.3729C142.838 48.6341 142.736 51.7108 142.695 52.2441C142.654 52.7773 142.551 53.9875 142.49 54.9515C142.393 57.4442 142.16 59.9297 141.792 62.397C140.473 62.5209 139.142 62.4239 137.854 62.1098C134.388 61.6791 126.819 60.8382 126.348 60.8382C126.16 58.7913 126.16 56.7317 126.348 54.6849C126.471 49.1469 126.348 39.6503 125.917 33.3945V31.3434H127.968C128.747 31.3434 130.942 31.3434 132.686 31.4459L132.542 31.4254ZM201.11 31.7126C203.489 32.0202 214.217 33.0663 217.129 33.2919L218.996 33.415V34.7277C219.04 35.1778 219.04 35.6313 218.996 36.0814L217.888 35.8763L215.96 35.5891L214.032 35.302C212.76 35.0764 203.612 34.0508 199.838 33.7226L197.152 33.4765L197.275 32.6356C197.275 32.1433 197.398 31.6305 197.398 31.4664C197.398 31.3023 197.541 31.2203 198.218 31.3023C198.895 31.3844 199.982 31.61 201.151 31.7331L201.11 31.7126ZM113.733 36.7788C113.733 41.9065 113.528 50.6237 113.241 57.2898L113.098 60.3459H105.508L105.837 56.9821C106.575 49.434 107.129 39.117 107.17 32.6561V31.9382L109.344 31.7536C110.534 31.651 112.031 31.5485 112.646 31.5485H113.733V36.7788ZM106.308 36.4916C106.103 44.1012 105.242 56.0386 104.688 59.4844L104.544 60.3459L100.688 60.592C98.6373 60.7151 95.4171 60.9612 93.7146 61.1048C92.0122 61.2484 90.597 61.3714 90.5765 61.3509C90.556 61.3304 90.4534 56.3668 90.3303 50.357C90.2073 44.3473 90.0842 38.0505 90.0227 36.225L89.8791 33.0458L94.6992 32.7996C97.3451 32.6561 100.709 32.4305 102.124 32.3074L105.591 32.0202H106.452L106.308 36.5121V36.4916ZM181.748 33.0253L183.491 33.2714V39.3016C183.491 42.6244 183.491 45.3524 183.491 45.3524L180.353 44.1217C179.239 43.7608 178.182 43.2428 177.215 42.5834C177.215 42.4398 177.481 40.1631 177.851 37.5787C178.22 34.9943 178.548 32.7996 178.548 32.7176C178.548 32.6356 178.876 32.7176 179.266 32.7176C179.656 32.7176 180.845 32.9432 181.789 33.0458L181.748 33.0253ZM148.069 34.0303C149.751 34.5021 151.166 34.9328 151.227 34.9738C151.289 35.0148 151.227 45.6395 151.084 48.8392C150.858 52.6543 150.181 61.2894 149.997 62.7252C149.894 63.7302 149.853 63.7712 149.361 63.6892C148.869 63.6071 147.7 63.4225 146.264 63.2379L143.679 62.8892L143.802 61.2279C143.802 60.3254 144.049 57.9461 144.213 55.9771C144.643 50.5006 144.931 40.8605 144.787 36.7788C144.68 35.5779 144.68 34.3698 144.787 33.1688C144.787 33.1688 146.346 33.5586 148.048 34.0303H148.069ZM190.937 34.0303L196.27 34.5636V35.1174C196.27 35.4251 196.27 37.5172 196.105 39.7734C196.17 42.9745 195.998 46.176 195.593 49.352C195.141 49.352 188.352 47.1573 185.706 46.1523L184.763 45.8036V33.3945H185.214L190.937 34.0303ZM203.038 35.1379C209.868 35.7737 218.893 36.8608 218.893 37.0454C218.893 37.23 218.893 40.9425 218.893 45.6395V54.2336L218.462 54.1311L212.678 53.2081C207.446 52.3945 202.262 51.292 197.152 49.9058C196.844 49.8032 196.823 49.5571 196.905 47.0548C196.905 45.5575 197.069 42.1732 197.11 39.5067C197.234 34.7892 197.254 34.7277 197.664 34.7277L203.1 35.2199L203.038 35.1379ZM155.412 36.0814L157.463 36.6967V50.7673C157.463 64.0789 157.463 64.8378 157.155 64.8378C156.847 64.8378 151.289 63.9148 151.207 63.8328C151.125 63.7507 151.35 61.2484 151.597 58.1717C152.253 50.0904 152.458 45.5985 152.458 40.1016V35.3225L152.991 35.4251L155.412 36.0814ZM170.015 41.2707L175.902 43.65V44.3473C175.902 44.7575 175.615 47.0138 175.389 49.4135C175.152 52.7008 174.7 55.9691 174.036 59.1973C173.538 61.5049 173.25 63.8526 173.174 66.212C173.174 67.6068 173.174 67.7709 172.846 67.7093C172.518 67.6478 169.4 67.0735 165.606 66.3966L158.673 65.1455V55.2181C158.673 49.7622 158.673 43.4038 158.529 41.1681L158.427 37.0659L161.278 38.0299C162.878 38.5632 166.816 40.0605 170.057 41.3527L170.015 41.2707ZM180.702 45.701L183.696 46.8907L183.553 58.1922C183.553 64.3455 183.389 69.5553 183.348 69.5963C183.307 69.6374 175.143 68.2836 174.548 68.1195C173.954 67.9555 174.405 63.1354 175.082 59.669C175.799 56.255 176.265 52.7931 176.476 49.311C176.702 46.8086 176.928 44.655 176.969 44.4909C177.01 44.3268 176.846 44.0602 180.702 45.701ZM189.05 48.7982C191.101 49.4751 193.357 50.234 194.259 50.5006L195.859 50.9313L195.736 54.1516C195.736 55.9155 195.593 60.2023 195.531 63.7302C195.47 67.2581 195.367 70.5398 195.326 71.0321C195.203 71.9141 195.162 71.9756 194.752 71.8731C194.342 71.7705 186.834 70.2937 185.686 70.0681C185.132 70.0681 184.742 69.863 184.763 69.7604C184.783 69.6579 184.763 64.6122 184.763 58.4794C184.763 47.9367 184.763 47.3419 185.112 47.465L189.05 48.7982ZM199.162 51.8543C202.382 52.6748 206.505 53.5157 212.453 54.4592L218.339 55.4438L218.914 55.5668L218.832 63.0738C218.688 70.9501 218.524 76.3855 218.38 76.5085C215.56 76.4641 212.753 76.1064 210.012 75.442C208.679 75.1753 205.069 74.3344 202.013 73.596L196.434 72.2422V69.5758C196.434 68.1401 196.618 63.4225 196.68 59.0537C196.741 54.6849 196.823 51.1775 196.885 51.1775L199.162 51.8543ZM222.38 55.9565C225.011 56.3537 227.66 56.6138 230.318 56.736C231.425 56.736 231.61 56.736 231.61 57.0641C231.61 57.3923 231.754 59.3203 231.897 61.6586C232.266 67.5247 232.635 75.8932 232.533 76.0163C230.329 76.3986 228.102 76.6384 225.867 76.7342H224.103L224.205 71.1347C224.205 66.5607 224.205 65.5557 224.062 65.6787C223.918 65.8018 223.857 65.6787 224.062 65.5557C224.307 64.8166 224.307 64.018 224.062 63.279C223.898 63.0533 223.898 63.0123 224.062 63.1149C224.226 63.2174 224.267 63.1149 224.247 62.6021C224.226 62.0893 224.103 61.9457 223.959 61.9457C223.816 61.9457 223.775 61.9457 223.959 62.1509C224.012 62.2413 224.039 62.3439 224.039 62.4483C224.039 62.5527 224.012 62.6552 223.959 62.7457C223.822 64.1085 223.767 65.4784 223.795 66.8479C223.795 70.5603 223.672 73.0012 223.447 75.524V76.7752L221.683 76.6316L219.878 76.4675C219.878 76.4675 219.878 74.1293 220.021 71.2987C220.165 68.4682 220.247 63.7507 220.308 60.8176C220.431 55.4438 220.431 55.4233 220.842 55.5258L222.38 55.9565ZM49.1853 60.7356C51.8254 61.3207 54.496 61.7589 57.1846 62.0483C57.6769 62.0483 57.7794 62.1919 57.7384 62.6021C57.5743 64.0789 56.8769 73.637 56.5898 77.7802C56.4257 80.4466 56.2411 82.6413 56.2206 82.6823C56.2001 82.7234 54.5182 82.5593 52.5081 82.3542C50.498 82.1491 48.4059 81.9439 47.8316 81.9439H46.806V81.1235C46.806 80.6723 46.9906 75.7906 47.0522 70.2732C47.1137 64.7557 47.1752 60.2844 47.1958 60.2844L49.0828 60.7356H49.1853ZM113.118 61.9663C113.118 62.479 112.831 67.5863 112.626 73.3293C112.421 79.0724 112.175 84.0566 112.175 84.3848V85.0001L110.123 84.5488C108.975 84.2822 106.985 83.8925 105.693 83.6464L103.314 83.2156V82.067C103.314 80.8363 103.519 78.9493 104.852 67.7093C105.283 64.1199 105.632 61.1458 105.632 61.0843C106.921 60.9791 108.215 60.9449 109.508 60.9817H113.385L113.118 61.9663ZM123.148 61.3714L125.035 61.4945L124.932 64.5096C124.932 66.171 124.686 70.1912 124.522 73.4319C124.358 76.6726 124.194 80.6312 124.132 82.2311C124.071 83.831 123.989 85.3488 123.927 85.5949V86.0667L120.379 85.9436C118.064 85.9129 115.756 85.6657 113.487 85.2052C113.487 85.2052 113.487 83.4002 113.59 81.2671C114.021 71.0116 114.349 62.4585 114.349 61.7611V61.0022L117.795 61.1048L123.148 61.3714ZM104.503 61.6791C104.503 61.9252 104.216 64.284 103.909 66.9504C103.088 73.9242 102.411 79.8723 102.268 81.5748L102.165 83.031H96.0119H89.8586C89.8586 83.031 89.8586 81.8209 89.9817 80.3851C90.1047 78.9493 90.2278 74.3344 90.3508 70.1296C90.4739 65.9249 90.6175 62.4585 90.6585 62.4175C90.6995 62.3765 100.319 61.5355 102.965 61.474C104.442 61.2484 104.503 61.2689 104.503 61.6791ZM129.568 61.9252C132.727 62.2534 141.71 63.3815 141.874 63.443C142.039 63.5046 141.71 65.6377 141.464 68.2221C141.218 70.8065 140.767 75.7086 140.48 79.0519C140.193 82.3952 139.905 85.2052 139.864 85.3693C139.823 85.5334 138.921 85.6154 136.275 85.6154C134.224 85.6154 131.045 85.6154 128.973 85.841C126.901 86.0667 125.199 85.9846 125.158 85.841C125.117 85.6975 125.261 82.3542 125.466 78.1494C125.671 73.9447 125.896 69.0425 125.958 67.2376C126.122 62.6636 126.225 61.5355 126.532 61.5355L129.568 61.9252ZM64.0558 62.6226C65.9223 62.7252 67.4606 62.8482 67.4606 62.8687C67.4606 62.8893 67.5632 65.289 67.6247 68.2016C67.6862 71.1141 67.7888 75.5445 67.8503 78.0058L67.9734 82.4977L65.6761 82.6208C62.9434 82.7698 60.2045 82.7698 57.4718 82.6208C57.4718 82.6208 57.8204 75.7086 58.5588 65.4736L58.7024 62.1098L59.6869 62.2329C60.2202 62.356 62.2098 62.4995 64.0558 62.6226ZM89.1407 67.2786C88.9971 72.632 88.71 79.1339 88.5254 81.6363L88.4023 83.0721L85.1821 82.949L77.7981 82.6208C75.5214 82.5182 72.5883 82.4772 71.2962 82.6208H68.9579L68.8348 78.9699C68.8348 76.9188 68.6502 72.5089 68.5887 69.1041L68.4451 62.9508H73.9421C79.0033 63.045 84.0655 62.8258 89.0997 62.2944C89.2275 63.9529 89.2412 65.6182 89.1407 67.2786ZM147.187 64.1609C148.643 64.3866 149.853 64.5711 149.874 64.6122C149.894 64.6532 149.874 65.4326 149.751 66.3966C149.443 69.945 148.992 77.5546 148.889 81.7388L148.746 86.0667L147.474 85.9641L143.926 85.718C141.874 85.718 141.649 85.5744 141.649 85.2667C141.649 84.9591 142.736 72.714 143.187 67.9555C143.413 65.9044 143.577 64.0379 143.577 63.9558C143.577 63.8738 144.254 63.7507 147.187 64.1609ZM154.755 65.3506L157.504 65.8018V68.0375C157.504 70.0886 157.299 76.5291 157.012 83.2156L156.868 86.2718H153.525C152.359 86.2757 151.195 86.2072 150.038 86.0667C149.812 85.841 150.653 68.4272 151.043 65.5557C151.043 64.7968 151.207 64.7352 151.576 64.7968C151.945 64.8583 153.196 65.1044 154.755 65.3301V65.3506ZM166.057 67.4017L173.051 68.6528C173.051 68.6528 173.051 69.822 173.051 71.2167C173.051 72.6115 173.051 75.0112 173.174 76.488C173.379 79.6262 173.687 85.5744 173.666 85.6359C173.646 85.6975 162.242 86.2718 160.314 86.2718H158.058L158.16 84.2207C158.365 81.021 158.673 71.6064 158.673 68.7349C158.673 66.9299 158.673 66.1915 158.878 66.1915C159.083 66.1915 162.242 66.6428 166.057 67.3401V67.4017ZM183.286 72.3653C183.286 75.2369 182.814 85.4103 182.773 85.4513H178.856H174.959V83.4002C174.959 82.2721 174.795 80.9184 174.733 80.3851C174.733 78.8878 174.364 72.9601 174.384 71.832C174.384 71.2782 174.384 70.3552 174.384 69.7809V68.7554L178.876 69.5348L183.368 70.3142V72.1602L183.286 72.3653ZM190.793 71.8936C193.172 72.3653 195.162 72.7961 195.223 72.8371C195.285 72.8781 194.957 86.0461 194.813 86.1897C194.01 86.194 193.207 86.1322 192.413 86.0051C191.142 85.8205 188.783 85.6359 187.142 85.5744L184.148 85.4513L184.291 83.1131C184.291 81.8209 184.455 78.5186 184.517 75.7906L184.66 70.7655L185.542 70.909C186.014 70.8885 188.393 71.3193 190.793 71.8115V71.8936ZM201.787 74.4164C206.321 75.5984 210.915 76.5364 215.55 77.2264L218.216 77.5136C218.245 77.5133 218.274 77.5207 218.299 77.535C218.324 77.5493 218.345 77.57 218.359 77.595C218.374 77.62 218.382 77.6484 218.382 77.6773C218.382 77.7062 218.374 77.7347 218.36 77.7597C218.36 77.8828 218.237 79.1339 218.196 80.5082C217.888 87.2973 217.621 90.4765 217.375 90.4765C217.129 90.4765 215.099 90.0663 212.617 89.5125C207.961 88.5075 202.218 87.4614 198.731 86.9076C195.88 86.4564 196.003 86.5179 196.105 85.6769C196.105 85.2872 196.249 82.2721 196.331 79.0109C196.331 73.637 196.475 73.0627 196.762 73.1447L201.787 74.4164ZM232.553 78.1289C232.553 78.7032 232.553 81.985 232.677 85.4308V91.7072L228.062 91.5841C225.539 91.5841 223.282 91.3995 223.057 91.338C222.831 91.2764 222.667 91.1739 222.893 89.2869C223.016 88.1998 223.262 85.5334 223.447 83.3387C223.631 81.144 223.816 79.0109 223.877 78.5391V77.7392H225.559C226.503 77.7392 228.267 77.5956 229.477 77.4726L232.041 77.1854C232.471 77.1034 232.574 77.329 232.635 78.1084L232.553 78.1289ZM223.139 79.298C222.954 81.3491 222.934 81.7388 222.421 86.805C222.32 88.2425 222.142 89.6734 221.888 91.0918C220.862 91.1501 219.832 91.0603 218.832 90.8252C218.832 90.8252 219.221 82.6208 219.508 79.175L219.611 77.7802H223.303L223.139 79.298ZM52.5491 82.9285L56.2206 83.3592V84.0566C55.7693 90.7226 54.9899 101.655 54.7233 104.875C54.7233 105.511 54.5797 106.803 54.5182 107.788C54.3336 110.495 54.0669 113.736 54.0054 113.777C53.9439 113.818 51.9543 113.777 49.4109 113.777H44.878L45.0216 107.624C45.1652 101.347 45.3703 96.7939 45.719 92.8968C46.0061 89.6356 46.724 83.0721 46.806 82.7644C46.8881 82.4567 46.5394 82.2516 52.5491 82.9285ZM80.8543 83.4207L88.4638 83.7694L88.3408 85.0411C88.2382 86.2513 87.2537 103.009 86.9665 108.383L86.823 110.905L84.5052 111.152C82.4541 111.357 79.6851 111.746 71.5423 112.936C71.0291 113.038 70.5066 113.086 69.9835 113.08C69.9835 113.08 69.7373 107.234 69.2861 92.9789C69.1015 89.6356 69.1015 86.0872 69.1015 85.1026V83.3182H69.6143C73.3595 83.1228 77.1132 83.1571 80.8543 83.4207ZM68.0144 85.1231C68.0144 86.0872 68.24 91.7482 68.4041 97.7169C68.5682 103.686 68.7528 109.613 68.8143 110.885L68.9579 113.244H68.3836C64.4642 113.718 60.5164 113.916 56.5693 113.839L55.1745 113.715V112.628C55.3181 110.803 57.2256 84.0771 57.2256 83.4002C57.2256 83.4002 59.6049 83.4002 62.5175 83.2772H67.8298L68.0144 85.1231ZM101.529 83.995H102.165V89.6356C102.022 92.8763 101.919 98.8655 101.919 103.132V110.844H88.2998V109.9C88.2998 109.408 88.4844 106.352 88.669 103.091C88.8535 99.8295 89.1202 94.3736 89.3253 90.9072C89.5304 87.4409 89.715 84.4258 89.715 84.1796V83.7284L95.2735 83.8515C98.4117 83.8515 101.181 83.9335 101.529 83.995ZM108.072 85.0821C110.123 85.5334 111.99 85.9026 112.01 85.9436C112.031 85.9846 111.395 102.681 111.108 108.157L110.985 110.68H106.76H102.534L102.657 105.183C102.657 102.106 102.822 98.8655 102.842 97.963C102.863 97.0605 102.842 93.5532 102.842 90.1894V84.0361L103.478 84.1591C103.97 84.2412 106.021 84.6719 108.072 85.0821ZM116.974 86.682C118.348 86.8461 120.01 86.9691 120.646 86.9691C121.386 86.9741 122.126 87.022 122.861 87.1127L123.886 87.2358L123.763 90.0458C123.599 93.7993 123.497 96.6708 123.332 101.676C123.332 103.973 123.189 106.414 123.168 107.111C123.148 107.808 123.168 108.895 123.168 109.552V110.782H112.38L112.503 107.911C112.81 100.855 113.405 87.2153 113.405 86.723C113.405 86.2307 113.405 86.1897 113.938 86.2718C114.472 86.3538 115.579 86.5384 116.974 86.723V86.682ZM139.721 86.9281C139.721 87.1127 139.721 88.528 139.516 90.0663C139.208 94.6197 138.962 101.286 138.921 105.942C138.921 108.342 138.921 110.393 138.798 110.516C138.675 110.639 136.972 110.762 131.373 110.782H124.03V109.49C124.03 108.752 124.235 105.162 124.338 101.491C124.563 94.2095 124.85 87.1332 124.932 87.1332C125.014 87.1332 134.162 86.723 137.239 86.682C139.475 86.5999 139.721 86.723 139.721 86.9281ZM182.794 87.1127C182.794 87.728 182.343 98.9886 182.137 106.803V112.034H179.122H176.087L175.759 108.321C175.759 106.27 175.533 103.091 175.451 101.388C175.123 95.7273 175.061 94.8248 174.938 90.8047L174.815 86.7025L175.759 86.723C176.251 86.723 178.056 86.723 179.717 86.723H182.773L182.794 87.1127ZM192.167 86.9691L194.218 87.2973H194.854L194.772 90.8252C194.772 92.7122 194.567 96.4247 194.465 99.0296C194.362 101.634 194.218 105.183 194.218 106.906C194.218 108.629 194.054 110.372 194.013 110.905V111.931H190.547C188.701 111.931 186.445 111.931 185.296 112.054H183.389L183.512 106.66C183.512 103.686 183.676 100.506 183.737 99.4398C183.799 98.3732 183.86 95.6863 183.922 93.2865C183.983 90.8867 184.086 88.4459 184.127 87.7075L184.25 86.3743L187.491 86.4769C189.234 86.723 191.347 86.8666 192.167 86.9691ZM146.141 86.9691H148.582V98.0245C148.582 104.178 148.787 109.429 148.848 109.88L148.971 110.721H140.623L140.746 103.973C140.746 100.281 141.013 95.1735 141.157 92.6302C141.3 90.0868 141.444 87.687 141.444 87.3383V86.723H142.572C143.167 86.723 144.787 86.8461 146.12 86.9281L146.141 86.9691ZM173.707 89.8202C173.707 91.5021 173.707 93.5737 173.707 94.4351C174.097 101.04 174.2 102.947 174.302 105.737C174.302 107.501 174.446 109.675 174.507 110.557L174.61 112.177L171.841 112.054C167.164 111.828 156.519 111.172 156.437 111.07C156.355 110.967 156.663 106.126 157.053 100.199C157.442 94.271 157.77 88.9587 157.791 88.4254V87.4614L162.242 87.3178C164.703 87.3178 167.903 87.1127 169.4 87.0102L172.846 86.805H173.707V89.8407V89.8202ZM156.663 87.4819C156.765 87.5845 155.289 110.864 155.145 110.967C154.299 111.039 153.448 111.039 152.602 110.967H150.14L150.017 105.634C150.017 102.701 149.874 99.0091 149.812 97.4297C149.751 95.8504 149.812 92.9378 149.812 90.8867L149.935 87.1537L153.258 87.2973C155.063 87.2973 156.601 87.4409 156.642 87.4819H156.663ZM200.659 88.3229C203.141 88.7331 206.279 89.3279 207.653 89.5945C211.386 90.3534 217.314 91.6456 217.396 91.6456C217.478 91.6456 216.165 109.716 216.001 109.9C210.135 110.778 204.226 111.347 198.3 111.603L195.121 111.746L195.265 108.854C195.388 105.716 195.654 98.0861 195.88 91.6046C195.88 89.3484 196.023 87.5024 196.085 87.5024L200.659 88.3229ZM220.883 92.1584C221.785 92.2815 221.949 92.3635 221.908 92.6917C221.867 93.0199 221.642 94.7428 221.395 96.9375C220.924 100.609 220.472 104.793 220.206 108.116L220.062 109.593L218.832 109.736C218.395 109.778 217.955 109.778 217.519 109.736C217.519 109.736 217.519 108.342 217.704 106.742C218.032 103.05 218.75 93.0814 218.75 92.384C218.75 91.6867 218.75 91.8097 219.303 91.8918L220.883 92.1584ZM229.087 92.7122C230.389 92.637 231.696 92.7545 232.964 93.0609V98.4963C232.964 104.875 232.759 108.26 232.471 108.26L226.851 108.834L221.293 109.429C220.924 109.429 221.19 105.942 222.216 97.1221C222.503 94.7223 222.77 92.6712 222.811 92.5071C222.852 92.343 223.159 92.2815 224.062 92.3635C224.964 92.4456 226.79 92.6507 228.923 92.7122H229.087ZM243.281 93.2045C243.281 93.6762 243.424 96.999 243.486 100.629L243.445 107.234L241.394 107.378C240.245 107.378 238.153 107.644 236.738 107.788C235.869 107.926 234.992 108.008 234.112 108.034C234.112 108.034 234.112 104.547 234.112 100.363V92.7737H235.015C236.676 92.7737 242.296 92.4661 242.624 92.425C242.953 92.384 242.973 92.5891 243.055 93.2045H243.281ZM243.588 110.147C243.588 111.193 243.588 113.305 243.711 114.885L243.835 117.715H243.178C240.763 118.03 238.332 118.202 235.897 118.228H233.558V115.746C233.558 114.392 233.743 112.321 233.825 111.152V109.1L235.876 108.854C239.035 108.485 241.394 108.28 242.317 108.239H243.137L243.588 110.147ZM232.574 113.51C232.451 115.787 232.369 117.797 232.369 117.982C232.369 118.166 231.959 118.33 226.359 118.33H220.206V117.489C220.206 117.038 220.411 115.438 220.514 113.695C220.616 111.952 220.739 110.68 220.78 110.618C220.821 110.557 232.369 109.265 232.471 109.347C232.574 109.429 232.512 111.336 232.41 113.51H232.574ZM219.98 111.459C219.98 112.28 219.549 118.269 219.488 118.351L217.95 118.515L216.452 118.638L216.575 118.084C216.575 117.756 216.822 116.259 216.986 114.7C217.396 110.926 217.355 111.07 218.093 110.967C219.693 110.7 219.816 110.721 219.816 111.336L219.98 111.459ZM216.104 111.767C216.104 112.444 215.365 118.412 215.283 118.495C210.782 118.885 206.263 119.042 201.746 118.966H194.875L194.977 116.197C194.977 114.679 195.1 113.326 195.162 113.203C195.223 113.08 195.757 112.977 197.049 112.977C199.962 112.977 207.797 112.3 212.842 111.603L215.714 111.254C215.858 111.172 215.94 111.336 215.94 111.705L216.104 111.767ZM98.7193 112.136L101.96 112.259V115.623C102.03 116.736 102.03 117.853 101.96 118.966L99.909 119.253C96.5041 119.653 93.0812 119.879 89.6535 119.93H88.0536V118.33C88.0536 117.448 88.2177 115.705 88.2792 114.474L88.3818 112.218H89.4689C91.4995 111.931 95.376 111.931 98.5552 112.075L98.7193 112.136ZM86.7409 116.238L86.6179 120.115H84.936C80.8338 120.423 76.2803 120.628 73.3678 120.628H70.0655V117.489C70.0044 116.455 70.0525 115.417 70.2091 114.392C70.2091 114.392 72.014 114.146 74.0241 113.818C79.0903 113.039 86.4538 112.095 86.6589 112.177C86.864 112.259 86.6589 114.023 86.5768 116.156L86.7409 116.238ZM110.821 114.003C110.821 115.049 110.698 116.32 110.698 116.792V117.695L108.913 117.818C107.929 117.818 106.165 118.125 104.975 118.31C103.786 118.495 102.924 118.659 102.822 118.638C102.719 118.618 102.822 117.161 102.637 115.356L102.514 112.136H110.944L110.821 114.003ZM122.984 112.649C122.984 112.957 122.861 114.187 122.799 115.397C122.738 116.607 122.656 117.613 122.656 117.633C122.656 117.654 120.215 117.633 117.282 117.633H111.99L112.175 116.054C112.175 115.254 112.298 114.003 112.298 113.346V112.136H123.127V112.649H122.984ZM138.859 112.649C138.859 112.957 138.859 114.269 138.859 115.561V117.941H133.383C130.429 117.941 127.024 117.941 125.814 117.797H123.64V116.71C123.64 116.095 123.804 114.864 123.886 113.921V112.239H138.839L138.859 112.649ZM148.992 114.249C148.969 115.255 149.003 116.262 149.094 117.264L149.217 118.166H145.648L141.382 118.064H140.685V112.136H149.094V114.187L148.992 114.249ZM154.899 112.444C155.166 112.567 155.186 112.833 155.083 114.495C155.083 115.561 154.94 116.813 154.878 117.264V118.084H150.345V112.321H152.397C153.233 112.297 154.069 112.338 154.899 112.444ZM163.308 112.916C164.642 112.916 167.759 113.162 170.241 113.244H174.733V118.269L165.503 118.248C160.416 118.248 156.232 118.064 156.191 118.043C156.138 117.107 156.138 116.169 156.191 115.233L156.355 112.485L158.591 112.608L163.308 112.916ZM193.767 115.849C193.749 116.802 193.681 117.754 193.562 118.7C193.562 118.7 183.43 118.371 183.307 118.289C183.184 118.207 183.307 117.12 183.307 115.767V113.285H186.424H191.634H193.685L193.542 116.033L193.767 115.849ZM181.891 115.849V118.371H176.087V113.387H178.979H181.891V115.849ZM68.8964 115.069C68.8964 115.315 68.8964 116.71 69.0399 118.166L69.1425 120.833H67.7067C66.9273 120.833 64.2814 120.976 61.8406 121.12C59.3998 121.263 56.7744 121.428 56.0565 121.428H54.7438L54.8669 118.741C55.072 114.762 54.4977 115.233 59.4203 115.213C61.7175 115.213 64.6506 115.069 65.9223 114.946L68.5887 114.679C68.7733 114.638 68.8964 114.782 68.8964 115.069ZM43.4833 117.674C43.4866 118.587 43.418 119.499 43.2782 120.402C42.312 120.422 41.3455 120.374 40.3861 120.258L37.6787 120.012V118.925C37.6787 118.33 37.6787 117.264 37.8017 116.546C37.9453 115.008 37.8017 115.09 41.145 115.049H43.6063L43.4833 117.674ZM53.267 115.151C53.7593 115.151 53.9644 115.356 53.9028 115.602C53.8413 115.849 53.7798 117.1 53.6977 118.556L53.5747 121.222H51.9748C50.416 121.222 46.5804 120.935 45.2677 120.73H44.5704L44.7344 119.828C44.8379 118.895 44.8858 117.956 44.878 117.018V115.028H48.7341C50.8262 115.028 52.8773 115.09 53.267 115.151ZM121.158 118.433L122.594 118.577L122.451 120.525C122.286 122.822 121.528 130.206 121.466 130.227C121.404 130.247 119.866 130.227 117.938 130.063C116.01 129.899 113.836 129.96 112.933 130.063H111.416L111.539 128.012C111.539 126.925 111.703 124.812 111.744 123.335C111.908 119.233 112.031 118.433 112.4 118.33C112.769 118.228 119.579 118.187 121.158 118.33V118.433ZM110.472 120.874C110.472 122.186 110.288 124.791 110.205 126.658L110.123 130.063L108.072 130.206L104.442 130.452L102.739 130.575V119.541L105.591 119.13C108.626 118.7 109.324 118.597 110.082 118.536H110.575L110.452 120.894L110.472 120.874ZM132.85 118.823C136.029 118.823 138.675 118.966 138.695 118.987C138.716 119.007 138.695 131.519 138.695 131.642C138.695 131.765 135.639 131.478 132.029 131.129L124.03 130.391C123.107 130.391 122.512 130.186 122.512 130.042C122.512 129.899 123.497 119.787 123.599 119.13V118.495H125.281C126.204 118.495 129.568 118.638 132.768 118.72L132.85 118.823ZM243.609 119.192C243.609 119.459 243.609 119.684 243.486 119.684C243.363 119.684 241.127 120.156 238.44 120.771C235.753 121.387 233.497 121.817 233.435 121.776C233.365 121.355 233.365 120.926 233.435 120.505L233.558 119.356L236.984 119.192C238.85 119.192 240.901 118.987 241.537 118.905C243.609 118.659 243.609 118.659 243.609 119.192ZM149.094 125.427C149.111 127.653 149.015 129.878 148.807 132.093C146.068 132.203 143.324 132.094 140.603 131.765C140.603 131.765 140.439 128.771 140.398 125.263V118.905H149.197L149.094 125.427ZM154.694 120.587C154.571 122.145 154.181 130.842 154.181 131.806C154.181 132.237 154.181 132.257 152.13 132.257H150.079L150.222 130.76C150.222 129.96 150.222 126.945 150.222 124.094V118.905H154.837L154.694 120.587ZM174.692 124.299C174.692 127.15 174.692 130.001 174.569 130.658L174.446 131.806L172.19 131.95C170.487 131.95 157.463 132.134 155.781 132.073C155.555 132.073 155.535 131.416 155.637 127.971C155.637 125.776 155.822 122.863 155.883 121.489L156.027 119.028H174.733L174.692 124.299ZM181.727 125.325C181.727 128.771 181.604 131.601 181.584 131.601L178.712 131.847H175.759V130.514C175.759 129.796 175.902 126.904 175.902 124.115V119.089H181.912L181.727 125.325ZM229.456 119.171H232.082V120.566C232.062 121.061 232.014 121.554 231.938 122.043C231.938 122.043 230.625 122.412 229.108 122.761L223.057 124.197C221.293 124.648 219.775 124.955 219.734 124.935C219.693 124.914 219.734 123.663 219.96 122.166C220.185 120.669 220.247 119.397 220.247 119.315C222.236 119.113 224.237 119.044 226.236 119.11L229.456 119.171ZM192.003 119.541L193.501 119.664V120.73C193.501 122.597 192.988 130.432 192.865 130.555C190.405 130.939 187.926 131.193 185.44 131.314L183.245 131.457V119.151L186.876 119.294C188.886 119.541 191.183 119.541 192.003 119.541ZM219.221 119.93C219.133 121.717 218.941 123.498 218.647 125.263C217.528 125.61 216.392 125.898 215.242 126.125C215.242 126.125 216.165 119.705 216.227 119.438C216.288 119.171 216.781 119.212 217.786 119.212H219.242L219.221 119.93ZM214.976 119.643C214.782 121.88 214.432 124.1 213.929 126.289C207.508 128.129 200.962 129.5 194.342 130.391C194.342 130.391 194.342 127.971 194.547 125.12C194.752 122.269 194.854 119.889 194.854 119.807C194.854 119.725 197.521 119.807 200.823 119.807C204.125 119.807 208.002 119.807 209.561 119.807C213.888 119.541 214.976 119.541 214.976 119.725V119.643ZM101.919 125.243V130.658L97.3041 130.965C94.7812 131.15 91.5405 131.355 90.1252 131.416L87.5614 131.539L87.7049 126.227C87.7049 123.335 87.8895 120.874 87.9305 120.792C88.6467 120.655 89.3769 120.607 90.1047 120.648C93.2506 120.616 96.3928 120.425 99.5193 120.074C100.073 120.074 100.811 119.91 101.201 119.889H101.919V125.243ZM243.547 123.868C243.547 125.776 243.547 129.058 243.424 131.211L243.301 135.108L241.25 135.744C239.343 136.278 232.533 138 232.205 138C232.205 136.815 232.274 135.63 232.41 134.452C232.594 132.524 232.882 129.119 233.046 126.883C233.21 124.648 233.353 122.781 233.394 122.781C233.435 122.781 243.076 120.443 243.486 120.382C243.609 121.539 243.65 122.705 243.609 123.868H243.547ZM40.9809 120.853C41.7144 120.906 42.4419 121.023 43.1551 121.202C43.1551 121.202 42.991 122.063 42.7654 122.966C42.2116 125.202 41.2271 130.329 41.2271 130.842C41.2271 131.355 41.2271 131.293 39.176 131.293H37.1249V130.268C37.1249 129.714 37.289 127.868 37.3505 126.166C37.412 124.463 37.5146 122.515 37.5556 121.838C37.8017 120.423 37.5351 120.505 40.9809 120.853ZM86.2281 126.104C86.2281 128.996 86.0641 131.416 86.0025 131.478C85.941 131.539 70.7629 131.478 70.5783 131.314C70.3747 129.654 70.2856 127.982 70.3116 126.309L70.1886 121.469L75.9727 121.346C79.1519 121.243 82.5567 121.12 83.5002 121.058C84.4437 120.997 85.5513 120.874 85.7974 120.874H86.3717L86.2281 126.145V126.104ZM47.606 121.592C48.611 121.715 50.3339 121.838 51.4415 121.92L53.4926 122.043L53.3696 124.791C53.3696 126.268 53.2055 127.642 53.1644 127.806C53.1234 127.971 53.1644 128.709 53.1644 129.488V130.863L51.1133 130.986L45.801 131.17L42.4372 131.252V130.842C42.4372 130.616 42.6833 129.632 42.8269 128.668C43.1346 126.986 43.914 123.458 44.3037 121.94C44.4678 121.263 44.5293 121.222 45.1241 121.305C45.719 121.387 46.5394 121.592 47.606 121.592ZM69.1015 122.904C69.1015 123.643 69.1015 125.837 69.2451 127.765V131.334L64.9993 131.211L57.4102 130.986L54.2515 130.863L54.3746 129.181C54.3746 128.278 54.5182 126.268 54.6002 124.75L54.7438 122.002H57.8615C59.5639 122.002 61.8406 122.002 62.9072 121.817C63.9737 121.633 65.7992 121.694 67.0094 121.674L69.1015 121.592V122.904ZM231.795 124.012C231.795 124.873 231.138 132.996 230.831 136.031C230.831 136.975 230.625 137.898 230.625 138.082C230.625 138.267 230.4 138.472 230.113 138.534C228.062 139.026 218.565 141.139 218.503 141.077C218.442 141.016 219.242 127.765 219.529 126.514C219.529 126.145 220.124 125.961 224.759 124.853L230.728 123.397L231.651 123.171C231.651 123.171 231.815 123.643 231.815 124.012H231.795ZM218.544 127.068C218.339 128.463 218.052 131.95 217.868 134.965C217.457 141.61 217.498 141.344 217.027 141.446L214.729 141.918L212.924 142.267L213.048 141.077C213.417 137.57 214.976 127.478 215.099 127.273C216.087 126.879 217.12 126.61 218.175 126.473C218.565 126.453 218.606 126.576 218.565 127.068H218.544ZM213.786 127.848C213.786 127.971 213.663 128.935 213.478 129.899C213.171 131.95 212.166 139.252 211.94 141.262C211.817 142.267 211.735 142.492 211.407 142.574C208.33 143.251 197.172 145.2 194.69 145.487L193.48 145.631V144.872C193.48 143.251 194.136 131.806 194.259 131.642C195.299 131.304 196.372 131.077 197.459 130.965C201.151 130.37 206.033 129.386 210.114 128.36C213.499 127.519 213.786 127.478 213.786 127.806V127.848ZM121.281 131.211C120.919 135.069 120.344 138.903 119.558 142.697C118.118 142.932 116.65 142.932 115.21 142.697L111.005 142.472L111.128 137.898C111.293 132.196 111.375 131.191 111.805 131.047C112.236 130.904 121.179 131.068 121.302 131.211H121.281ZM109.816 135.108C109.816 137.324 109.652 139.867 109.59 140.728L109.447 142.349L107.211 142.246L103.97 142.103H102.986L102.842 140.339C102.842 139.375 102.739 137.016 102.739 135.129V131.519L105.221 131.375C106.106 131.364 106.989 131.302 107.867 131.191C108.242 131.153 108.62 131.153 108.995 131.191H109.959L109.816 135.108ZM132.686 132.073L138.839 132.709C138.839 132.709 138.839 134.76 139.003 137.18C139.167 139.6 139.167 142.103 139.249 142.677L139.372 143.723L134.244 143.62C131.455 143.62 127.189 143.374 124.83 143.272L120.502 143.005V142.513C120.605 141.918 121.856 133.714 122.081 132.257L122.43 131.232L124.481 131.355C125.527 131.416 129.24 131.847 132.686 132.073ZM101.919 136.811V141.959L100.237 141.836C95.9503 141.528 91.2123 141.098 89.5304 140.892L87.7049 140.667V136.565V132.462L91.0277 132.319C92.8737 132.319 95.7247 132.052 97.3861 131.929L101.201 131.642H101.919V136.811ZM192.865 131.704C192.865 131.704 192.68 134.739 192.475 138.349C192.27 141.959 192.167 145.159 192.167 145.425V145.918L189.398 146.205C187.86 146.348 185.87 146.492 184.947 146.554L183.245 146.697V139.539C183.245 133.611 183.245 132.442 183.512 132.442C184.148 132.442 191.285 131.847 191.47 131.765C191.951 131.687 192.44 131.666 192.926 131.704H192.865ZM64.6916 132.175L69.163 132.298L69.3066 134.349C69.3066 135.457 69.4091 136.934 69.4091 137.611V138.841H68.3631C65.2984 138.995 62.2445 139.317 59.2152 139.805C56.9795 140.134 54.8669 140.38 54.5387 140.38H53.9439V137.713C53.9439 133.939 54.108 132.093 54.4772 132.032C54.8463 131.97 58.5793 132.032 64.7326 132.175H64.6916ZM52.8978 134.329C52.8978 135.58 52.7747 137.488 52.7132 138.575V140.626L51.421 140.749C48.1994 140.832 44.9774 140.598 41.8014 140.052C41.6373 140.052 41.6578 139.005 41.8014 136.257C41.986 134.206 42.1911 132.545 42.2526 132.462C44.6063 132.171 46.9794 132.068 49.3494 132.155H52.8363L52.8978 134.329ZM40.9604 132.873C40.8168 133.611 40.4476 138.452 40.4476 139.252C40.4476 140.052 40.4476 139.887 38.2119 139.58L36.7146 139.354L36.8582 136.811C36.8582 135.437 37.0223 133.816 37.0838 133.262L37.2069 132.257H41.063L40.9604 132.873ZM86.0846 136.483V140.441L85.1616 140.298C81.0594 139.723 76.3008 139.19 73.6139 138.985L70.3937 138.759V132.442H78.2289H86.0846V136.483ZM181.666 139.518V146.574H179.615C178.445 146.574 176.907 146.574 176.189 146.43H174.856L174.959 142.328C174.979 139.17 175.274 136.02 175.841 132.914C176.766 132.795 177.697 132.726 178.63 132.709L181.543 132.565C181.543 132.565 181.686 135.703 181.686 139.6L181.666 139.518ZM146.797 133.037H148.848L148.705 135.088C148.705 136.237 148.54 138.616 148.458 140.4C148.376 142.185 148.274 143.702 148.233 143.805C147.026 143.929 145.809 143.929 144.602 143.805H141.095V142.041C141.095 141.077 140.89 138.595 140.828 136.524L140.705 132.77L142.756 132.893C143.843 132.975 145.71 133.037 146.838 133.037H146.797ZM174.302 133.365C174.302 133.673 174.138 135.108 173.913 136.606C173.634 138.645 173.503 140.701 173.523 142.759V146.205H172.99C172.702 146.205 170.2 145.959 167.431 145.651C162.467 145.056 156.376 144.461 155.699 144.461C155.371 144.461 155.35 144.133 155.35 138.759V133.037H161.688L171.164 132.914H174.302V133.365ZM154.119 137.036C154.119 139.252 153.996 141.795 153.996 142.677V144.318L151.863 144.154C151.114 144.122 150.368 144.047 149.628 143.928C149.505 143.928 149.935 134.534 150.099 133.673V133.057H154.202L154.119 137.036ZM243.24 136.831C242.994 141.754 242.727 145.733 242.419 149.364C242.194 151.681 242.03 153.65 242.03 153.753C242.03 153.855 241.619 153.917 241.107 153.917C238.581 154.137 236.082 154.59 233.641 155.271C231.754 155.722 230.154 156.05 230.154 156.03C230.154 156.009 230.502 152.194 231.015 147.641C231.528 143.087 231.938 139.211 231.938 139.108C233.088 138.615 234.283 138.237 235.507 137.98C238.235 137.283 243.219 135.929 243.301 135.765C243.383 135.601 243.322 136.236 243.281 136.831H243.24ZM230.42 139.744C230.42 140.052 229.99 143.949 229.477 148.4L228.574 156.604L227.118 156.953C226.339 157.137 224 157.773 221.949 158.368C219.898 158.963 218.196 159.414 218.114 159.414C218.032 159.414 218.114 147.477 218.36 144.092L218.483 142.041L219.939 141.733L225.764 140.38L230.277 139.334C230.277 139.334 230.42 139.559 230.42 139.846V139.744ZM69.4707 149.322C69.4707 164.09 69.4707 170.839 69.4707 170.88C69.4707 170.921 66.2505 170.88 62.3534 170.613L55.2771 170.285L55.1335 168.234C55.1335 167.064 54.8258 163.167 54.6207 159.619C54.4156 156.071 54.1695 150.512 54.108 147.312L54.0054 141.467H54.6618C55.0309 141.467 57.5128 141.18 60.1587 140.81C62.7304 140.324 65.3366 140.043 67.9529 139.969H69.5322L69.4707 149.322ZM76.2598 140.052C79.2749 140.339 84.8744 141.036 85.6949 141.2C86.0846 141.303 86.1256 141.426 86.1256 142.718C86.1256 144.872 86.4743 149.876 87.0896 156.686C87.6434 162.839 88.1972 171.803 88.0331 171.926C87.35 171.965 86.6651 171.965 85.982 171.926L78.6391 171.474C75.706 171.31 72.7114 171.126 71.9525 171.044H70.5988V139.805H71.973C72.6704 139.805 74.6189 139.928 76.2598 140.052ZM44.3652 141.221C45.7805 141.385 48.2213 141.549 49.7596 141.549H52.6927V146.451C52.6927 149.117 52.8773 151.968 52.9183 152.768C52.9593 153.568 53.0824 155.948 53.2055 158.081C53.3285 160.214 53.4311 162.347 53.4926 162.819C53.5542 163.29 53.6362 165.136 53.6977 166.921L53.8413 170.162H47.3393H40.8784L40.7348 169.485C40.4887 168.029 40.4066 156.727 40.7348 152.03C41.0425 145.179 41.4117 141.036 41.7193 141.036L44.3652 141.221ZM92.8942 142.103C94.9453 142.308 97.8579 142.554 99.3347 142.615L101.981 142.759V143.846C102.083 146.82 102.288 149.999 102.514 152.05C102.637 152.994 102.78 154.102 102.822 154.758C102.863 155.414 102.965 155.866 103.006 156.009C103.106 156.648 103.167 157.291 103.191 157.937C103.223 158.522 103.292 159.104 103.396 159.681C103.482 160.127 103.537 160.58 103.56 161.034C103.724 162.778 103.888 164.501 103.97 165.136C103.97 165.444 104.093 166.675 104.155 167.844C104.216 169.013 104.319 170.613 104.38 171.372L104.503 172.787L102.042 172.869C96.8528 172.664 91.3969 172.377 90.556 172.274H89.6535L89.4279 167.7C89.2843 165.177 89.0176 161.26 88.8125 159.045C88.1152 151.579 87.8485 148.42 87.746 145.036L87.5614 141.487H88.3203C88.7715 141.672 90.8226 141.898 92.8942 142.103ZM217.396 144.667C217.17 149.733 217.129 150.82 217.088 154.676C217.088 156.871 216.986 158.901 216.924 159.229C216.863 159.557 216.719 159.824 214.012 160.645C212.473 161.075 211.202 161.445 211.181 161.403C211.16 161.362 211.776 152.85 212.083 149.671C212.309 147.251 212.801 143.251 212.924 143.149C213.048 143.046 213.971 142.882 215.181 142.615L217.457 142.103C217.492 142.958 217.472 143.814 217.396 144.667ZM109.385 143.231C109.487 145.966 109.439 148.705 109.241 151.435C109.241 152.133 109.098 157.24 109.016 162.778L108.893 172.869H105.467V171.331C105.467 169.013 104.955 163.352 104.216 157.281C103.519 151.599 103.232 148.912 103.027 145.138L102.904 142.841L106.062 142.964C107.806 143.067 109.324 143.19 109.385 143.231ZM116.543 143.6C118.389 143.6 119.251 143.805 119.333 143.969C119.415 144.133 118.984 146.369 118.451 149.035C116.916 155.511 116.003 162.118 115.723 168.767C115.723 170.818 115.518 172.705 115.518 172.869C114.661 173.039 113.785 173.094 112.913 173.033H110.288L110.39 166.203C110.39 162.47 110.595 156.296 110.698 152.522C110.8 148.748 110.882 145.138 110.882 144.502V143.374H112.4C113.2 143.415 115.087 143.538 116.543 143.6ZM211.017 149.487C210.648 152.85 210.217 156.973 210.053 158.717C209.889 160.46 209.745 161.916 209.704 161.937C209.663 161.957 193.521 167.27 192.906 167.27C192.721 167.27 192.701 166.121 192.906 162.388C193.07 156.399 193.419 146.697 193.501 146.615C193.583 146.533 194.957 146.348 196.68 146.082C200.782 145.487 204.7 144.769 208.597 144.031C210.299 143.702 211.714 143.415 211.755 143.436C211.796 143.456 211.407 146.205 211.017 149.487ZM128.194 144.256L136.07 144.564H139.311V145.384C139.311 145.815 139.577 148.83 139.721 152.071C139.987 157.219 140.521 165.895 140.91 171.31L141.013 173.033L136.029 172.91C133.301 172.91 127.824 172.787 123.722 172.787H116.461V169.526C116.605 163.456 117.361 157.415 118.718 151.497C119.353 148.358 119.948 145.343 120.092 144.749L120.297 143.702L121.876 143.826L128.194 144.256ZM145.525 144.749L148.151 144.892V155.64C147.95 161.212 148.148 166.792 148.746 172.336L148.869 172.89H142.941L142.838 171.659C142.695 170.162 142.039 159.188 141.649 152.091C141.505 149.097 141.321 146.205 141.28 145.651V144.646H142.203L145.525 144.749ZM153.566 145.118H153.996V157.158C153.996 163.783 154.181 169.957 154.243 170.88V172.582H149.997V171.556C149.427 166.23 149.228 160.871 149.402 155.517C149.402 150.122 149.402 145.507 149.566 145.261C149.73 145.015 149.73 144.831 151.453 144.892C152.161 144.932 152.866 145.007 153.566 145.118ZM161.77 145.795L169.421 146.595L173.523 147.046V159.024C173.523 165.649 173.523 171.064 173.4 171.064C173.277 171.064 171.574 171.29 169.298 171.495C163.555 172.069 156.068 172.582 155.883 172.418C155.736 171.695 155.647 170.961 155.617 170.223C155.371 167.598 155.248 148.502 155.248 146.615L155.35 145.2L156.704 145.323L161.77 145.795ZM192.167 147.189C192.167 147.436 191.983 150.902 191.86 154.901C191.737 158.901 191.634 163.414 191.593 164.911C191.552 166.408 191.47 167.721 191.429 167.762C191.388 167.803 185.645 169.177 184.763 169.321C183.881 169.464 183.942 169.321 183.86 168.993C183.778 168.664 183.327 151.148 183.348 148.482V147.394L186.978 147.169C189.029 147.046 190.65 146.882 190.691 146.841C190.962 146.796 191.239 146.796 191.511 146.841C192.188 146.841 192.249 146.841 192.167 147.271V147.189ZM181.768 147.435C181.768 147.435 181.891 150.84 181.994 154.901C182.096 158.963 182.22 164.008 182.281 166.059L182.425 169.751L181.379 169.957L178.117 170.469C176.907 170.613 175.677 170.797 175.369 170.859H174.836V162.655C174.836 158.204 174.836 152.871 174.979 150.799L175.082 147.005H178.404L181.768 147.435ZM241.968 155.025C241.968 155.496 241.968 156.645 241.291 161.732C241.262 162.099 241.2 162.463 241.107 162.819C240.75 162.937 240.375 162.993 239.999 162.983C238.953 162.983 233.723 163.496 231.138 163.783C230.627 163.836 230.111 163.836 229.6 163.783C229.676 161.523 229.882 159.27 230.215 157.035C233.838 155.956 237.523 155.1 241.25 154.471C241.906 154.471 241.968 154.471 241.968 154.963V155.025ZM228.472 158.306C228.472 158.84 228.226 160.357 228.123 161.691L227.877 164.111L225.826 164.357C224.739 164.48 222.585 164.849 221.006 165.157C219.426 165.465 218.073 165.731 217.95 165.731C217.768 164.862 217.719 163.97 217.806 163.085V160.439L218.77 160.152C221.56 159.332 228.082 157.424 228.246 157.424C228.41 157.424 228.513 157.814 228.472 158.306ZM216.883 163.434C216.883 166.388 217.211 165.998 213.622 166.88C212.289 167.208 211.078 167.536 210.914 167.557C210.75 167.577 210.648 167.352 210.914 165.198C211.058 163.414 211.181 162.737 211.407 162.593C213.132 161.937 214.892 161.375 216.678 160.911C216.904 160.891 216.924 161.075 216.883 163.434ZM209.663 164.316C209.335 168.418 209.376 168.029 208.822 168.172C208.268 168.316 207.469 168.541 206.464 168.849C202.046 170.199 197.553 171.288 193.008 172.11C192.783 172.11 192.721 171.762 192.721 170.285V168.459L193.849 168.152C196.987 167.27 201.787 165.752 205.499 164.46L209.602 163.044C209.645 163.467 209.666 163.891 209.663 164.316ZM227.467 169.546C226.974 176.438 226.769 181.012 226.769 186.324V191.329L221.231 192.006C218.155 192.375 215.632 192.662 215.591 192.642C215.55 192.621 215.714 191.185 215.919 189.442C216.514 184.642 217.437 173.607 217.724 167.885V166.921L219.775 166.47C221.826 166.039 227.549 165.095 227.692 165.198C227.836 165.301 227.692 167.147 227.426 169.485L227.467 169.546ZM216.637 169.341C216.637 170.51 216.432 172.479 216.329 173.751C216.227 175.023 216.001 177.853 215.858 180.089C215.591 183.514 215.283 186.509 214.668 191.698C214.668 192.457 214.442 192.826 214.217 192.888C212.768 193.154 211.3 193.305 209.827 193.339C209.827 193.339 209.827 189.996 209.827 185.996C209.95 180.479 210.032 178.797 210.238 178.776H210.873C211.078 178.776 211.202 178.653 211.14 178.551C211.078 178.448 211.14 178.366 211.14 178.366C211.164 178.363 211.189 178.365 211.212 178.372C211.236 178.379 211.258 178.39 211.277 178.405C211.296 178.421 211.312 178.439 211.323 178.461C211.335 178.482 211.343 178.506 211.345 178.53C211.345 178.53 211.53 178.674 211.735 178.53C211.94 178.387 212.125 178.346 212.125 178.202C212.125 178.058 212.125 178.202 212.289 178.202C212.453 178.202 212.473 178.407 212.576 178.202C212.678 177.997 212.576 177.935 212.289 177.915C212.001 177.894 211.94 177.915 211.94 178.017C211.608 178.085 211.267 178.085 210.935 178.017H209.909V175.966C209.909 173.628 210.299 168.89 210.402 168.787C210.504 168.685 216.145 167.208 216.411 167.188C216.613 167.886 216.69 168.616 216.637 169.341ZM191.326 170.613V172.356L188.947 172.869C187.675 173.095 186.076 173.423 185.378 173.607L183.983 173.915C183.818 173.385 183.762 172.827 183.819 172.274C183.819 170.715 183.819 170.633 184.271 170.531C186.958 169.957 190.916 169.013 190.957 168.951C190.998 168.89 191.367 169.116 191.326 170.674V170.613ZM209.253 171.372C209.253 172.582 209.068 174.654 209.027 175.987L208.884 178.387L204.043 179.022C201.397 179.392 197.89 179.966 196.126 180.233C194.362 180.499 193.008 180.725 192.988 180.684C192.967 180.643 192.988 178.981 192.865 176.971V173.341L196.023 172.869C197.767 172.52 201.438 171.577 204.228 170.818C207.017 170.059 209.232 169.382 209.315 169.382C209.413 170.062 209.413 170.753 209.315 171.433L209.253 171.372ZM182.343 172.602V174.346L180.497 174.9L176.641 175.987L174.589 176.52V174.223C174.589 172.52 174.589 171.926 174.836 171.905L178.548 171.351L182.199 170.818C182.199 170.818 182.281 171.638 182.343 172.602ZM53.9234 171.208C53.9234 171.208 54.0259 173.607 54.0874 176.459C54.149 179.31 54.2515 181.955 54.3131 182.304C54.3746 182.653 54.3131 182.919 53.5747 183.022C52.8363 183.125 49.0417 183.412 45.3703 183.637L43.3192 183.76V183.227C43.3192 182.735 41.5552 173.669 41.2681 172.602C41.2681 172.295 41.2681 172.254 41.4117 172.438C41.5209 172.559 41.6637 172.645 41.8219 172.685C42.068 172.685 42.0065 172.008 41.6988 171.618C41.5551 171.459 41.4499 171.27 41.3912 171.064C41.3912 170.921 53.6977 171.064 53.9028 171.208H53.9234ZM63.3789 171.638L69.3271 171.926C69.4502 171.926 69.3271 180.581 69.1835 181.32C69.1835 181.689 68.8759 181.73 65.7582 181.955C63.9327 182.099 60.8971 182.366 59.0716 182.55C57.9419 182.687 56.8048 182.756 55.6668 182.755C55.6668 182.755 55.5232 180.294 55.4617 177.443C55.4002 174.592 55.2771 172.008 55.2155 171.762C55.154 171.515 55.2155 171.331 56.3437 171.331C57.0205 171.331 60.1792 171.474 63.3789 171.638ZM76.9162 172.315C80.6199 172.409 84.3166 172.69 87.9921 173.156C88.1665 176.265 88.1665 179.38 87.9921 182.489C86.4444 182.503 84.897 182.435 83.3566 182.284C80.8748 182.12 76.8957 181.894 74.4959 181.853L70.168 181.73L70.3116 179.679C70.3116 178.51 70.3116 176.294 70.3116 174.777V171.905H71.6448C72.3422 171.905 74.6805 172.131 76.7931 172.233L76.9162 172.315ZM173.318 174.366C173.37 175.178 173.308 175.993 173.133 176.787C172.867 176.971 163.637 178.571 160.355 179.022L156.745 179.535H156.13L156.027 177.976C156.027 177.115 155.842 175.741 155.781 174.9V173.382L157.976 173.238C161.421 173.033 167.308 172.541 169.831 172.274L172.805 171.987H173.42V174.284L173.318 174.366ZM95.0479 173.423C96.7503 173.546 98.9655 173.628 99.991 173.628C101.017 173.628 102.411 173.628 103.109 173.628L104.401 173.772V176.212C104.401 177.546 104.565 179.843 104.647 181.299L104.75 183.966H103.519C102.35 183.966 100.196 183.76 94.6581 183.104C93.3249 182.96 91.602 182.755 90.8431 182.714H89.6124V173.054L90.8431 173.177L95.0479 173.423ZM154.694 176.561C154.789 177.591 154.789 178.628 154.694 179.658C153.378 179.942 152.039 180.107 150.694 180.151C150.37 178.052 150.178 175.935 150.12 173.813C150.834 173.62 151.578 173.557 152.315 173.628H154.366L154.694 176.561ZM191.326 174.038C191.303 174.311 191.303 174.586 191.326 174.859C191.326 175.064 191.326 176.541 191.449 178.14V181.074L187.737 181.668C186.497 181.979 185.22 182.117 183.942 182.079C183.942 181.955 183.942 180.356 183.819 178.51V175.166L184.599 174.961C185.645 174.674 190.506 173.669 190.937 173.669C191.367 173.669 191.367 173.813 191.388 174.079L191.326 174.038ZM108.811 178.14C108.811 180.52 108.688 182.837 108.688 183.268V184.109H106.021V182.591C106.021 181.791 105.857 179.474 105.796 177.464L105.652 173.854H109.057L108.811 178.14ZM115.456 178.858V183.863H114.164C113.426 183.863 112.277 184.007 111.559 184.007H110.246V173.751H115.456V178.858ZM136.788 173.997H140.89V174.695C140.89 175.084 141.054 176.746 141.136 178.407V181.422L138.941 181.771L136.275 182.161C131.462 182.867 126.614 183.319 121.753 183.514L117.651 183.74L116.154 183.842V173.854H124.235C129.014 173.854 134.552 173.915 136.788 173.997ZM148.828 174.284C148.971 174.961 149.546 180.294 149.484 180.438C149.422 180.581 143.823 181.279 143.433 181.279C143.044 181.279 143.146 180.786 143.064 179.002C143.064 177.771 142.879 176.11 142.818 175.33V173.936H145.833C148.787 173.936 148.848 173.936 148.93 174.366L148.828 174.284ZM182.548 179.022L182.671 182.448L182.035 182.55C180.866 182.776 175.041 183.617 175 183.576C174.959 183.535 175 182.222 174.836 180.643L174.692 177.73L176.107 177.382C176.907 177.197 178.63 176.705 179.963 176.315C181.297 175.925 182.404 175.577 182.404 175.597C182.404 175.618 182.466 177.217 182.548 179.022ZM173.523 183.76C173.523 183.76 171.964 184.109 170.159 184.417C166.508 185.032 165.934 185.176 162.693 185.955L159.986 186.611C159.596 186.611 158.488 187.001 157.012 187.432C156.601 187.555 156.581 187.432 156.458 185.237C156.458 183.986 156.314 182.489 156.294 181.914V180.848L160.745 180.212C163.206 179.863 167.041 179.248 169.257 178.858L173.359 178.12L173.461 181.074C173.461 182.612 173.564 183.883 173.461 183.945L173.523 183.76ZM208.822 186.201C208.822 190.16 208.72 193.421 208.679 193.462C208.638 193.503 194.013 195.226 193.952 195.165C193.89 195.103 193.726 192.683 193.521 189.647C193.316 186.611 193.07 183.494 193.008 182.817C192.947 182.14 193.008 181.504 193.008 181.504C193.008 181.504 196.044 181.032 199.551 180.417C203.059 179.802 206.217 179.31 206.648 179.269C206.927 179.248 207.203 179.193 207.469 179.104H208.145H208.781L208.822 186.201ZM155.083 181.935C155.083 182.489 155.227 183.986 155.289 185.422L155.412 187.863L154.858 187.965L152.561 188.457L151.761 188.622L151.392 185.196C151.207 183.33 151.022 181.709 151.022 181.607C152.228 181.223 153.49 181.042 154.755 181.074C154.878 181.074 155.022 181.422 155.083 182.017V181.935ZM150.161 185.176C150.35 186.39 150.446 187.618 150.448 188.847C150.352 188.934 150.229 188.985 150.099 188.991L149.279 189.155C147.477 189.524 145.655 189.791 143.823 189.955C143.649 188.703 143.54 187.443 143.495 186.181L143.29 182.509L144.541 182.325C145.874 182.12 149.648 181.586 149.71 181.607C149.771 181.627 149.935 183.289 150.161 185.176ZM192.167 189.278C192.331 191.493 192.537 193.831 192.578 194.426L192.701 195.513L191.367 195.636C190.629 195.636 188.804 195.985 187.265 196.231C186.337 196.411 185.398 196.534 184.455 196.6C184.332 196.477 184.107 190.016 184.086 186.037V183.125L184.722 183.002L188.434 182.366L191.532 181.832L191.675 183.494C191.88 184.437 192.167 187.001 192.167 189.278ZM69.1015 186.365C69.1015 188.416 68.9169 190.468 68.8348 191.206V192.396H66.4966L59.9331 192.621H55.8309V188.191V183.74H56.6923C58.1076 183.555 64.1378 183.043 66.6607 182.858L69.163 182.673C69.2514 183.903 69.2308 185.139 69.1015 186.365ZM81.4081 183.248L86.7819 183.637L88.0126 183.76V187.268C88.0126 189.196 88.0126 191.083 87.869 191.37V191.985H84.977C83.4181 191.985 79.3775 191.985 75.9932 192.19C72.6089 192.396 69.8399 192.375 69.7373 192.314C69.6348 192.252 69.9629 185.75 70.168 183.678L70.2911 182.632L73.7985 182.776C75.7265 182.899 79.1929 183.125 81.4081 183.248ZM141.874 188.498L141.997 190.262L141.259 190.385C140.849 190.385 138.736 190.632 136.562 190.775L131.434 191.165C130.778 191.165 128.706 191.37 126.778 191.473L120.051 191.924C118.938 192.013 117.82 192.013 116.707 191.924C116.707 191.924 116.584 190.283 116.502 188.396L116.441 185.176H117.097C117.466 185.176 120.194 185.053 123.25 184.889C128.14 184.669 133.014 184.197 137.854 183.473L141.628 182.96L141.772 184.889C141.751 185.853 141.854 187.514 141.936 188.498H141.874ZM182.732 187.227C182.732 189.278 182.917 192.314 182.978 193.913C182.978 196.375 182.978 196.867 182.814 196.949C180.879 197.363 178.92 197.658 176.948 197.831C176.723 197.605 175.123 186.447 175.123 185.135V184.601L178.856 184.007C180.907 183.699 182.589 183.432 182.589 183.453C182.589 183.473 182.671 185.176 182.732 187.227ZM96.7298 184.601C98.7809 184.868 101.509 185.135 102.719 185.217C104.77 185.217 104.893 185.36 104.975 185.729C105.057 186.099 105.365 191.883 105.303 192.129C105.242 192.375 104.832 192.457 98.7398 192.334L91.3354 192.129H89.9406H89.4073V189.852C89.4073 188.683 89.4073 186.837 89.5509 185.75L89.6535 183.863H91.2943C92.1968 184.068 94.6582 184.335 96.7298 184.601ZM174.015 187.637C174.2 189.155 174.589 192.047 174.918 194.077C175.246 196.108 175.512 197.851 175.512 197.954C175.512 198.057 175.102 198.241 174.589 198.303L168.436 199.123C164.85 199.528 161.29 200.13 157.77 200.928L157.155 201.092V199.431C157.155 198.508 156.991 196.252 156.929 194.467C156.868 192.683 156.786 190.591 156.724 189.893L156.601 188.622L160.519 187.617C164.97 186.447 166.98 185.996 170.385 185.36C174.159 184.663 173.728 184.417 174.118 187.637H174.015ZM115.579 188.601C115.579 190.529 115.682 192.129 115.579 192.149L112.892 192.334L110.226 192.457V185.278H112.605C113.897 185.278 115.067 185.278 115.169 185.278C115.482 186.357 115.621 187.479 115.579 188.601ZM108.749 188.847V192.437H106.493L106.288 188.991C106.198 187.816 106.198 186.637 106.288 185.463C106.718 185.358 107.158 185.303 107.601 185.299H108.77L108.749 188.847ZM155.412 189.073C155.412 189.073 155.412 189.75 155.412 190.406C155.658 193.483 155.883 201.236 155.76 201.338C155.347 201.54 154.914 201.698 154.468 201.81C153.196 202.159 153.012 202.077 152.991 201.031C152.991 200.702 152.745 198.057 152.417 195.144C152.089 192.231 151.884 189.811 151.904 189.791C151.925 189.77 154.817 188.991 155.083 188.97C155.141 188.941 155.207 188.936 155.268 188.955C155.33 188.974 155.381 189.016 155.412 189.073ZM151.022 193.175C151.022 194.016 151.207 194.754 151.227 194.816C151.317 195.359 151.378 195.907 151.412 196.457C151.412 197.298 151.679 199 151.802 200.231C151.904 200.993 151.966 201.759 151.986 202.528C151.986 202.528 144.684 204.887 144.643 204.805C144.602 204.723 144.459 202.302 144.274 199.267C144.09 196.231 143.905 193.113 143.843 192.478V191.185L145.054 191.062C145.73 191.062 147.31 190.734 148.52 190.488L150.756 190.057L150.879 190.837C150.838 191.206 150.961 192.252 151.022 193.113V193.175ZM142.121 192.149C142.121 192.498 142.264 193.79 142.326 195C142.387 196.211 142.551 199 142.715 201.154C142.879 203.307 142.941 205.133 142.9 205.256C140.879 205.72 138.819 205.988 136.747 206.056C131.845 206.323 117.507 206.302 117.405 206.056C117.302 205.81 116.748 193.483 116.81 193.401L125.814 192.765C130.778 192.437 136.07 192.047 137.629 191.924C142.121 191.329 141.997 191.329 142.121 192.088V192.149ZM103.15 193.565L105.488 193.708L105.632 197.011C105.632 198.836 105.796 201.728 105.857 203.451L106.021 206.548H105.447L102.37 206.753C100.996 206.753 97.5297 206.999 94.6992 207.061L89.5099 207.184V193.134L95.1709 193.278C98.2681 193.278 101.899 193.462 103.17 193.503L103.15 193.565ZM115.805 193.688C115.805 193.934 115.805 194.734 115.908 195.493C116.092 198.282 116.379 205.892 116.277 205.994C115.284 206.125 114.283 206.187 113.282 206.179H110.39V193.38H112.769C114.062 193.38 115.272 193.38 115.477 193.38C115.682 193.38 115.723 193.38 115.723 193.626L115.805 193.688ZM108.831 200.026V206.425H107.149L106.944 203.636C106.944 202.179 106.76 199.287 106.698 197.236L106.575 193.524H108.749L108.831 200.026ZM193.131 198.815C193.318 202.231 193.318 205.655 193.131 209.071C193.131 209.194 185.194 209.994 185.112 209.932C185.03 209.871 184.64 200.641 184.64 199.287V198.241L188.065 197.585C189.993 197.277 191.675 197.011 191.778 196.969C191.982 196.941 192.189 196.941 192.393 196.969C192.865 196.887 192.906 197.011 193.049 198.754L193.131 198.815ZM183.163 198.528C183.163 198.528 183.655 209.994 183.635 210.035C183.614 210.076 178.774 210.609 178.712 210.589C178.651 210.568 178.363 208.21 177.994 205.42C177.625 202.631 177.297 200.149 177.235 199.923C177.174 199.697 177.235 199.492 179.902 199.021C182.712 198.446 183.06 198.385 183.081 198.467L183.163 198.528ZM176.538 204.477C176.866 206.979 177.194 209.399 177.256 209.85C177.256 210.814 177.728 210.691 172.887 211.163C169.79 211.471 165.77 212.004 160.58 212.804L157.852 213.194C157.688 213.194 157.565 212.127 157.504 209.85C157.504 208.025 157.319 205.748 157.258 204.641L157.155 202.774L157.873 202.569C163.778 201.302 169.749 200.364 175.759 199.759C175.759 199.759 176.148 201.933 176.497 204.415L176.538 204.477ZM156.027 204.333C156.027 205.01 156.171 207.307 156.253 209.44C156.396 213.809 156.519 213.399 154.94 213.686C154.263 213.686 154.202 213.686 154.202 213.337C154.202 212.989 154.037 211.061 153.812 208.845C153.299 203.307 153.238 203.8 154.448 203.451C155.658 203.102 155.904 202.959 156.048 204.271L156.027 204.333ZM152.458 207.04C152.602 208.558 152.725 209.932 152.745 210.097C152.766 210.261 152.868 211.184 152.95 212.148L153.196 213.891L149.381 214.486C148.085 214.729 146.778 214.907 145.464 215.019C145.148 212.158 144.983 209.283 144.972 206.405C144.972 206.405 146.284 205.933 147.659 205.523C149.033 205.112 150.612 204.641 151.125 204.456C151.471 204.311 151.838 204.221 152.212 204.189C152.374 205.111 152.463 206.043 152.479 206.979L152.458 207.04ZM143.023 207.04C143.106 207.438 143.147 207.844 143.146 208.251C143.146 208.784 143.269 210.302 143.372 211.84C143.659 215.942 143.823 215.409 141.874 215.778C135.524 216.96 129.092 217.646 122.635 217.829L117.897 217.952L117.671 213.419C117.528 210.937 117.446 208.599 117.446 208.23V207.533H128.235C132.38 207.701 136.532 207.599 140.664 207.225C142.818 206.712 142.941 206.712 143.044 206.979L143.023 207.04ZM116.625 212.578C116.762 214.311 116.81 216.05 116.769 217.788C115.667 217.927 114.556 217.975 113.446 217.932H110.308V207.676H110.841C111.128 207.676 112.503 207.676 113.877 207.676H116.4L116.625 212.578ZM108.729 212.783V217.993L108.216 217.85L107.662 217.727L107.436 213.624C107.129 207.471 107.108 207.881 107.621 207.779C108.852 207.43 108.749 207.02 108.749 212.722L108.729 212.783ZM106.021 208.148C106.021 208.62 106.329 214.096 106.514 216.352V217.788H98.3091C93.7352 217.788 89.9406 217.788 89.8996 217.645C89.8586 217.501 89.3868 208.681 89.4689 208.579C89.5509 208.476 91.9097 208.374 96.6477 208.23C99.3141 208.23 102.309 208.045 103.314 207.963L105.611 207.738C106.021 207.738 106.021 207.738 106.021 208.148Z" fill="#403C3C"/>
<path fill-rule="evenodd" clip-rule="evenodd" d="M214.196 177.935C214.196 177.935 214.299 178.079 214.401 177.935C214.446 177.912 214.485 177.88 214.517 177.841C214.549 177.803 214.572 177.758 214.586 177.71C214.586 177.71 214.586 177.71 214.401 177.71C214.373 177.709 214.344 177.715 214.318 177.727C214.292 177.738 214.268 177.755 214.249 177.777C214.229 177.798 214.215 177.823 214.206 177.85C214.197 177.878 214.193 177.907 214.196 177.935Z" fill="#403C3C"/>
<path fill-rule="evenodd" clip-rule="evenodd" d="M213.048 178.12C213.048 178.12 213.048 178.263 213.232 178.12C213.417 177.976 213.438 177.976 213.438 177.915C213.438 177.853 213.438 177.915 213.232 177.915C213.182 177.92 213.135 177.944 213.1 177.982C213.066 178.02 213.048 178.069 213.048 178.12Z" fill="#403C3C"/>
<path fill-rule="evenodd" clip-rule="evenodd" d="M39.4834 69.2886C39.4834 69.4527 39.586 69.5347 39.6885 69.4732C39.7235 69.4296 39.7425 69.3753 39.7425 69.3194C39.7425 69.2635 39.7235 69.2092 39.6885 69.1656C39.6065 68.8784 39.4834 68.9399 39.4834 69.2886Z" fill="#403C3C"/>
<path fill-rule="evenodd" clip-rule="evenodd" d="M242.83 76.3444C242.83 76.3444 242.973 76.529 243.137 76.529C243.301 76.529 243.424 76.529 243.424 76.529C243.424 76.529 243.281 76.529 243.137 76.3444C242.994 76.1598 242.83 76.2419 242.83 76.3444Z" fill="#403C3C"/>
<path fill-rule="evenodd" clip-rule="evenodd" d="M34.6631 156.173C34.6631 156.378 34.6631 156.44 34.7862 156.173C34.819 156.121 34.8363 156.061 34.8363 155.999C34.8363 155.937 34.819 155.877 34.7862 155.825C34.7862 155.825 34.6426 155.948 34.6631 156.173Z" fill="#403C3C"/>
</svg>
