<svg width="141" height="65" viewBox="0 0 141 65" fill="none" xmlns="http://www.w3.org/2000/svg">
<g clip-path="url(#clip0_449_10)">
<path d="M133.53 19C134.53 20 135.32 20.83 136.1 21.7C141.26 27.4 141.94 34.55 137.96 41.17C136.022 44.2472 133.509 46.9225 130.56 49.05C123.926 53.9339 116.402 57.4737 108.41 59.47C83.0199 66.15 57.4099 66.47 31.7299 61.37C24.8963 60.1226 18.2977 57.8219 12.1699 54.55C8.74337 52.7862 5.73292 50.311 3.33994 47.29C-0.580061 42.08 -1.00006 36.55 1.85994 30.76C3.88435 26.984 6.71868 23.7024 10.1599 21.15C16.1352 16.4956 22.7585 12.7393 29.8199 10C55.5599 -0.479959 82.0999 -2.45996 109.25 2.83004C116.625 4.13636 123.674 6.87091 130 10.88C131.348 11.7419 132.628 12.7047 133.83 13.76C136.2 15.88 136.15 16.57 133.53 19ZM109.44 8.09004C109.44 7.97004 109.44 7.86004 109.44 7.74004C107.88 7.40004 106.34 7.00004 104.78 6.74004C83.7704 3.06556 62.1916 4.37399 41.7799 10.56C32.7368 13.1384 24.1625 17.1419 16.3799 22.42C13.3884 24.4589 10.658 26.8568 8.24994 29.56C2.92994 35.83 3.51994 42.2 9.99994 47.32C12.8873 49.5016 16.039 51.3093 19.3799 52.7C26.4599 55.79 33.9999 57.34 41.6299 58.39C59.7206 60.9318 78.0963 60.6484 96.0999 57.55C105.83 55.87 115.19 53.01 123.76 47.95C127.325 45.9908 130.464 43.3389 132.99 40.15C137.1 34.65 136.71 28.83 131.82 24.04C130.285 22.5501 128.611 21.2107 126.82 20.04C118.632 14.6853 108.975 12.0245 99.1999 12.43C97.0699 12.48 94.9399 12.67 92.8099 12.75C91.4899 12.8 90.4199 12.27 90.3399 10.84C90.3193 10.5651 90.3557 10.2888 90.4469 10.0285C90.5381 9.7683 90.6821 9.52973 90.8699 9.32783C91.0578 9.12592 91.2853 8.96503 91.5383 8.85528C91.7912 8.74552 92.0642 8.68926 92.3399 8.69004C94.4245 8.25739 96.536 7.96672 98.6599 7.82004C102.25 7.76004 105.84 8.00004 109.44 8.09004Z" fill="black"/>
</g>
<path d="M36.14 46.792C35.708 46.792 35.372 46.768 35.132 46.72C34.916 46.696 34.676 46.624 34.412 46.504C34.124 46.36 33.908 46.156 33.764 45.892C33.764 45.604 33.896 45.46 34.16 45.46C34.424 45.46 34.76 45.544 35.168 45.712C35.552 45.904 35.876 46 36.14 46C36.668 46 37.148 45.784 37.58 45.352C38.036 44.92 38.384 44.356 38.624 43.66C39.104 42.292 39.344 41.08 39.344 40.024C39.344 38.848 39.176 37.66 38.84 36.46C38.504 35.26 38.06 34.132 37.508 33.076C37.388 32.812 37.184 32.416 36.896 31.888C36.296 30.688 35.84 29.752 35.528 29.08C35.216 28.408 34.94 27.664 34.7 26.848C34.364 25.768 34.196 24.604 34.196 23.356C34.196 22.564 34.316 21.808 34.556 21.088C34.82 20.344 35.228 19.708 35.78 19.18C36.38 18.628 37.052 18.352 37.796 18.352C38.084 18.352 38.432 18.472 38.84 18.712C39.248 18.928 39.452 19.144 39.452 19.36C39.452 19.552 39.38 19.648 39.236 19.648C39.092 19.648 38.9 19.588 38.66 19.468C38.444 19.348 38.24 19.288 38.048 19.288C37.496 19.288 37.004 19.492 36.572 19.9C36.164 20.308 35.864 20.812 35.672 21.412C35.504 21.916 35.42 22.468 35.42 23.068C35.42 24.004 35.54 24.976 35.78 25.984C36.02 26.968 36.344 27.892 36.752 28.756L38.012 31.384L38.372 32.14C38.876 33.172 39.26 34.024 39.524 34.696C39.812 35.368 40.052 36.124 40.244 36.964C40.508 38.092 40.64 39.172 40.64 40.204C40.64 41.596 40.28 43.012 39.56 44.452C39.2 45.148 38.72 45.712 38.12 46.144C37.52 46.576 36.86 46.792 36.14 46.792ZM47.4344 46C46.8824 46 46.5584 45.88 46.4624 45.64C46.3424 45.64 46.2464 45.652 46.1744 45.676H45.8864C45.3584 45.676 45.0224 45.556 44.8784 45.316C44.8784 45.148 44.9744 45.004 45.1664 44.884L45.3464 44.704H46.3904L46.5344 44.56L46.6064 44.236L46.6424 43.804C46.6424 42.34 46.6064 41.032 46.5344 39.88L46.4624 38.548L46.3904 35.92C46.3904 34.984 46.4264 33.58 46.4984 31.708L46.5704 27.532C46.5704 25.708 46.5104 24.316 46.3904 23.356C46.1744 23.284 45.8144 23.248 45.3104 23.248L44.9144 23.284C44.7704 23.308 44.6144 23.32 44.4464 23.32C43.9904 23.32 43.7624 23.116 43.7624 22.708C43.7624 22.612 43.8704 22.516 44.0864 22.42C44.3024 22.324 44.4824 22.276 44.6264 22.276C45.5384 22.276 46.4504 22.324 47.3624 22.42C47.9144 22.444 48.4664 22.552 49.0184 22.744C49.4504 22.888 49.6664 23.092 49.6664 23.356C49.6664 23.404 49.6304 23.5 49.5584 23.644L48.7304 23.716C48.5624 23.572 48.2144 23.5 47.6864 23.5L47.5064 23.608C47.5784 23.824 47.6144 24.46 47.6144 25.516C47.6144 27.1 47.6024 28.528 47.5784 29.8L47.5064 34.084C47.5064 35.164 47.5544 36.472 47.6504 38.008C47.7224 39.76 47.7584 41.08 47.7584 41.968V42.436C47.7344 42.604 47.7224 42.82 47.7224 43.084C47.7224 43.636 47.7584 43.972 47.8304 44.092L47.7944 44.164C47.7944 44.404 48.0584 44.524 48.5864 44.524C48.8024 44.524 48.9824 44.512 49.1264 44.488H49.6664C50.3624 44.488 50.7104 44.656 50.7104 44.992C50.7104 45.208 50.6384 45.388 50.4944 45.532C50.3504 45.652 50.1584 45.712 49.9184 45.712C49.7024 45.712 49.5104 45.688 49.3424 45.64C49.1504 45.616 48.9464 45.604 48.7304 45.604C48.5864 45.604 48.3704 45.664 48.0824 45.784C47.7944 45.928 47.5784 46 47.4344 46ZM58.2814 46.252C57.1774 46.252 56.3614 46.12 55.8334 45.856C55.3054 45.592 54.9094 45.088 54.6454 44.344C54.4054 43.576 54.1894 42.364 53.9974 40.708C53.7094 38.284 53.5654 36.4 53.5654 35.056C53.5654 34.24 53.6134 33.304 53.7094 32.248L53.9254 29.98C54.0454 28.18 54.1774 26.824 54.3214 25.912C54.4894 24.976 54.8374 24.16 55.3654 23.464C55.9174 22.744 56.7574 22.324 57.8854 22.204C58.0054 22.18 58.1974 22.168 58.4614 22.168C59.2054 22.168 59.5774 22.336 59.5774 22.672C59.5774 22.816 59.4934 22.948 59.3254 23.068C59.1814 23.164 59.0254 23.212 58.8574 23.212L58.4974 23.176L58.1734 23.14C57.7654 23.14 57.3934 23.272 57.0574 23.536C56.7454 23.8 56.4814 24.184 56.2654 24.688C55.7614 25.888 55.4374 27.064 55.2934 28.216C55.1014 29.728 54.9814 31.048 54.9334 32.176L54.8974 34.948C54.8974 36.124 54.9334 37 55.0054 37.576C55.1734 37.84 55.2814 38.248 55.3294 38.8C55.4014 39.328 55.4614 40.06 55.5094 40.996C55.5574 41.836 55.6654 42.556 55.8334 43.156C56.0014 43.732 56.3014 44.212 56.7334 44.596C57.2134 45.004 57.8734 45.208 58.7134 45.208C59.4094 45.208 59.9014 44.824 60.1894 44.056C60.5254 43.24 60.7174 42.4 60.7654 41.536C60.8374 40.456 60.8734 39.544 60.8734 38.8V36.82C60.6334 36.58 60.2134 36.46 59.6134 36.46H59.3254C59.2054 36.484 59.0734 36.496 58.9294 36.496C58.3534 36.496 58.0654 36.352 58.0654 36.064C58.0654 35.656 58.3534 35.452 58.9294 35.452C59.3374 35.452 59.6734 35.464 59.9374 35.488L60.7294 35.524C61.1854 35.596 61.5454 35.68 61.8094 35.776C62.0974 35.872 62.2414 36.004 62.2414 36.172C62.2414 36.484 62.1694 36.928 62.0254 37.504C61.9054 38.176 61.8454 38.632 61.8454 38.872C61.8454 39.88 61.8694 40.792 61.9174 41.608C61.9414 42.448 61.9534 43.372 61.9534 44.38C60.7294 45.628 59.5054 46.252 58.2814 46.252ZM75.4126 46.144C75.2206 46.144 75.0766 46.072 74.9806 45.928C74.9086 45.784 74.8366 45.568 74.7646 45.28C74.7406 45.088 74.6926 44.92 74.6206 44.776L74.6566 44.668C74.4646 43.54 74.0566 42.16 73.4326 40.528L72.7846 38.656C72.7366 38.608 72.5086 37.996 72.1006 36.82L71.8126 35.956C69.6526 29.284 68.2966 25.672 67.7446 25.12C67.5526 25.768 67.4566 26.608 67.4566 27.64C67.4566 28.192 67.4686 28.672 67.4926 29.08L67.5286 30.484L67.4926 31.348C67.4686 31.612 67.4566 31.9 67.4566 32.212C67.4566 32.74 67.4806 33.196 67.5286 33.58C67.5766 34.348 67.6006 34.732 67.6006 34.732H67.4926C67.4926 38.74 67.5766 40.948 67.7446 41.356V44.596C67.8406 44.788 67.8886 45.04 67.8886 45.352C67.8886 45.544 67.8166 45.712 67.6726 45.856C67.5526 46 67.3966 46.072 67.2046 46.072C66.7006 46.072 66.4486 45.424 66.4486 44.128L66.5206 42.976C66.5686 42.616 66.5926 42.22 66.5926 41.788C66.5926 40.636 66.5566 38.908 66.4846 36.604C66.4126 34.3 66.3766 32.572 66.3766 31.42C66.3766 30.724 66.4126 29.656 66.4846 28.216C66.5566 26.8 66.5926 25.744 66.5926 25.048V24.58C66.5926 23.404 66.8086 22.636 67.2406 22.276L67.3486 22.384L67.7086 22.312C67.8046 22.336 67.9126 22.408 68.0326 22.528C68.1286 22.624 68.1766 22.732 68.1766 22.852L68.2486 23.068C68.2486 23.116 68.2486 23.164 68.2486 23.212C68.2726 23.236 68.2846 23.248 68.2846 23.248C68.6686 24.952 69.5326 27.34 70.8766 30.412C72.2446 33.652 73.0966 35.8 73.4326 36.856C73.6726 37.696 73.8646 38.44 74.0086 39.088C74.4646 41.128 75.0046 42.7 75.6286 43.804L75.7006 43.696C76.2526 38.368 76.5286 31.828 76.5286 24.076L76.4926 23.644C76.4686 23.524 76.4566 23.368 76.4566 23.176C76.4566 22.672 76.6246 22.42 76.9606 22.42C77.1766 22.42 77.3566 22.528 77.5006 22.744C77.6686 22.96 77.7526 23.2 77.7526 23.464V25.876L77.5726 26.164C77.5726 28.444 77.4406 32.188 77.1766 37.396C76.9126 42.604 76.6606 45.436 76.4206 45.892L75.8086 46.036V46.072L75.7726 46.036L75.4126 46.144ZM93.8036 46.684C93.2516 46.684 92.7356 46.564 92.2556 46.324C91.7756 46.084 91.3796 45.772 91.0676 45.388C90.7556 45.028 90.4796 44.584 90.2396 44.056C89.9996 43.528 89.8076 43 89.6636 42.472C89.4236 41.656 89.2436 40.636 89.1236 39.412L89.0516 38.296C89.0516 38.056 89.0396 37.9 89.0156 37.828C89.0156 37.756 89.0156 37.708 89.0156 37.684C88.8956 36.508 88.7396 33.916 88.5476 29.908C88.3796 25.9 88.2956 22.78 88.2956 20.548V20.296V20.008C88.2956 19.384 88.4756 19.072 88.8356 19.072C89.3396 19.072 89.5916 19.36 89.5916 19.936V20.188L89.5556 20.476C89.5556 23.26 89.6396 26.56 89.8076 30.376C89.9756 34.168 90.1436 36.904 90.3116 38.584C90.4316 39.64 90.6356 40.72 90.9236 41.824C91.1156 42.568 91.3196 43.192 91.5356 43.696C91.7756 44.2 92.0756 44.62 92.4356 44.956C92.8676 45.34 93.2876 45.532 93.6956 45.532C94.1036 45.532 94.4636 45.436 94.7756 45.244C95.1116 45.052 95.3636 44.8 95.5316 44.488C95.6996 44.224 95.8316 43.888 95.9276 43.48C96.0476 43.048 96.1196 42.64 96.1436 42.256C96.1676 42.016 96.1796 41.62 96.1796 41.068V36.964C96.1796 35.14 96.1316 32.896 96.0356 30.232L95.8916 25.624L95.8196 22.564C95.7476 21.22 95.7116 20.2 95.7116 19.504C95.7116 19.24 95.7836 19.036 95.9276 18.892C96.0716 18.748 96.2396 18.676 96.4316 18.676C96.6236 18.676 96.7796 18.748 96.8996 18.892C97.0436 19.036 97.1156 19.24 97.1156 19.504V22.24C97.1156 23.44 97.1276 24.52 97.1516 25.48V28.72C97.1516 31.048 97.1756 33.088 97.2236 34.84C97.2476 36.616 97.2596 38.608 97.2596 40.816C97.2596 41.416 97.2356 41.944 97.1876 42.4C97.1396 42.856 97.0436 43.336 96.8996 43.84C96.7556 44.416 96.5516 44.908 96.2876 45.316C96.0476 45.7 95.7236 46.024 95.3156 46.288C94.8596 46.552 94.3556 46.684 93.8036 46.684ZM102.842 46.432C102.578 44.92 102.446 43.192 102.446 41.248C102.446 40.48 102.482 39.364 102.554 37.9L102.626 34.552C102.458 34.216 102.374 33.94 102.374 33.724C102.614 33.34 102.734 32.236 102.734 30.412C102.734 26.044 102.674 23.716 102.554 23.428C102.77 22.828 102.938 22.528 103.058 22.528H104.642C104.906 22.528 105.278 22.66 105.758 22.924C106.262 23.164 106.682 23.428 107.018 23.716C107.618 24.268 107.918 25.684 107.918 27.964C107.918 29.188 107.882 30.124 107.81 30.772C107.762 31.228 107.678 31.588 107.558 31.852C107.462 32.116 107.306 32.416 107.09 32.752C106.73 33.304 106.118 33.784 105.254 34.192C104.894 34.384 104.39 34.576 103.742 34.768V39.052C103.742 39.652 103.802 40.828 103.922 42.58L103.994 43.732L104.066 46.072C104.066 46.504 103.838 46.72 103.382 46.72L102.842 46.432ZM103.994 33.544C104.69 33.544 105.278 33.22 105.758 32.572C105.926 32.332 106.082 32.008 106.226 31.6C106.37 31.192 106.466 30.796 106.514 30.412C106.658 29.716 106.73 28.912 106.73 28V27.028C106.73 26.692 106.718 26.368 106.694 26.056C106.67 25.744 106.622 25.444 106.55 25.156C106.454 24.844 106.322 24.592 106.154 24.4C106.01 24.184 105.806 24.004 105.542 23.86C105.254 23.716 104.906 23.644 104.498 23.644C104.21 23.644 104.006 23.716 103.886 23.86C103.766 24.004 103.706 24.256 103.706 24.616C103.706 25.192 103.742 26.056 103.814 27.208L103.886 29.8C103.886 30.424 103.862 30.988 103.814 31.492L103.742 33.184L103.994 33.544Z" fill="black"/>
<defs>
<clipPath id="clip0_449_10">
<rect width="140.53" height="64.86" fill="white"/>
</clipPath>
</defs>
</svg>
