<svg width="290" height="291" viewBox="0 0 290 291" fill="none" xmlns="http://www.w3.org/2000/svg">
<path fill-rule="evenodd" clip-rule="evenodd" d="M132.832 0.63598C121.476 1.98505 110.215 4.04693 99.1166 6.80948C92.295 8.91073 85.7891 11.9298 79.7768 15.7842C77.9866 16.9536 74.6774 18.9661 72.3989 20.2715C69.233 22.0123 66.2284 24.0328 63.4207 26.309L57.7516 30.8236C55.2833 32.7817 52.1097 35.5285 50.6993 36.9155C46.5492 41.0221 36.0791 52.1997 28.9996 59.9506C28.0774 60.9568 26.0702 63.1053 24.5241 64.7099C21.5332 67.7093 18.952 71.0929 16.8478 74.7724L12.2095 82.4145C9.94387 85.6352 8.2042 89.1972 7.05588 92.9665C4.45751 100.753 2.49803 108.739 1.19698 116.845C0.379909 122.243 0.0621049 127.705 0.247622 133.162C-0.0778725 162.942 -0.0778725 163.676 0.220497 166.396C0.457928 168.535 0.856899 170.654 1.41398 172.733C1.59678 173.271 1.72402 173.827 1.79372 174.391C2.14332 176.26 2.69823 178.084 3.44832 179.831C5.66282 185.448 8.16152 190.949 10.9347 196.312C12.535 199.629 14.5965 204.307 15.2475 206.211L15.6272 207.108C15.79 207.489 16.4681 209.284 17.1191 211.025C18.9773 216.267 21.2541 221.351 23.9273 226.227C24.2257 226.635 25.9074 229.763 28.6199 235.011C30.8145 239.675 33.7047 243.976 37.1912 247.766C42.1688 253.484 48.0636 258.328 54.6323 262.099C56.7209 263.323 59.786 265.199 61.4135 266.26C65.5364 268.943 69.8314 271.35 74.2705 273.467C78.5417 275.587 82.9557 277.404 87.4801 278.906C90.1926 279.885 93.9629 281.272 95.9701 282.061C99.9213 283.603 103.972 284.875 108.095 285.868C111.512 286.575 125.427 288.805 131.232 289.567C136.194 290.408 141.235 290.682 146.259 290.383C154.102 289.346 161.836 287.607 169.369 285.188C172.217 284.264 176.232 283.176 178.293 282.713C180.355 282.251 183.718 281.517 185.535 281.054C187.353 280.592 190.825 279.967 193.022 279.667C199.139 279.076 205.171 277.799 211.005 275.86C215.57 273.897 220.001 271.635 224.269 269.088C227.78 266.737 231.092 264.099 234.17 261.201C238.344 257.664 242.069 253.627 245.264 249.181C247.379 246.461 250.987 242.11 253.401 239.526C257.429 235.124 261.059 230.374 264.251 225.33C265.607 223.181 267.668 220.244 268.808 218.775C272.699 214.081 275.672 208.693 277.569 202.893C278.274 200.853 279.332 198.215 279.902 197.046C282.528 191.336 284.775 185.457 286.629 179.45C289.481 167.814 290.533 155.807 289.748 143.85C288.365 123.236 286.005 108.305 282.261 96.4476C280.985 92.6723 279.943 88.8212 279.142 84.9165C277.001 76.2169 273.065 68.0641 267.587 60.984C266.611 59.6514 264.658 56.687 263.22 54.3482C261.429 51.277 259.416 48.3411 257.198 45.5638C255.435 43.4697 255.435 41.1037 253.347 39.6623C251.693 38.4968 250.117 37.2249 248.627 35.8549C247.406 34.631 245.725 33.1353 244.884 32.3738C241.819 29.8989 240.056 28.1312 235.634 24.4869C231.213 20.8426 230.481 21.4138 230.074 21.4138C229.667 21.4138 229.748 21.4138 229.748 21.6313C229.748 21.8489 236.828 26.8802 238.347 28.8927C239.56 30.1158 240.866 31.2432 242.253 32.265C243.256 33.1624 245.182 34.9846 246.538 36.3172C247.812 37.5673 249.152 38.7475 250.553 39.8527C253.943 42.2187 253.265 43.9865 255.001 45.9174C257.536 48.9872 259.813 52.2619 261.81 55.708C263.11 57.9882 264.588 60.1616 266.231 62.2078C268.317 64.8251 270.083 67.6828 271.493 70.7202C272.171 72.3247 274.965 76.3498 275.263 77.3288C275.263 77.7368 275.453 78.0087 275.887 79.3685C276.321 80.7283 276.972 83.4479 277.976 87.9625C278.356 89.6214 279.088 92.3138 279.576 93.9456L280.553 97.1547C280.613 97.3672 280.686 97.576 280.77 97.7802C281.041 98.3514 282.18 102.404 282.343 103.219C282.343 103.655 282.75 105.069 283.129 106.401C286.249 118.068 289.151 149.262 288.202 160.522C287.588 167.935 286.28 175.274 284.296 182.442C283.048 186.113 280.092 193.32 278.247 197.372C277.488 199.004 276.511 201.397 276.077 202.811C274.262 208.735 271.242 214.217 267.207 218.911C265.851 220.734 264.088 223.181 263.329 224.351C259.749 230.09 255.605 235.457 250.96 240.369C249.387 242.11 246.159 245.999 243.853 249.017C239.721 254.476 234.939 259.408 229.613 263.703C225.797 266.97 221.564 269.714 217.027 271.862C209.296 275.751 205.689 276.757 193.808 278.335C191.096 278.688 187.868 279.232 186.43 279.613C184.993 279.994 181.765 280.728 179.188 281.272C176.611 281.816 172.434 282.985 169.885 283.801C165.832 285.208 161.691 286.343 157.489 287.201C149.689 289.287 141.544 289.732 133.565 288.506L125.021 287.337C115.992 286.401 107.1 284.43 98.5198 281.462L88.8092 277.9C83.6015 276.134 78.5331 273.979 73.6466 271.454C70.1249 269.795 66.7257 267.887 63.4749 265.743C61.8475 264.682 58.8638 262.86 56.8837 261.691C53.1522 259.662 49.6431 257.246 46.4136 254.484C41.7157 250.65 37.5391 246.216 33.9906 241.294C33.1497 240.016 31.2781 236.806 29.9761 234.141C28.6741 231.476 26.5856 227.696 25.4463 225.71C22.6523 220.65 20.2843 215.365 18.3668 209.91C16.0495 203.629 13.3872 197.483 10.3922 191.498C5.10291 180.619 4.45193 178.634 2.52608 170.149L1.79372 167.021V148.61C1.79372 129.382 1.98359 122.338 2.41759 119.129C2.85158 115.92 4.88592 106.293 6.02515 101.914C7.26345 97.0998 8.84991 92.3824 10.7719 87.7993C11.3695 86.5618 12.0586 85.3709 12.8334 84.2366C13.4844 83.2576 15.5459 80.1844 17.1733 77.3832C19.3989 73.2497 22.1929 69.4504 25.4734 66.0969C26.7754 64.7099 28.1859 63.1325 28.7284 62.5886L30.6542 60.4129L33.8007 56.9862C39.7681 50.296 53.0591 36.5076 55.3104 34.7126C67.4894 24.8405 68.8727 23.8342 73.5653 21.2506C74.8672 20.5163 77.8509 18.6942 80.2108 17.2256C84.0566 14.6395 88.1446 12.4352 92.4168 10.6441C98.33 8.0877 104.758 6.42874 117.697 4.17147C131.151 1.8598 133.646 1.58784 141.811 1.80541C146.964 1.80541 149.948 2.13176 163.293 3.2468C165.083 3.40998 168.447 3.81792 170.78 4.14427L178.917 5.2865C184.25 6.048 189.524 7.17473 194.703 8.65881C203.396 10.5407 211.786 13.6253 219.631 17.8239C224.319 19.929 228.606 22.8371 232.298 26.4178C236.21 29.5218 239.396 33.4488 241.629 37.9218C243.824 41.9113 246.261 45.7622 248.925 49.4529C251.095 52.1205 253.089 54.9277 254.893 57.8565C255.707 59.2163 257.198 61.5551 258.202 63.0781C261.315 68.5291 264.105 74.1594 266.556 79.9396C270.759 90.1178 273.992 100.672 276.213 111.46C276.511 112.684 277.108 115.213 277.623 116.899C278.952 121.631 281.014 131.911 282.207 139.499C282.469 143.129 282.332 146.777 281.8 150.377C281.312 153.532 278.627 166.369 278.166 167.837C277.976 168.49 276.538 172.107 275.046 175.833C273.555 179.559 271.819 183.829 271.249 185.324C270.679 186.82 268.835 190.764 267.207 194.081C265.58 197.399 263.03 203.056 261.674 206.428C259.337 212.928 255.498 218.781 250.472 223.508C248.871 225.248 245.887 228.947 243.853 231.503C237.723 239.662 230.888 246.515 226.982 248.718C225.616 249.516 224.319 250.426 223.103 251.438C219.604 254.402 211.656 260.331 209.541 261.609C206.828 263.159 200.725 266.178 197.877 267.348C196.684 267.837 193.618 268.898 191.069 269.741C188.519 270.584 184.911 271.944 182.931 272.787C179.215 274.5 174.496 276.377 170.373 277.818C167.692 278.792 164.834 279.182 161.991 278.96C158.872 278.96 155.129 279.259 153.854 279.423C146.805 280.106 139.723 280.378 132.643 280.238C120.854 279.224 109.14 277.471 97.5705 274.99C90.5044 273.358 83.67 270.846 77.2271 267.511C72.58 264.858 68.121 261.886 63.8818 258.618C61.1693 256.415 57.3448 253.342 55.2291 251.764C50.2564 248.307 45.8852 244.053 42.2907 239.172C38.9795 233.71 35.9643 228.072 33.2582 222.284L31.034 217.334C30.8441 216.899 29.298 214.016 27.5892 210.861C24.3505 205.233 21.4958 199.39 19.0449 193.374C17.4761 188.36 16.208 183.256 15.2475 178.09C14.8406 175.779 14.0811 172.243 13.5929 170.203C10.968 158.042 9.51471 145.656 9.25297 133.217C9.94847 123.945 11.1619 114.721 12.8877 105.586C15.2205 97.6793 18.3752 90.0406 22.2999 82.7952C24.6868 78.6886 26.9924 74.9356 29.5964 70.8562C31.2781 68.1366 33.4209 64.7643 34.3974 63.1053C36.5689 59.0003 39.4531 55.3165 42.9145 52.2269C45.627 49.6432 48.3394 46.4885 49.56 45.2375C51.9621 42.385 54.6937 39.8288 57.6974 37.6226C59.3249 36.3716 62.1729 34.1143 64.0445 32.5913C67.4894 29.8717 68.1675 29.355 77.3898 24.1878C83.3565 20.749 89.7373 18.0894 96.377 16.2737C105.708 13.1734 119.053 12.3575 146.395 13.2821C154.584 13.3121 162.754 14.0766 170.807 15.5666C176.232 16.6816 181.928 17.6335 188.356 18.4766C194.404 19.1094 200.352 20.4793 206.069 22.556C211.775 24.0874 217.191 26.5498 222.099 29.8445C225.479 31.8857 228.346 34.6769 230.481 38.0033C231.783 39.8255 233.519 42.2459 234.414 43.4426C236.584 46.1622 240.435 51.6014 241.629 53.3147C243.192 55.9111 244.414 58.6991 245.264 61.6095C247.003 67.4537 249.124 73.1771 251.611 78.743C253.217 82.2929 254.638 85.9239 255.869 89.6214C258.799 98.1338 262.895 108.659 265.227 113.527C268.568 121.079 271.289 128.892 273.365 136.888C274.792 145.872 274.198 155.061 271.629 163.785C270.408 168.653 268.671 173.376 266.448 177.873C265.282 180.375 263.464 184.372 262.406 186.766C260.382 191.523 257.912 196.076 255.028 200.364C253.672 202.376 252.126 204.769 251.584 205.803C250.58 207.462 245.372 215.594 243.229 218.884C242.578 219.863 241.385 221.441 240.517 222.447C235.362 227.986 229.735 233.064 223.7 237.622C221.638 239.118 213.338 244.177 211.141 245.264C210.409 245.618 208.727 246.325 207.398 246.869C204.574 247.832 201.871 249.118 199.342 250.704C196.779 252.134 194.144 253.432 191.449 254.593C188.98 255.68 185.725 257.095 184.233 257.802C181.043 259.375 177.646 260.483 174.143 261.092C172.082 261.5 169.071 262.18 167.443 262.588C165.304 263.075 163.14 263.447 160.961 263.703L154.532 264.302C146.395 265.444 133.076 264.764 117.616 262.398L111.214 261.364C109.207 260.984 98.6283 257.312 94.1799 255.49C92.1184 254.647 88.9177 253.396 87.0462 252.77C83.2978 251.41 79.7347 249.582 76.4405 247.331C69.3159 243.198 62.5716 238.438 56.2869 233.108C53.0504 230.595 50.2308 227.584 47.9326 224.187C46.712 222.447 44.325 219.183 42.5077 216.953C40.6903 214.723 38.6288 211.895 37.6795 210.698C35.6326 207.868 33.8183 204.876 32.2546 201.751C28.844 195.008 26.3533 187.837 24.8496 180.429C24.0901 177.22 23.1136 173.412 22.6796 171.917C19.9695 161.668 17.9576 151.246 16.658 140.723C15.8714 132.428 17.5802 118.068 20.9165 104.878C22.0286 100.418 22.8966 98.4601 29.2709 85.8412C34.4788 75.6699 35.3739 74.0653 36.92 72.2432C38.4661 70.421 47.5799 61.1472 50.2653 58.6451C58.1004 51.5182 66.7502 45.347 76.0336 40.2606C83.8533 35.9941 91.8834 32.1274 100.093 28.6751C106.255 27.1316 112.505 25.969 118.809 25.194C135.089 23.6919 151.492 24.2492 167.633 26.853C174.319 28.1362 180.93 29.7886 187.434 31.8026C191.688 33.2812 196.05 34.4268 200.481 35.2293C204.76 35.8967 208.972 36.9433 213.067 38.3569C215.758 39.6611 218.304 41.2473 220.662 43.089C227.253 47.8211 231.132 52.7708 236.53 63.4316C238.689 67.3065 240.218 71.5021 241.059 75.8602C241.575 77.9543 242.226 80.5379 242.524 81.5442C243.121 83.5567 245.236 88.9687 247.596 93.8096C251.186 101.796 253.73 110.216 255.164 118.857C255.707 121.577 256.737 125.52 257.47 127.886C258.932 131.578 259.731 135.501 259.829 139.472C259.829 141.947 259.314 149.969 258.636 157.476C258.194 162.283 257.469 167.059 256.466 171.781C255.3 176.431 254.35 178.09 248.329 185.923C246.701 188.098 244.368 191.362 243.094 192.939C239.886 197.217 236.464 201.329 232.841 205.259C228.999 209.779 224.72 213.906 220.065 217.579C218.492 218.775 216.457 220.298 215.535 221.25C212.668 223.631 209.641 225.812 206.476 227.777C204.116 229.327 200.481 231.884 198.338 233.434C194.744 236.154 190.78 238.343 186.566 239.934C181.089 242.519 175.168 244.024 169.125 244.367C167.064 244.367 162.371 245.101 158.275 245.727L148.185 247.304C144.66 247.814 141.165 248.513 137.715 249.398C133.3 250.061 128.811 250.061 124.397 249.398C120.491 248.745 112.95 247.712 108.122 247.195C101.422 246.461 100.202 246.135 89.7586 242.354C85.574 240.925 81.5327 239.104 77.6882 236.915C75.9251 235.909 72.4803 234.196 70.0391 232.89C65.1075 230.651 60.6997 227.399 57.1007 223.344C53.9452 220.167 51.2515 216.56 49.0989 212.629C47.6342 210.181 44.9489 206.156 43.1586 203.709C40.0745 199.727 37.3513 195.476 35.0213 191.008C32.7195 187.024 31.002 182.728 29.9219 178.253C28.4966 173.029 27.4809 167.7 26.8839 162.316C25.5276 155.268 24.9996 148.085 25.3107 140.913C25.0814 133.138 25.9211 125.369 27.8062 117.824C28.8533 113.701 29.6235 109.512 30.1117 105.286C30.4905 101.693 31.6377 98.2236 33.4752 95.115C36.5674 88.9415 38.1949 86.6571 45.9253 77.8184C48.5957 74.3934 51.7693 71.3948 55.3376 68.9252C58.8022 66.6835 62.0935 64.1835 65.1838 61.4463C67.2967 59.6092 69.5256 57.9104 71.8564 56.3607C76.9587 52.9383 82.2977 49.8846 87.8328 47.2228C91.4303 45.2983 95.1988 43.7141 99.0895 42.4907C101.612 41.702 105.545 40.3422 107.824 39.4719C111.287 37.9944 114.939 37.0059 118.673 36.5348C120.518 36.2356 123.773 35.6645 125.888 35.2565C132.331 34.1024 138.876 33.6194 145.418 33.8152C160.065 33.5976 164.541 34.0599 170.752 36.3172C172.678 37.0515 175.716 38.0033 177.479 38.4657C186.783 40.9677 197.145 44.9927 200.237 47.3316C200.888 47.8211 204.007 50.0512 207.235 52.1453C210.222 54.0897 213.068 56.2436 215.752 58.5907C217.271 59.9777 219.577 61.9359 220.933 62.9421C222.289 63.9484 224.73 65.8793 226.358 67.2935C229.992 70.3394 230.806 71.4273 234.983 78.8518C235.39 79.5317 236.502 81.5714 237.479 83.04C239.556 86.6475 241.369 90.4014 242.904 94.2719C245.969 101.125 246.457 103.845 246.755 114.424C246.728 119.732 247.255 125.028 248.329 130.225C248.887 133.715 249.186 137.242 249.224 140.777C249.387 144.721 249.685 149.344 249.929 151.003C250.634 156.442 250.282 158.101 246.864 165.498C243.499 172.953 239.382 180.043 234.577 186.657C232.759 189.186 229.803 193.592 228.04 196.393C225.252 201.197 221.779 205.567 217.732 209.366C212.551 214.56 211.765 215.077 202.244 218.857C195.012 221.623 187.948 224.811 181.087 228.403C176.964 230.47 172.624 232.482 171.512 232.89C169.001 233.651 166.363 233.901 163.754 233.624C157.59 233.434 151.435 234.242 145.527 236.018C141.701 237.139 137.816 238.047 133.89 238.737C132.832 238.737 128.194 239.064 123.583 239.145C119.394 239.41 115.19 239.282 111.024 238.765C107.43 238.539 103.925 237.547 100.744 235.855C98.4897 234.817 96.3528 233.541 94.3698 232.047C90.9861 229.562 87.4332 227.317 83.737 225.33C81.5399 224.051 78.0408 221.794 75.9793 220.298L69.6322 215.811C67.1115 214.333 64.9448 212.318 63.2851 209.91C60.762 206.466 58.0451 203.17 55.1477 200.037C52.3531 197.161 50.3852 193.581 49.4515 189.676C46.9677 182.32 45.3474 174.699 44.6234 166.967C44.3521 163.758 43.9724 160.358 43.8639 159.434C43.0178 147.667 42.9362 135.857 43.6198 124.079C43.7825 121.985 44.3521 117.633 44.9217 114.424C45.4914 111.215 46.278 106.265 46.6848 103.383C47.1763 99.7689 48.0026 96.2089 49.1532 92.749C50.3823 88.1064 52.4309 83.722 55.2019 79.8037C57.694 76.1048 60.8707 72.9196 64.5599 70.421C67.5635 68.0354 70.96 66.1946 74.596 64.9818C78.0117 63.7546 81.3002 62.1971 84.4151 60.3313C87.1275 58.9987 90.3825 57.6117 91.7658 56.959C93.1492 56.3063 95.509 55.436 97.0009 54.7561C98.4927 54.0762 101.666 52.8252 104.135 52.0365C107.17 50.9719 110.133 49.7091 113.004 48.2562C118.118 45.7117 123.518 43.7942 129.089 42.5451C130.635 42.1915 134.514 41.2125 137.688 40.4238L143.519 39.0096H147.914C149.862 38.833 151.827 38.9986 153.718 39.4991C156.333 40.4381 158.849 41.6313 161.232 43.0618C162.805 44.204 163.944 44.612 164.432 44.2312C164.921 43.8505 165.87 44.3672 169.396 45.727C175.676 47.9759 181.802 50.6378 187.732 53.6955C193.522 56.1161 198.722 59.7619 202.976 64.3835C205.255 66.6408 208.103 69.4148 209.324 70.5298C216.259 77.2265 222.611 84.5052 228.311 92.2866C231.792 97.99 234.752 103.998 237.153 110.236C239.866 117.008 240.056 118.068 240.056 123.263C240.044 127.464 239.516 131.647 238.482 135.719C237.913 138.112 236.258 143.878 235.417 146.244C235.065 147.304 233.709 151.683 232.407 155.762C231.105 159.842 229.694 164.492 229.097 165.934C224.545 176.061 219.326 185.873 213.474 195.305C210.273 199.326 206.634 202.975 202.624 206.184C197.626 210.681 191.879 214.262 185.644 216.763C176.06 221.063 166.123 224.521 155.942 227.097C148.045 229.548 139.793 230.652 131.53 230.361C126.409 230.515 121.291 229.975 116.314 228.756C109.222 226.866 102.455 223.914 96.2414 219.999C92.9593 217.905 84.6049 212.085 82.3536 210.345C76.4943 205.711 71.131 200.479 66.3501 194.734C64.0084 191.078 62.0366 187.197 60.4641 183.149C58.2062 175.477 56.6715 167.61 55.8801 159.651C55.6902 157.748 55.2291 154.212 54.8493 151.492C53.4231 143.188 52.9499 134.748 53.4388 126.336C53.6016 123.317 53.8186 117.987 53.9542 114.506C53.8091 111.764 54.065 109.015 54.7137 106.347C55.3647 104.307 63.5292 88.2072 65.238 85.5148C68.8645 81.1488 72.9272 77.1665 77.3627 73.6302C78.7732 72.5423 80.6448 71.1009 81.4856 70.3938C82.5189 69.5854 83.6488 68.9093 84.8491 68.3813L89.2432 66.4504C93.2553 64.5659 97.4205 63.0283 101.693 61.8543C103.945 61.2859 106.156 60.5681 108.312 59.7058C112.699 57.9068 117.291 56.6554 121.983 55.9799C124.424 55.6264 128.221 55.0009 130.418 54.6201C133.838 54.0188 137.312 53.7908 140.78 53.9402C152.525 53.9402 157.651 55.164 172.027 61.4191C173.356 61.9902 175.906 62.9693 177.723 63.5676C179.541 64.1659 182.28 65.2538 183.827 65.9609C185.373 66.668 187.732 67.647 189.007 68.1366C194.527 70.1803 199.529 73.4213 203.655 77.628C205.309 79.2869 207.099 81.1363 207.615 81.7618C210.735 85.4762 213.028 89.8154 214.342 94.4895C215.508 98.4058 216.484 101.452 217.678 104.77C219.085 109.195 220.048 113.75 220.553 118.368C220.553 119.347 220.743 120.407 220.797 120.761C221.202 124.645 221.365 128.551 221.286 132.455C221.549 137.089 220.818 141.726 219.143 146.053C218.437 148.501 217.624 151.492 217.298 152.934C216.512 156.225 214.125 164.275 213.148 166.913C211.226 171.699 208.345 176.04 204.685 179.668C202.861 181.628 201.158 183.699 199.586 185.868C196.863 189.854 193.411 193.287 189.414 195.985C187.524 197.261 185.712 198.651 183.989 200.146C181.162 202.759 177.928 204.89 174.414 206.456C163.863 211.895 163.564 212.167 155.78 214.288C151.176 215.722 146.387 216.464 141.566 216.491C134.104 216.918 126.617 216.434 119.27 215.05C116.558 214.56 112.652 213.962 110.726 213.69C102.214 212.355 94.0095 209.5 86.5037 205.259C79.8581 201.071 77.7424 198.759 70.7986 188.125C68.7678 185.234 67.0665 182.123 65.7263 178.852C64.2073 174.718 64.1802 174.364 63.936 161.174C63.9709 154.045 63.6268 146.918 62.9053 139.825C62.5399 135.542 62.5944 131.234 63.0681 126.962C63.6706 122.914 64.4855 118.902 65.5093 114.941C66.6214 111.134 69.9577 101.153 70.5816 99.8199C74.0101 92.9207 78.5979 86.6649 84.1438 81.3266L87.5344 78.4439C90.5321 75.8433 93.6843 73.4275 96.9737 71.2097C103.702 67.2804 110.855 64.1326 118.294 61.8271C123.253 59.7835 128.585 58.8105 133.944 58.9715C139.476 58.9559 144.997 59.4567 150.436 60.4673C156.835 61.018 163.055 62.8686 168.718 65.9065C170.346 66.8311 173.329 68.3541 175.309 69.3332C179.359 71.2329 183.121 73.6957 186.485 76.6489C187.895 77.8455 189.902 79.5861 190.96 80.4564C195.626 84.3726 198.04 88.3432 201.674 97.9434C202.298 99.548 203.329 102.023 204.007 103.383C204.685 104.742 205.445 106.456 205.716 107.136C205.987 107.816 206.665 109.23 207.235 110.318C208.544 113.213 209.632 116.204 210.49 119.265C210.68 120.027 211.249 123.426 211.711 126.771C213.585 136.559 212.644 146.68 208.998 155.953C207.678 160.245 205.741 164.322 203.248 168.055C202.217 169.523 200.535 171.998 199.45 173.494C196.491 178.262 192.54 182.335 187.868 185.433C186.241 186.603 183.772 188.561 182.443 189.757C178.643 193.617 173.857 196.354 168.61 197.671C164.701 198.836 160.853 200.197 157.082 201.751C154.839 202.893 152.355 203.481 149.839 203.464C147.941 203.464 144.903 203.899 143.113 204.171C138.645 205.02 134.085 205.276 129.55 204.933C125.869 204.734 122.225 204.086 118.7 203.002C115.066 202.077 111.54 201.125 110.807 200.853C110.075 200.581 107.552 199.629 105.192 198.786C99.8499 197.284 95.0312 194.317 91.2776 190.22C86.9074 186.525 83.5548 181.768 81.5399 176.404C80.2979 173.233 79.3093 169.968 78.5833 166.641C77.4441 162.153 75.5725 152.499 75.0842 148.718C74.8672 146.978 74.4061 143.878 74.0264 141.811C73.6466 139.744 73.1584 136.861 73.1584 135.392C73.0774 128.675 73.7507 121.97 75.1656 115.403C76.1421 111.732 78.2849 105.042 79.0987 103.111C83.044 96.1195 87.6394 89.5177 92.8237 83.3935C94.1756 82.4718 95.5894 81.6449 97.0551 80.9187C100.345 79.232 103.484 77.2667 106.44 75.0443C111.039 70.9373 116.848 68.4454 122.986 67.9462C128.88 66.9209 134.853 66.4294 140.834 66.4776C145.862 66.2683 150.889 66.9214 155.698 68.4085C157.841 69.034 161.123 69.8499 162.941 70.2035C167.09 71.0287 171.094 72.4677 174.821 74.4732C178.438 76.1742 181.813 78.3509 184.857 80.9459C188.385 84.8945 191.647 89.0738 194.622 93.4561C196.89 96.5896 198.571 100.11 199.586 103.845C201.783 112.14 203.41 119.265 203.79 122.257C204.338 127.679 204.429 133.137 204.061 138.574C203.166 147.603 202.624 150.241 201.078 153.015L198.365 157.992C196.093 162.244 193.461 166.293 190.499 170.095L186.349 175.071C184.492 177.539 182.312 179.743 179.866 181.626C177.095 183.877 174.051 185.768 170.807 187.255C168.006 188.207 165.13 188.917 162.208 189.377C158.489 190.398 154.86 191.726 151.358 193.347C146.289 195.747 140.655 196.689 135.084 196.067C130.834 195.956 126.623 195.232 122.579 193.918C117.669 192.463 112.873 190.645 108.23 188.479C104.45 187.198 100.931 185.245 97.8417 182.713C93.2034 178.824 89.7044 173.548 85.3644 164.111C83.6223 160.508 82.3112 156.71 81.4585 152.798C79.8066 146.902 79.1466 140.771 79.5055 134.658C79.5055 119.782 80.9431 110.345 84.1167 104.144C86.275 100.25 88.8489 96.6025 91.7929 93.2657C93.0407 91.9331 94.7495 89.975 95.5904 88.8599C96.5185 87.7112 97.5639 86.6629 98.7097 85.7324C104.28 82.0074 110.271 78.9582 116.558 76.6489C117.643 76.377 121.359 75.6699 124.858 75.0715C128.364 74.2959 131.961 74.0122 135.545 74.2285C137.986 74.2285 140.97 74.5548 142.136 74.7724C143.302 74.99 146.557 75.2619 149.243 75.4251C160.662 75.9418 165.517 77.4376 171.241 82.0609L175.499 85.5148C181.601 90.5286 187.067 96.2735 191.774 102.621C194.643 107.024 196.497 112.013 197.199 117.225C197.945 123.744 197.772 130.336 196.684 136.807C196.219 142.818 194.361 148.639 191.259 153.804C189.713 156.524 183.61 165.226 181.494 167.756C177.882 171.771 173.56 175.082 168.745 177.519C163.767 179.291 158.56 180.335 153.284 180.619C151.792 180.783 148.185 181.299 145.283 181.816C142.516 182.39 139.699 182.691 136.874 182.713C128.801 182.719 120.804 181.149 113.33 178.09C111.16 177.111 109.912 176.159 103.972 171.074C99.2891 167.551 95.6052 162.864 93.2848 157.476C90.5363 151.57 88.5493 145.337 87.3717 138.928C85.6649 130.984 86.0198 122.735 88.4024 114.968C90.436 109.287 93.0255 103.821 96.1329 98.6505C97.3072 97.5727 98.5583 96.5819 99.8761 95.6861C101.531 94.5439 104.189 92.6674 105.762 91.498C109.459 88.7132 113.673 86.6975 118.158 85.5692L125.807 83.2848C127.58 82.731 129.394 82.3218 131.232 82.0609C138.04 81.9378 144.85 82.1921 151.63 82.8224C155.999 84.0979 160.276 85.6698 164.432 87.5273C165.768 88.4157 166.997 89.4561 168.094 90.6277L173.98 96.6108C177.801 100.256 181.163 104.357 183.989 108.822C187.042 114.631 189.365 120.797 190.906 127.179C191.245 128.971 191.346 130.8 191.204 132.618C190.852 139.581 189.604 142.817 184.233 150.241C181.622 153.579 178.697 156.657 175.499 159.434L170.535 163.975C166.657 167.647 165.68 168.191 158.492 170.747C154.154 172.495 149.585 173.603 144.93 174.038C138.575 175.008 132.084 174.525 125.943 172.624C123.174 171.691 120.566 170.334 118.212 168.599C113.483 165.796 109.666 161.677 107.227 156.741C103.792 151.543 101.32 145.767 99.9303 139.689C99.3459 136.644 99.1545 133.537 99.3607 130.443C99.3607 119.564 100.066 116.546 105.301 105.014C108.312 98.297 109.722 96.2845 112.652 94.3807C117.494 91.421 123.039 89.8152 128.709 89.7302C132.967 89.4795 137.229 90.1376 141.214 91.6611C143.357 92.341 146.639 93.3201 148.592 93.8096C152.345 94.6786 155.823 96.4734 158.709 99.0313C167.498 105.45 168.772 107.19 176.15 121.223C181.575 131.531 182.172 134.005 180.951 138.765C179.866 142.735 177.425 146.135 170.807 152.798C167.75 156.384 163.685 158.962 159.143 160.195C157.489 160.739 154.885 161.718 153.42 162.344C147.67 164.762 141.443 165.822 135.219 165.444C128.764 165.254 127.082 164.764 123.312 162.072C120.413 159.818 117.766 157.256 115.418 154.43C113.591 151.822 112.147 148.965 111.133 145.944C109.858 141.532 109.38 136.927 109.722 132.346C109.722 122.583 110.129 119.32 111.919 113.962C112.716 111.346 113.876 108.856 115.364 106.565C117.371 104.09 124.18 100.772 130.581 99.1672C132.937 98.5157 135.384 98.2584 137.823 98.4058C142.426 98.3156 147.012 99.0051 151.386 100.445C153.895 102.211 156.189 104.264 158.221 106.565C163.646 111.759 163.646 112.004 165.029 114.506C167.87 119.926 170.021 125.682 171.431 131.639C171.078 136.239 169.95 140.744 168.094 144.965C165.888 149.278 162.573 152.921 158.492 155.517L154.83 157.748C149.821 161.063 143.721 162.292 137.823 161.174C133.685 159.564 129.823 157.316 126.377 154.511C120.952 149.072 117.019 137.16 117.751 128.349C118.163 122.469 120.676 116.936 124.831 112.765C127.025 110.587 129.896 109.224 132.968 108.903C138.347 107.593 143.985 107.819 149.243 109.556C154.063 111.101 158.159 114.348 160.771 118.694C162.798 121.165 164.36 123.985 165.382 127.016C165.78 130.713 165.523 134.451 164.622 138.058C164.243 140.16 163.489 142.178 162.398 144.014C159.554 146.923 156.528 149.648 153.339 152.172C151.04 153.789 148.405 154.862 145.633 155.309C142.861 155.757 140.024 155.568 137.335 154.756C135.437 154.152 133.684 153.158 132.19 151.837C130.696 150.517 129.492 148.899 128.655 147.087C127.214 144.182 126.042 141.151 125.156 138.03C124.475 134.194 124.716 130.25 125.861 126.526C126.227 124.714 126.997 123.009 128.116 121.539C129.234 120.069 130.671 118.873 132.317 118.041C135.22 116.53 138.341 115.484 141.566 114.941C143.308 115.152 145.031 115.498 146.72 115.974C151.277 117.117 151.331 117.171 155.183 120.924C156.956 122.395 158.367 124.257 159.306 126.363L160.825 129.382V133.761C160.941 135.936 160.647 138.113 159.957 140.179C159.404 142.003 158.363 143.64 156.946 144.911C155.187 147.295 152.928 149.263 150.328 150.677C148.172 151.967 145.67 152.556 143.167 152.363C140.183 152.227 139.261 151.764 136.277 148.664C133.993 146.506 132.199 143.882 131.015 140.968C130.321 139.579 130.012 138.029 130.12 136.48C130.148 133.156 131.327 129.945 133.456 127.397C134.999 125.421 137.014 123.869 139.315 122.882L142.028 121.577L144.74 121.74C147.77 121.6 150.748 122.566 153.122 124.46C154.627 126.03 155.669 127.988 156.132 130.116C156.833 131.839 157.13 133.7 157 135.556C157.214 138.206 156.419 140.839 154.776 142.926C153.512 144.723 151.826 146.18 149.867 147.168C148.917 147.631 148.592 147.658 146.069 147.522C141.865 147.25 141.512 147.114 139.342 144.802C138.369 143.807 137.514 142.703 136.793 141.511C136.169 140.233 136.142 140.043 136.277 137.187C136.494 132.346 137.227 130.878 140.78 128.185L142.217 127.098H144.93C148.266 127.098 149.188 127.424 150.572 128.974C151.333 129.642 151.919 130.488 152.278 131.436C152.638 132.385 152.76 133.407 152.633 134.413C152.633 138.221 151.901 139.581 149.324 141.049C148.404 141.633 147.315 141.891 146.232 141.783C144.63 141.882 143.035 141.503 141.648 140.696C141.484 140.038 141.42 139.36 141.458 138.683C141.438 136.869 141.999 135.096 143.058 133.625C143.601 132.972 143.818 132.89 145.527 132.89C146.186 132.851 146.847 132.851 147.507 132.89C148.646 134.386 149.378 138.058 148.619 138.33C147.859 138.602 147.181 138.003 146.476 136.888C145.771 135.773 145.852 135.827 146.205 135.256C146.557 134.685 146.53 134.658 146.205 134.522C145.879 134.386 145.038 135.039 145.038 135.692C145.447 136.921 146.247 137.982 147.317 138.71C148.348 139.091 149.378 139.009 149.704 138.438C150.01 136.748 149.802 135.005 149.107 133.434C148.293 132.047 147.642 131.775 145.174 131.938C144.346 131.971 143.521 132.062 142.706 132.21C141.677 133.24 140.922 134.512 140.509 135.909C139.965 137.63 140.042 139.488 140.726 141.158C142.545 142.065 144.552 142.531 146.585 142.518C147.584 142.567 148.583 142.406 149.518 142.045C150.452 141.684 151.3 141.132 152.009 140.424C153.257 139.336 153.61 138.357 153.962 135.148C154.168 133.991 154.121 132.804 153.827 131.667C153.07 129.768 151.755 128.146 150.056 127.016C147.404 126.034 144.539 125.781 141.756 126.282C139.996 127.224 138.379 128.415 136.955 129.817C135.875 131.587 135.19 133.571 134.947 135.632C134.703 137.693 134.907 139.782 135.545 141.756C136.834 143.919 138.518 145.82 140.509 147.359C142.622 148.149 144.874 148.501 147.127 148.392C148.184 148.549 149.262 148.464 150.281 148.144C151.301 147.824 152.235 147.276 153.013 146.543C154.511 145.473 155.768 144.099 156.702 142.511C157.637 140.923 158.228 139.155 158.438 137.323C158.77 135.21 158.555 133.047 157.814 131.041C157.407 128.461 156.268 126.054 154.532 124.106C151.681 121.728 148.036 120.523 144.333 120.734L140.97 120.598L138.257 121.903C135.473 123.187 133.091 125.209 131.368 127.75C129.521 130.142 128.562 133.103 128.655 136.127C128.958 140.488 130.805 144.597 133.863 147.712C138.122 152.308 139.478 153.151 143.302 153.342C144.709 153.481 146.129 153.389 147.507 153.07C151.74 151.99 155.463 149.46 158.031 145.917C159.655 144.45 160.855 142.571 161.503 140.478C162.109 138.58 162.402 136.596 162.371 134.604C162.5 132.887 162.418 131.16 162.127 129.464C161.287 126.929 160.071 124.536 158.519 122.365C156.495 120.105 154.199 118.104 151.684 116.41C148.358 115.214 144.937 114.305 141.458 113.69C139.997 113.658 138.546 113.936 137.199 114.506C130.011 116.79 126.784 119.32 125.048 123.97C123.942 126.702 123.354 129.616 123.312 132.564C123.073 134.386 123.212 136.237 123.719 138.003C124.878 142.535 126.775 146.845 129.333 150.758C132.657 154.178 137.115 156.258 141.865 156.605C145.794 156.738 149.684 155.798 153.122 153.886C157.402 150.941 161.223 147.376 164.46 143.306C166.928 138.52 167.959 129.029 166.44 125.167C164.348 120.891 161.673 116.928 158.492 113.391C155.337 110.519 151.466 108.555 147.29 107.707C142.726 106.478 137.933 106.375 133.321 107.408C127.896 108.414 126.214 109.148 123.854 111.405C120.82 114.273 118.561 117.867 117.29 121.849C115.06 130.32 115.966 139.315 119.84 147.168C123.095 153.913 125.916 156.632 133.565 160.386C136.238 161.808 139.218 162.555 142.245 162.561C146.968 162.557 151.597 161.239 155.617 158.754L160.093 156.034C163.711 153.636 166.751 150.458 168.989 146.733C171.117 142.205 172.517 137.368 173.139 132.401C172.022 126.417 170.001 120.639 167.145 115.267L165.382 111.623L159.767 106.184C152.742 99.2488 152.362 99.0585 145.283 98.025C140.135 96.8181 134.779 96.8181 129.632 98.025C126.472 98.7974 123.413 99.9383 120.518 101.425C115.798 103.709 114.198 105.096 112.652 108.169C110.975 111.771 109.763 115.573 109.044 119.483C108.4 123.482 108.19 127.54 108.42 131.585C108.165 135.217 108.319 138.866 108.881 142.463C109.733 146.702 111.371 150.743 113.71 154.375C116.563 158.064 119.999 161.261 123.881 163.839C128.194 166.559 137.118 167.348 146.015 165.716C148.956 165.296 151.823 164.463 154.532 163.241C155.698 162.752 158.167 161.827 159.957 161.147C164.016 160.114 167.708 157.967 170.617 154.946C173.829 151.862 176.821 148.554 179.568 145.047C181.525 142.52 182.67 139.457 182.85 136.263C183.094 132.428 182.497 130.823 177.425 120.897C171.865 110.018 170.237 107.462 166.575 103.872C162.712 100.343 158.515 97.201 154.044 94.4895C152.432 93.8771 150.783 93.3684 149.107 92.9665C147.181 92.4498 144.008 91.5252 142.028 90.8725C138.365 89.5503 134.524 88.7893 130.635 88.6152C122.498 88.2344 113.682 91.0356 109.424 95.2238C107.254 97.3723 106.25 99.14 103.24 105.939C100.105 111.827 98.2557 118.317 97.8146 124.976C96.41 136.489 99.309 148.116 105.952 157.612C107.401 160.315 109.228 162.796 111.377 164.982C114.425 167.574 117.713 169.869 121.196 171.835C128.321 174.993 136.167 176.159 143.899 175.207C151.603 174.337 152.037 174.283 163.049 170.312C166.663 169.098 169.904 166.972 172.461 164.139C174.496 162.262 177.506 159.434 179.215 157.883C182.352 155.204 185.092 152.091 187.353 148.637C191.148 143.886 193.146 137.942 192.995 131.857C193.112 129.847 192.929 127.83 192.452 125.874C191.344 121.807 189.967 117.818 188.329 113.935C186.708 109.81 184.396 105.993 181.494 102.648C176.829 97.2335 171.808 92.1365 166.467 87.3914C163.897 85.8923 161.168 84.6881 158.329 83.8015C153.749 81.8743 148.811 80.9472 143.845 81.0819C132.046 80.4836 129.496 80.5923 125.509 82.0065C124.722 82.2785 121.738 83.2032 118.917 84.019C113.086 85.3406 107.638 87.993 102.995 91.7699C101.504 92.885 99.3336 94.4895 98.1672 95.2782C97.0191 96.0732 95.9557 96.9846 94.9936 97.9978C92.734 101.422 90.8255 105.067 89.2975 108.876C88.7008 110.29 88.0498 111.759 87.8599 112.194C84.7358 120.769 84.0779 130.051 85.9612 138.982C86.8581 143.364 87.99 147.695 89.3517 151.955C91.1916 156.645 93.4999 161.137 96.2414 165.362C97.7332 167.348 98.3571 167.919 104.948 173.521L108.42 176.73C111.893 179 115.728 180.656 119.758 181.626C125.636 183.031 131.646 183.806 137.688 183.937C140.125 183.785 142.552 183.495 144.957 183.067C147.859 182.577 152.037 182.006 154.234 181.762C158.727 181.371 163.181 180.617 167.552 179.504C174.439 176.753 180.482 172.232 185.074 166.396C188.418 161.892 191.497 157.198 194.297 152.336C195.869 149.37 197.089 146.23 197.931 142.98C198.42 140.532 199.559 130.497 199.749 126.662C199.885 124.625 199.885 122.581 199.749 120.543C199.152 116.093 198.06 111.723 196.494 107.516C194.486 103.531 191.989 99.8123 189.062 96.4476C184.927 91.8867 180.477 87.6245 175.743 83.6927L171.648 80.402C169.701 78.6795 167.407 77.3992 164.921 76.6489C159.735 74.9013 154.307 73.9836 148.836 73.9293C146.123 73.9293 143.004 73.4942 141.702 73.2494C139.179 72.8851 136.629 72.7395 134.08 72.8143C130.215 72.6614 126.347 73.0273 122.579 73.9021C119.745 74.3638 116.938 74.9812 114.171 75.7514C109.428 77.6711 104.84 79.9533 100.446 82.5777C97.6692 84.1345 95.2558 86.2669 93.3662 88.8327C92.6881 89.703 91.2233 91.4164 90.1112 92.613C87.2559 95.8912 84.7301 99.4439 82.5706 103.219C80.9187 106.663 79.7677 110.327 79.1529 114.098C79.1529 114.587 78.8274 116.328 78.6375 117.905C77.5619 126.932 77.4256 136.046 78.2307 145.101C79.1657 151.821 81.0375 158.376 83.7912 164.574C88.2668 174.555 92.1456 180.157 97.5705 184.345C100.904 186.739 104.556 188.652 108.42 190.029C110.78 191.008 113.194 192.069 113.845 192.341C115.31 192.994 121.983 195.06 124.695 195.876C128.463 196.787 132.32 197.271 136.196 197.318C141.71 197.799 147.255 196.863 152.308 194.598C156.289 192.685 160.475 191.234 164.785 190.274C168.576 189.709 172.245 188.505 175.635 186.711C178.741 184.842 181.666 182.684 184.369 180.266C185.834 178.906 190.933 173.032 193.537 169.741C197.708 163.775 201.39 157.482 204.55 150.921C206.061 144.497 206.79 137.913 206.72 131.313C206.741 124.655 205.828 118.026 204.007 111.623C203.145 107.054 201.809 102.588 200.02 98.297C198.051 94.798 195.849 91.4362 193.429 88.2344C187.081 80.4292 185.942 79.3685 181.657 76.6489C177.878 74.2995 173.881 72.3231 169.722 70.7474C167.684 70.0776 165.61 69.5237 163.51 69.0884C161.395 68.6805 158.574 68.0006 157.163 67.5654C150.921 65.5744 144.353 64.817 137.823 65.3354C132.142 65.3582 126.476 65.9136 120.898 66.9943C115.339 67.5596 110.095 69.851 105.898 73.5486C102.943 75.8403 99.7834 77.8524 96.4584 79.5589C93.3159 80.8324 90.5978 82.973 88.6194 85.7324C85.9069 89.1863 79.18 99.14 78.2036 101.071C76.7769 104.145 75.6242 107.339 74.7587 110.617C73.8647 113.189 73.1665 115.826 72.6701 118.504C72.6701 118.884 72.3718 120.435 72.1548 121.903C71.9378 123.372 71.8022 124.623 71.8022 124.623C71.7804 125.224 71.7261 125.823 71.6394 126.418C71.1007 131.927 71.3473 137.486 72.3718 142.926C72.5888 144.122 72.9956 146.869 73.2669 149.018C73.8094 152.988 75.7352 162.616 77.1457 168.599C78.1499 172.683 79.5395 176.663 81.2957 180.483C83.4563 184.283 86.2027 187.716 89.4331 190.655C95.9701 196.801 96.8652 197.318 110.211 201.968C111.35 202.376 115.012 203.382 118.348 204.198C126.284 206.476 134.637 206.895 142.76 205.422C145.093 205.096 148.402 204.742 150.111 204.633C153.447 204.537 156.719 203.691 159.686 202.159C163.103 200.751 166.599 199.544 170.156 198.542C175.705 196.989 180.748 193.996 184.776 189.866C185.481 189.241 187.624 187.554 189.55 186.14C193.808 183.22 197.487 179.531 200.4 175.262C201.756 173.304 203.546 170.802 204.36 169.823C207.397 165.344 209.738 160.429 211.304 155.245C213.892 148.172 214.883 140.611 214.206 133.108C212.931 122.229 212.66 120.516 211.331 116.301C210.642 113.906 209.79 111.562 208.781 109.284C208.022 107.734 207.398 106.401 207.398 106.32C207.398 106.238 206.692 104.742 205.852 102.975C205.011 101.207 204.089 99.1129 203.763 98.2154C203.221 96.6924 201.051 91.6339 199.722 88.6424C197.48 84.6477 194.465 81.1431 190.852 78.3351C189.631 77.356 188.139 76.0506 187.461 75.4795C184.319 72.7065 180.804 70.3903 177.018 68.5989C174.604 67.4023 171.593 65.8793 170.02 64.9818C164.08 61.5551 158.004 59.9777 144.035 58.2372C138.794 57.6461 133.512 57.5096 128.248 57.8293C121.643 59.1257 115.189 61.1034 108.99 63.7308C103.151 65.7517 97.661 68.6692 92.7152 72.3791C90.0027 74.582 82.8961 80.538 80.9974 82.3601C76.0949 87.6922 71.9923 93.7112 68.8185 100.228C67.9505 102.322 64.7227 112.33 63.8547 115.539C63.2037 117.933 62.1458 123.018 61.7932 125.194C61.7932 126.119 61.4948 127.288 61.4135 127.913C61.0776 132.544 61.1684 137.196 61.6847 141.811C61.6847 142.191 61.8203 143.47 61.9288 144.748C62.0373 146.026 62.1458 147.903 62.2272 148.936C62.3086 149.969 62.3086 155.517 62.3086 161.555C62.4442 173.63 62.6069 175.153 64.3972 179.559C66.0469 183.422 68.1504 187.074 70.6629 190.437C76.6303 199.357 78.5833 201.479 84.0353 205.041C86.6941 206.944 89.5951 208.481 92.6609 209.61C98.3668 211.972 104.33 213.651 110.428 214.614C112.435 214.886 116.286 215.512 118.972 216.001C126.384 217.369 133.934 217.835 141.458 217.388C145.782 217.383 150.087 216.807 154.261 215.675C160.462 214.361 166.432 212.125 171.973 209.039C174.252 207.788 176.883 206.32 177.805 205.939C180.567 204.604 183.102 202.842 185.318 200.717C186.955 199.235 188.696 197.872 190.526 196.638C194.85 193.933 198.505 190.278 201.213 185.95C202.638 183.984 204.178 182.104 205.825 180.32C212.741 173.113 214.803 168.735 219.387 151.628C220.146 148.718 221.177 144.884 221.692 143.062C222.849 139.493 223.337 135.74 223.13 131.993C223.327 122.174 221.916 112.389 218.953 103.029C218.383 101.56 217.352 98.4058 216.62 96.0397C214.872 88.655 210.871 82.0005 205.174 77.0025C200.811 72.6648 195.565 69.3249 189.794 67.2119C188.492 66.7224 186.295 65.7977 184.884 65.1178C183.474 64.4379 180.789 63.4316 178.944 62.8061C177.1 62.1806 173.845 60.9024 171.756 60.0865C165.923 57.438 159.846 55.3702 153.61 53.913C147.009 52.8557 140.302 52.6364 133.646 53.2603C131.069 53.5867 128.384 53.9946 119.27 55.436C115.082 56.0961 110.985 57.2462 107.064 58.8627C105.295 59.5827 103.484 60.1913 101.639 60.6848C96.9618 61.83 92.4164 63.4616 88.0769 65.5529L84.0082 67.2663C82.0053 68.04 80.1651 69.1839 78.5833 70.6386C77.8509 71.2641 76.3862 72.4063 75.3012 73.2222C71.033 76.6791 67.1252 80.5608 63.6377 84.8077C62.5798 86.4123 54.6052 101.778 53.5473 104.28C52.4895 106.782 52.3267 108.06 52.0826 115.757C51.947 119.945 51.7571 123.916 51.7029 124.269C51.6486 124.623 51.7029 128.158 51.7029 131.83C51.7072 139.117 52.2877 146.392 53.4388 153.587C53.7372 155.463 54.0085 157.72 54.117 158.563C54.9516 166.833 56.4667 175.02 58.6468 183.04C60.2952 187.28 62.3481 191.352 64.7769 195.196C67.5994 199.087 70.9189 202.588 74.6502 205.613C78.4777 209.218 82.6169 212.477 87.019 215.349C92.6954 219.682 98.8585 223.333 105.382 226.227C110.199 228.38 115.279 229.88 120.491 230.687C128.18 231.341 135.911 231.341 143.601 230.687C152.44 229.096 161.145 226.832 169.64 223.915C172.353 222.936 175.933 221.685 177.642 221.196C183.85 218.712 189.901 215.852 195.761 212.629C202.837 207.83 209.225 202.084 214.748 195.55C218.744 189.288 222.367 182.795 225.598 176.105C228.623 170.676 231.043 164.931 232.813 158.971C233.546 156.578 235.173 151.438 236.421 147.522C239.103 140.316 240.844 132.793 241.602 125.139C242.036 119.7 241.602 117.171 238.754 110.018C236.703 104.909 234.394 99.9077 231.837 95.0334C229.884 91.6175 227.613 88.394 225.056 85.406C220.789 80.1596 216.263 75.131 211.494 70.3394C210.598 69.5779 207.696 66.804 205.065 64.2203C200.392 59.1023 194.649 55.0814 188.248 52.4444C181.356 48.9783 174.232 45.9976 166.928 43.5241C164.215 42.5723 160.337 41.0221 158.248 40.0702C155.364 38.396 152.112 37.4618 148.782 37.3506C144.673 37.166 140.566 37.728 136.657 39.0096L128.791 40.9133C123.352 42.1644 118.061 43.9876 113.004 46.3525C109.955 48.0766 106.749 49.5063 103.429 50.6223C100.503 51.5618 97.6404 52.6882 94.858 53.9946C93.339 54.7017 91.4946 55.4632 90.708 55.7352C89.9214 56.0071 86.368 57.6389 82.8147 59.4066C79.2614 61.1744 75.8708 62.7789 75.247 63.0509C70.6053 64.4449 66.289 66.7567 62.5527 69.8499C58.9377 72.4291 55.8294 75.6562 53.3846 79.3685C50.6713 83.2493 48.6775 87.5883 47.4986 92.1779C46.3255 95.4679 45.5248 98.8798 45.1116 102.349C44.976 103.573 44.325 107.544 43.674 111.106C42.2206 118.552 41.4849 126.12 41.4769 133.706C41.0622 143.162 41.3705 152.636 42.3992 162.044C42.7518 165.254 43.1044 168.871 43.1858 170.203C44.035 176.599 45.4511 182.906 47.4172 189.05C49.56 195.74 50.7264 197.97 53.3303 200.554C55.6664 202.993 57.841 205.582 59.8402 208.305C64.4514 214.506 64.3429 214.37 68.276 216.953C69.3881 217.688 72.1005 219.673 74.2705 221.196C78.2495 224.046 82.4082 226.635 86.7207 228.947C88.2396 229.817 90.8978 231.666 92.5524 232.809C96.7839 236.107 101.71 238.395 106.956 239.499C107.661 239.499 109.397 239.852 110.834 240.097C114.562 240.515 118.317 240.633 122.064 240.451C133.972 240.451 136.196 240.097 144.55 237.731C150.674 235.727 157.099 234.806 163.537 235.011C169.722 235.011 169.749 235.011 172.217 234.168C174.155 233.47 176.048 232.652 177.886 231.721C185.972 227.398 194.304 223.556 202.841 220.217C207.092 218.88 211.129 216.938 214.83 214.451C218.563 211.051 222.078 207.417 225.354 203.573C225.978 202.757 227.497 200.445 228.772 198.46C231.484 193.973 234.468 189.594 237.289 185.678C240.43 181.247 243.215 176.573 245.616 171.699C247.944 167.378 249.921 162.876 251.529 158.237C252.137 155.203 252.137 152.079 251.529 149.045C251.367 147.467 251.15 143.17 250.987 139.526C250.962 136.207 250.662 132.896 250.092 129.627C249.066 124.156 248.539 118.604 248.519 113.037C248.329 103.791 247.623 99.9015 245.236 94.7071C244.83 93.7824 243.989 91.9875 243.419 90.5189C242.208 87.68 240.756 84.9504 239.079 82.3601C238.293 81.0275 236.882 78.6342 235.987 76.9209C234.631 74.4042 233.099 71.9868 231.403 69.6867C228.761 67.0918 225.942 64.6837 222.967 62.4798C221.286 61.2016 218.763 59.1075 217.352 57.7749C215.83 56.3844 214.227 55.0858 212.551 53.8858C211.358 53.0428 209.107 51.547 207.588 50.5135C206.069 49.4801 203.844 47.7939 202.624 47.0052C199.507 44.8553 196.1 43.1613 192.506 41.974C191.015 41.4572 188.492 40.5598 186.892 39.9343C184.729 39.1532 182.53 38.4816 180.3 37.9218C178.266 37.4322 175.12 36.426 173.248 35.7461C165.734 33.0265 163.022 32.5913 147.778 32.6185C134.541 32.6185 131.232 32.8633 124.505 34.1143C122.01 34.5766 118.755 35.175 117.263 35.3925C113.626 35.9006 110.07 36.8787 106.684 38.3025C104.623 39.0912 100.663 40.4782 97.9502 41.3485C94.2927 42.4677 90.7431 43.9149 87.3445 45.6726C82.3648 48.0789 77.5447 50.8041 72.9143 53.8314C69.6969 55.7071 66.6636 57.8834 63.8547 60.3313C60.9249 62.9483 57.8161 65.3565 54.5509 67.5382C52.9589 68.6795 51.4288 69.9051 49.9669 71.2097C45.4303 75.8277 41.1732 80.7136 37.2184 85.8412C35.1915 88.4494 33.4628 91.2774 32.0647 94.2719C30.2415 97.4396 29.0098 100.914 28.43 104.525C27.9172 109.512 27.0102 114.45 25.7176 119.292C24.0087 126.227 23.7646 129.436 23.7646 143.279C23.629 147.521 23.8194 151.767 24.3342 155.98C24.5783 157.584 25.0395 160.44 25.3107 162.316C25.9149 166.894 26.7752 171.434 27.8875 175.914C28.9263 181.122 30.7559 186.139 33.3124 190.791C35.8451 195.678 38.7946 200.337 42.1279 204.715C44.1351 207.435 46.6306 211.269 47.7156 213.091C49.811 216.914 52.4112 220.436 55.4461 223.562C59.1775 227.871 63.8073 231.306 69.0083 233.624C71.2868 234.767 74.4332 236.344 76.0065 237.323C79.9148 239.497 84.0087 241.318 88.2396 242.762C99.2522 246.76 100.663 247.141 107.39 247.848C112.353 248.365 119.921 249.371 123.936 250.051C126.578 250.504 129.258 250.695 131.937 250.622C135.085 250.81 138.242 250.451 141.268 249.561C143.736 248.99 147.127 248.338 148.754 248.093C153.176 247.522 154.179 247.331 160.391 246.325C163.456 245.808 167.579 245.292 169.586 245.183C175.786 244.76 181.859 243.221 187.515 240.641C192.106 238.963 196.393 236.547 200.21 233.488C201.837 232.265 205.336 229.871 207.967 228.049C210.598 226.227 213.935 223.915 215.427 222.61L220.58 218.449C225.415 214.722 229.851 210.502 233.817 205.857C240.788 197.889 241.141 197.454 243.717 194.054C252.804 182.061 255.245 178.661 256.439 176.186C257.994 172.161 259.05 167.96 259.585 163.676C260.426 157.748 261.593 143.714 261.62 139.39C261.723 137.12 261.401 134.851 260.67 132.7C260.155 130.769 259.341 127.913 258.853 126.363C258.365 124.813 257.524 121.604 257.009 119.211C255.618 111.391 253.456 103.729 250.553 96.3389C248.763 92.477 245.128 83.8831 244.531 82.2241C244.233 81.2994 243.446 78.3895 242.822 75.7243C241.985 71.1279 240.36 66.7115 238.021 62.6702C235.313 56.6304 231.577 51.1089 226.982 46.3525C223.241 42.9628 219.117 40.0237 214.694 37.5954C210.494 36.0164 206.139 34.8861 201.702 34.2231C197.032 33.3863 192.441 32.1582 187.977 30.5516C181.109 28.3865 174.116 26.6427 167.036 25.33C152.576 23.1711 137.931 22.5331 123.339 23.4263C118.348 23.736 113.383 24.372 108.475 25.33C101.544 26.1587 94.8484 28.3687 88.7821 31.8298C79.9993 35.8972 71.5311 40.6151 63.4478 45.9446C55.501 51.3604 48.2177 57.6954 41.7482 64.8186C33.9092 72.9775 34.2889 72.3519 28.6199 83.3935C20.4825 99.412 20.0485 100.337 18.3668 108.088C15.2746 122.229 14.1083 133.57 14.9491 141.593C16.2972 152.077 18.2901 162.468 20.9165 172.705C21.7303 175.588 22.9237 180.293 23.629 183.176C25.3201 190.97 28.241 198.443 32.2817 205.313C34.9318 209.791 37.9245 214.055 41.2328 218.068C43.1586 220.57 45.7355 224.051 46.9832 225.792C51.8114 232.509 60.0572 239.254 74.1077 248.011C78.0263 250.617 82.2661 252.702 86.7207 254.212L92.5524 256.469C98.3027 258.81 104.169 260.852 110.129 262.588C121.555 264.702 133.126 265.93 144.74 266.26C148.733 266.203 152.718 265.903 156.675 265.362C156.892 265.362 158.736 265.09 160.798 264.873C163.041 264.602 165.268 264.211 167.47 263.703C169.098 263.295 171.892 262.643 173.682 262.289C177.743 261.614 181.683 260.34 185.373 258.509C187.57 257.503 190.553 256.17 191.964 255.599C195.272 254.188 198.48 252.552 201.566 250.704C203.77 249.466 206.054 248.376 208.401 247.44C211.294 246.25 214.087 244.831 216.756 243.197C222.803 239.87 228.423 235.815 233.492 231.122C238.881 226.81 243.471 221.582 247.054 215.675C251.936 207.951 256.385 200.962 257.578 199.14C258.884 197.322 260.045 195.403 261.05 193.402C261.62 192.314 262.922 189.431 264.007 187.065C265.092 184.699 266.366 181.843 266.909 180.728C268.862 176.906 270.547 172.954 271.954 168.898C273.495 164.174 274.665 159.337 275.453 154.43C276.048 149.923 276.257 145.374 276.077 140.832C274.29 130.967 271.255 121.37 267.045 112.276C264.929 107.924 261.131 98.2426 258.121 89.5126C256.764 85.6236 254.92 80.7827 253.943 78.7702C251.226 72.9581 249.003 66.9263 247.298 60.7392C246.618 58.6864 245.83 56.6711 244.938 54.7017C242.207 50.18 239.19 45.8379 235.906 41.702C234.848 40.315 233.193 37.9761 232.108 36.4804C229.94 33.2786 227.085 30.6027 223.754 28.6479C218.709 25.4214 213.228 22.9393 207.479 21.2778C201.517 19.1588 195.326 17.753 189.034 17.0896C182.389 16.2465 178.564 15.6482 173.167 14.5604C164.851 12.8718 156.397 11.9614 147.914 11.8407C135.925 11.4328 117.209 11.4872 111.567 12.0039C107.279 12.346 103.019 12.9821 98.8182 13.9076C96.1057 14.5604 85.0389 18.4766 82.5435 19.6188C81.6484 19.9996 79.0444 21.4138 76.7117 22.7192C74.379 24.0246 71.1512 25.8739 69.5508 26.7714C67.7954 27.7603 66.1097 28.8689 64.5057 30.0893C63.3664 31.0684 60.654 33.2168 58.5111 34.903C54.7068 37.5351 51.2523 40.6423 48.2309 44.1496C46.7933 45.8358 43.7011 49.0721 41.3413 51.3838C37.994 54.3479 35.1856 57.8723 33.0412 61.7999C31.5765 64.5195 29.2438 68.2181 26.8025 71.9168C23.4251 77.1168 20.3548 82.5108 17.6073 88.0713C14.7174 93.9908 12.4274 100.186 10.7719 106.565C9.13868 115.467 8.02468 124.457 7.43563 133.489C7.53683 142.097 8.33511 150.683 9.82259 159.162C10.0396 160.277 10.2566 161.691 10.338 162.316C10.5496 164.146 10.8666 165.962 11.2873 167.756C11.2873 168.327 11.6128 169.061 11.6671 169.415C11.7294 169.754 11.811 170.09 11.9112 170.421C12.0231 170.776 12.1048 171.14 12.1553 171.509C12.25 172.086 12.3767 172.658 12.535 173.222C12.8334 174.256 13.4573 177.601 13.7014 179.205C14.0269 181.408 15.8985 189.485 16.4138 190.519C16.506 190.72 16.5787 190.929 16.6308 191.144C17.526 194.897 18.9907 198.025 25.9617 211.106C27.8875 214.696 30.1389 219.265 30.9526 221.033C33.3667 226.472 33.9906 227.669 36.7573 232.809C39.0416 237.954 42.3453 242.581 46.4678 246.407C48.9023 248.77 51.4746 250.985 54.1712 253.042C56.6395 254.919 60.1657 257.666 61.956 259.134C66.1752 262.462 70.6158 265.497 75.247 268.218C83.8183 273.059 93.4747 276.132 108.203 278.58C116.567 280.252 125.045 281.288 133.565 281.68C138.99 281.68 149.839 281.326 155.102 280.755C156.967 280.564 158.841 280.473 160.716 280.483C163.914 280.635 167.113 280.202 170.156 279.205C173.79 277.954 179.649 275.642 183.474 273.766C185.373 272.923 189.143 271.481 191.855 270.611C194.568 269.741 198.148 268.408 199.83 267.701C203.964 265.926 207.978 263.882 211.846 261.582C213.853 260.304 221.177 254.756 224.052 252.335C225.403 251.218 226.846 250.217 228.365 249.344C230.784 247.82 233 245.992 234.956 243.905C239.076 239.872 242.867 235.516 246.294 230.878C248.008 228.486 249.903 226.231 251.963 224.133C256.596 219.754 260.224 214.419 262.596 208.495C263.763 205.776 265.878 200.908 267.56 197.617C268.401 195.849 269.73 193.13 270.489 191.579C271.249 190.029 272.47 187.228 273.202 185.352C273.934 183.475 275.752 178.988 277.189 175.343C279.6 169.883 281.295 164.133 282.234 158.237C284.947 144.639 284.947 143.17 282.234 128.321C281.583 124.677 278.79 112.983 275.263 99.2216C273.308 91.7657 270.732 84.4877 267.56 77.4648C265.01 71.3979 261.971 65.5495 258.473 59.9777C256.459 56.4873 254.164 53.1674 251.611 50.0512C248.606 46.0418 245.887 41.825 243.473 37.4322C241.251 33.0982 238.201 29.2447 234.495 26.0915C230.778 22.2999 226.45 19.1646 221.692 16.8176C216.708 14.1387 211.475 11.9527 206.069 10.2906C201.539 8.84918 187.841 5.36809 183.962 4.66099C169.131 2.2354 154.149 0.84506 139.125 0.5C136.413 0.5 133.429 0.5 132.778 0.63598H132.832Z" fill="#73D88B"/>
</svg>
