<svg width="922" height="922" viewBox="0 0 922 922" fill="none" xmlns="http://www.w3.org/2000/svg">
<path d="M369.654 311.639L369.659 311.606C369.727 311.581 369.796 311.549 369.866 311.514C369.794 311.553 369.724 311.596 369.654 311.639ZM379.761 207.816C374.864 209.993 371.053 215.248 368.809 220.039C367.734 223.304 370.087 226.045 371.605 228.791L371.594 228.761C373.151 232.441 371.557 236.666 371.604 240.669C370.737 257.38 367.151 274.245 366.568 291.351C366.128 299.344 365.384 306.165 365.556 314.02C364.536 315.43 364.128 318.539 366.449 318.696C372.166 317.142 376.781 312.332 382.629 311.15C383.822 311.032 384.919 310.389 385.533 309.338C387.633 302.421 385.781 294.514 386.098 287.273C385.72 270.463 384.437 254.051 385.995 237.264L385.982 237.36C386.239 234.831 386.212 232.618 386.126 230.138C386.986 226.631 393.685 226.226 391.9 221.245C389.807 217.263 383.963 209.108 379.761 207.816Z" fill="#73D88B"/>
<path d="M413.856 151.603C416.07 151.71 418.145 152.908 419.274 154.827C418.486 156.043 419.1 157.345 419.03 158.657C418.79 162.532 417.004 166.155 416.979 170.103C417.126 178.587 413.21 188.462 403.32 182.536C397.726 173.421 399.135 150.181 413.856 151.603ZM410.42 149.142C396.732 152.389 395.112 173.157 399.503 184.102C402.516 189.507 410.49 189.153 414.785 185.503C419.61 181.668 419.681 175.03 420.459 169.42C420.032 165.491 425.754 155.043 421.102 153.404C419.26 149.348 414.486 148.078 410.42 149.142Z" fill="#161616"/>
<path d="M417.733 150.96C415.876 152.498 417.597 153.931 418.556 155.315C418.912 158.099 420.928 160.124 421.92 156.357C421.784 154.41 420.23 149.604 417.733 150.96Z" fill="#161616"/>
<path d="M413.613 149.218C406.642 149.037 402 156.069 405.532 153.675C405.491 153.718 405.451 153.76 405.41 153.803C407.823 151.255 412.618 150.423 415.51 152.61C417.564 153.894 417.568 156.949 419.312 158.17C421.764 157.94 421.567 154.862 420.799 153.167C419.732 150.308 416.481 149.059 413.613 149.218Z" fill="#161616"/>
<path d="M416.465 151.882C416.503 151.893 416.541 151.904 416.578 151.914C416.541 151.904 416.503 151.893 416.465 151.882ZM416.398 149.564C413.068 152.773 421.155 150.736 419.169 159.834C418.781 162.008 418.155 169.504 421.443 164.28C422.15 158.988 424.394 149.525 416.398 149.564Z" fill="#161616"/>
<path d="M407.52 143.331C405.085 145.34 402.764 147.491 400.119 149.263C398.981 150.219 397.05 150.806 396.946 152.513C397.626 155.511 404.566 150.778 406.106 149.71C407.332 148.508 409.001 147.68 409.903 146.204C411.206 144.387 409.638 141.402 407.52 143.331Z" fill="#161616"/>
<path d="M419.387 143.121C415.252 147.374 423.867 153.707 428.007 153.713C429.381 153.738 430.565 151.417 429.358 150.513C427.454 149.515 425.92 148.045 424.361 146.593C424.453 146.675 424.545 146.757 424.637 146.838C422.648 145.863 422.032 141.002 419.387 143.121Z" fill="#161616"/>
<path d="M408.288 190.302C405.31 191.67 403.818 189.775 402.948 190.759C400.769 194.409 411.663 192.492 408.288 190.302Z" fill="#161616"/>
<path d="M419.145 113.961C417.004 116.475 417.685 121.195 417.85 124.434C417.776 128.546 423.299 134.322 419.958 137.513C418.031 138.585 417.332 136.107 416.099 136.914C415.447 138.384 413.978 138.743 412.572 137.902C412.107 137.146 412.715 135.287 411.276 135.527C407.086 138.146 412.764 143.83 416.369 139.373C418.384 141.488 422.34 140.055 423.494 137.656C425.207 133.654 423.035 129.517 421.345 125.901C419.81 122.362 419.294 118.456 419.803 114.631C419.851 114.229 419.535 113.866 419.145 113.961Z" fill="#161616"/>
<path d="M427.844 124.754C427.79 124.739 427.736 124.723 427.683 124.707C427.736 124.723 427.789 124.739 427.844 124.754ZM432.857 117.331C442.78 118.381 439.696 124.114 431.29 122.396C422.282 121.644 426.237 116.762 432.857 117.331ZM429.181 115.084C423.833 116.021 420.808 123.539 427.683 124.707C427.649 124.697 427.616 124.687 427.583 124.676C443.778 129.411 446.345 112.858 429.181 115.084Z" fill="#161616"/>
<path d="M386.856 121.78C386.926 121.799 386.996 121.82 387.066 121.841C386.996 121.821 386.926 121.8 386.856 121.78ZM391.245 117.246C394.188 117.121 397.291 117.115 399.903 118.409C405.415 126.904 367.34 119.879 391.245 117.246ZM389.396 115.105C368.105 120.408 395.329 130.718 401.939 121.906C406.505 113.574 394.131 115.383 389.396 115.105Z" fill="#161616"/>
<path d="M395.825 117.657C393.057 117.81 392.046 122.655 395.438 122.45C397.812 122.314 398.623 117.609 395.825 117.657Z" fill="#161616"/>
<path d="M434.28 120.657C434.269 120.658 434.257 120.659 434.245 120.66C434.257 120.659 434.268 120.658 434.28 120.657ZM433.814 117.724C431.131 118.075 430.576 122.932 433.794 122.604C436.431 122.217 437.201 117.158 433.814 117.724Z" fill="#161616"/>
<path d="M397.121 126.123C394.142 128.874 389.781 127.48 386.471 128.259C385.792 129.438 393.297 129.338 394.223 129.121C395.317 129.108 399.743 126.533 397.121 126.123Z" fill="#161616"/>
<path d="M423.354 124.351C422.231 125.772 426.986 129.33 428.421 129.579C429.228 129.78 430.28 129.992 430.68 129.044C430.901 128.628 431.047 127.672 430.35 127.602C427.848 127.534 425.544 126.211 423.943 124.333C423.775 124.133 423.531 124.2 423.354 124.351Z" fill="#161616"/>
<path d="M387.778 103.841C387.256 105.836 392.953 105.29 394.34 106.018C395.383 106.197 396.922 107.048 397.524 105.739C397.742 105.335 397.877 104.593 397.391 104.332C394.493 103.316 391.375 104.136 388.453 103.364C388.167 103.302 387.891 103.633 387.778 103.841Z" fill="#161616"/>
<path d="M436.663 103.013C433.48 103.308 430.759 105.727 427.602 105.715C427.068 105.722 426.694 106.377 426.8 106.866C429.642 107.987 433.281 105.35 436.399 105.193C437.344 105.039 438.003 102.921 436.663 103.013Z" fill="#161616"/>
<path d="M370.331 151.101C370.269 151.045 370.207 150.99 370.145 150.935C370.207 150.991 370.269 151.047 370.331 151.101ZM370.718 148.461C370.734 148.475 370.751 148.49 370.768 148.505C370.751 148.49 370.734 148.475 370.718 148.461ZM368.848 145.994C368.851 146.014 368.853 146.035 368.855 146.056C368.852 146.035 368.85 146.014 368.848 145.994ZM368.262 145.045C365.328 147.494 370.463 151.692 372.914 152.508C375.098 153.276 383.021 153.995 382.953 150.696C381.497 149.406 378.567 151.297 376.585 150.761C373.551 150.631 369.646 148.802 368.915 145.709C368.966 145.308 368.648 144.949 368.262 145.045Z" fill="#161616"/>
<path d="M376.193 151.953C374.572 153.535 375.599 156.826 374.968 158.999C375.199 160.401 372.811 169.905 375.462 168.052C376.329 164.064 376.058 159.688 376.554 155.575C376.388 154.562 377.382 152.284 376.193 151.953Z" fill="#161616"/>
<path d="M471.077 315.89C469.335 308.902 465.665 302.704 463.323 295.863C461.58 288.875 457.802 282.492 456.387 275.415C458.951 274.208 461.373 272.817 463.696 271.259C468.961 284.763 473.419 298.352 478.135 311.978C475.756 313.471 473.502 314.608 471.077 315.89ZM475.982 261.718C486.198 256.461 516.675 238.248 526.42 240.724C525.535 245.496 504.73 254.616 510.99 257.911C512.65 257.793 514.503 257.22 516.071 258.056C516.546 258.676 518.108 260.353 517.039 261.191C513.13 266.662 518.671 264.008 520.012 265.624C521.649 271.37 515.605 271.162 522.88 274.828C528.154 282.281 509.248 291.018 504.292 294.718C496.976 299.452 489.688 303.522 482.441 308.148C478.301 294.551 473.511 281.138 467.804 268.079C468.357 267.521 468.159 266.476 468.703 266.111C471.109 264.598 473.566 263.185 475.982 261.714V261.718ZM672.972 232.576C677.402 229.401 682.026 226.141 686.516 222.988C693.533 235.67 704.763 245.864 712.286 258.243C709.451 261.786 706.547 265.357 703.629 268.78C693.583 256.039 682.934 244.969 672.133 233.195L672.972 232.573C672.972 232.575 672.967 232.576 672.972 232.576ZM401.862 235.819C396.881 227.275 392.364 217.999 384.884 211.319C391.261 212.347 397.75 212.358 404.12 213.035C404.1 213.596 404.325 214.298 404.891 214.503C403.94 221.752 403.288 228.462 401.862 235.819ZM363.362 316.411C363.716 311.072 360.795 305.75 359.895 300.485C355.325 282.244 350.29 264.56 345.882 246.326C356.059 233.437 367.435 221.392 380.159 211.004C386.161 217.917 390.563 225.634 394.974 233.636C398.091 238.909 401.899 244.078 400.026 250.414L400.077 250.181C398.634 265.359 396.572 280.971 394.62 296.222C394.662 296.119 394.669 295.995 394.687 295.885C394.461 297.551 394.228 300.235 394.04 302.166C383.878 307.169 373.674 312.26 363.362 316.411ZM345.281 244.008C341.725 228.454 337.338 212.806 333.624 197.188C340.213 199.734 346.695 203.149 353.458 205.43C360.519 207.786 368.558 208.942 375.901 210.125C364.238 220.001 354.205 231.649 345.281 244.008ZM715.232 254.574C708.234 242.323 697.612 232.313 689.988 220.598C698.682 215.264 737.277 189.242 744.584 192.288C741.066 196.426 735.963 199.199 732.819 203.925C731.68 204.886 729.855 208.066 732.515 208.153C737.978 207.017 737.881 208.946 735.073 212.874L735.138 212.814C734.456 213.898 734.4 215.607 735.82 215.73C736.964 215.329 738.826 214.618 739.559 216.02C739.015 217.603 737.567 218.699 737.489 220.412C737.337 221.782 738.757 221.493 739.19 222.441C738.738 226.08 735.465 228.761 733.358 231.577C727.932 239.57 721.05 247.001 715.232 254.574ZM404.375 208.691C386.392 206.93 367.482 206.667 350.567 199.946C346.59 198.606 342.576 196.552 338.655 194.925C336.986 194.308 335.544 194.016 334.054 193.148C334.051 193.045 333.984 192.1 333.386 191.891C335.484 174.719 335.828 156.308 340.645 139.998C338.377 137.442 333.505 136.558 333.676 132.164C333.244 128.471 339.166 128.015 342.011 127.489C344.348 127.291 348.917 127.97 348.558 124.418C350.296 116.778 352.103 109.175 354.108 101.652C355.531 94.9346 356.904 88.3893 360.866 82.5992C366.023 74.6202 374.359 69.4593 382.952 65.7635C392.633 60.7925 403.869 60.5555 414.248 63.1219L414.198 63.0814C424.966 66.1369 434.811 73.227 441.604 82.0294C443.45 85.7118 443.346 90.1241 443.738 94.1422L443.753 93.9213C444.283 101.844 444.359 109.791 443.201 117.659C442.439 125.298 442.204 133.116 441.325 140.74C440.062 151.248 439.2 161.422 437.508 171.662C436.382 178.774 436.185 187.27 429.072 191.405C424.081 194.916 418.407 196.273 412.549 197.356C403.324 197.889 405.229 201.227 404.375 208.691ZM395.539 53.2842C387.819 53.6442 379.317 54.5284 373.054 59.3053C366.971 60.9294 360.906 64.7829 356.812 69.7225C352.359 72.5189 347.264 76.4895 346.78 82.0971C344.444 84.8737 342.841 88.4271 342.108 91.9612C341.698 93.3483 341.526 94.9203 341.079 96.2618C338.601 99.3754 336.973 103.191 337.172 107.109C337.179 108.771 338.335 110.486 337.37 112.077C335.79 116.276 335.524 120.99 336.107 125.4C332.958 126.98 329.974 129.566 331.096 133.387C331.129 137.348 334.083 139.974 337.319 141.816C335.962 148.158 334.158 154.584 333.246 160.939C331.863 170.952 331.158 181.131 329.909 191.19C300.081 191.688 253.823 183.412 231.317 207.059C219.446 224.952 223.103 274.872 223.552 297.606C224.766 322.141 225.63 346.777 227.036 371.318C227.391 377.972 227.875 384.224 228.668 391.399C228.695 391.539 228.714 391.992 228.738 392.144C228.587 392.298 228.451 392.49 228.333 392.712C227.534 394.813 229.323 396.937 229.148 399.202C229.825 403.634 230.033 407.957 230.488 412.463C233.114 428.44 234.459 444.412 235.325 460.572C236.667 472.705 236.234 484.723 237.93 496.727C238.253 499.318 241.163 498.788 243.072 499.217C247.545 500.107 251.811 501.148 256.103 501.559C256.775 537.42 259.83 573.097 262.329 608.787C264.883 650.176 265.709 691.772 268.133 733.179C269.712 759.779 271.453 785.447 272.075 812.37C273.276 830.823 275.075 849.263 276.246 867.754C276.7 870.174 275.802 873.424 277.593 875.282C281.504 875.093 285.8 876.269 289.958 875.716C295.748 875.582 294.839 867.565 296.922 863.702C309.393 872.908 337.886 880.229 344.292 860.733C344.267 860.788 344.244 860.848 344.222 860.908C345.86 854.261 347.109 851.859 339.665 854.828C337.392 855.031 335.46 855.118 333.328 855.155C328.392 854.597 322.575 856.598 318.495 853.145C315.873 846.875 318.077 839.771 318.459 833.202C319.829 816.325 321.969 800.287 322.429 783.267C322.426 761.143 325.514 740.006 326.395 718.118C327.595 686.175 332.68 654.385 337.27 622.862C339.197 607.446 343.67 592.542 347.276 577.619C352.316 555.026 357.377 531.515 362.671 509.018C380.333 505.072 377.998 510.816 380.286 525.678C382.809 539.14 383.124 553.555 383.917 567.454C388.432 605.062 390.103 643.192 391.692 680.989C394.15 706.888 395.067 732.557 398.15 758.576C402.867 791.081 405.58 823.922 407.968 856.644C408.506 858.456 407.544 861.531 409.954 861.982C413.604 861.521 417.26 861.056 420.944 860.77C426.855 860.212 424.017 850.347 425.029 846.258C432.796 855.058 445.451 859.963 457.237 859.332C466.467 858.613 478.232 855.57 482.496 846.567C483.953 842.98 485.013 838.066 482.976 834.562C476.996 830.51 464.798 841.067 454.418 834.069C453.997 799.581 454.983 764.638 454.961 730.123C455.187 702.37 454.094 674.747 454.34 646.926C454.091 630.851 455.761 615.32 455.641 599.346C456.104 587.171 454.903 575.084 455.242 562.876C455.038 544.21 457.302 525.784 456.888 507.141C470.598 505.648 471.137 503.357 473.571 490.393C477.291 473.479 476.342 455.917 477.642 438.775C479.864 405.881 482.648 373.088 483.28 340.196C495.432 345.821 508.478 350.265 520.897 354.876C543.454 364.386 568.422 372.654 593.173 371.832C611.507 369.527 624.249 355.259 637.526 343.845C650.89 331.414 663.623 318.332 676.024 304.987C692.053 288.088 707.022 270.354 721.151 251.943C725.867 245.66 731.362 240.068 735.682 233.545C738.932 230.042 744.409 223.827 740.794 219.19C742.763 216.722 743.408 211.84 739.245 211.488C740.988 208.594 740.112 203.616 735.917 204.233C738.784 200.391 743.016 198.171 745.921 194.401C751.079 185.466 737.36 188.982 733.52 191.553C716.348 200.432 699.738 210.176 683.759 221.242C669.03 231.732 654.564 242.113 640.67 253.451C625.632 265.602 610.995 278.415 594.113 288.033C580.666 296.475 568.911 285.235 556.657 280.327C548.138 276.03 539.374 270.699 531.113 266.267C528.449 264.497 524.959 263.459 522.548 261.242C521.999 260.421 520.727 261.015 520.335 261.571C521.63 258.709 520.266 254.308 517.154 253.348C519.823 251.304 522.64 249.489 525.106 247.172C528.278 244.519 532.925 236.396 525.673 236.33C517.74 237.165 510.262 241.19 503.107 244.53C497.137 237.492 489.134 231.819 480.601 228.073C475.392 225.823 469.925 225.033 464.522 223.407L464.568 223.445C450.247 219.285 435.545 215.674 420.875 213.606C417.675 213.34 414.509 213.146 411.352 212.367C410.174 212.106 408.856 211.182 407.758 211.959C407.985 208.947 408.408 206.188 408.596 203.154C427.523 201.418 440.649 192.178 441.291 172.144C443.791 155.3 445.661 137.945 446.462 120.97C447.513 107.344 449.424 89.0818 441.975 77.1944C436.559 70.3638 429.446 64.9341 421.473 61.3166C418.082 59.0541 414.464 57.1935 410.489 56.0202L410.552 56.0732C405.61 54.7677 400.689 53.3653 395.539 53.2842Z" fill="#161616"/>
<path d="M495.335 176.235C479.416 170.38 482.418 151.531 499.212 150.053C494.27 157.548 492.666 167.543 495.335 176.235ZM507.307 145.632C506.597 145.625 505.85 146.212 505.505 146.657C483.796 140.909 469.851 170.039 490.48 181.16C497.552 185.091 506.722 183.527 511.733 177.129C512.871 177.662 514.314 177.326 515.545 177.305C519.846 177.016 523.931 177.237 528.259 177.108C544.436 177.383 561.926 179.972 577.918 179.573C578.31 181.071 580.182 180.878 580.956 179.937C584.354 174.919 583.105 167.95 582.081 162.492C575.046 159.056 566.555 160.44 558.874 159.4C544.837 158.659 530.73 157.465 516.96 156.509C515.789 151.624 512.761 146.281 507.307 145.632Z" fill="#161616"/>
<path d="M500.457 144.795C489.651 145.036 479.403 155.161 481.915 166.296C482.224 167.838 483.022 170.37 485.055 169.275C485.525 172.833 488.936 181.848 493.615 179.022C495.764 180.587 498.175 177.639 498.53 175.612C499.327 173.258 497.151 171.758 496.036 169.981C495.801 168.567 495.151 167.068 494.1 166.088C494.418 161.393 500.53 158.329 499.014 153.473C499.816 152.6 500.369 151.461 500.36 150.291C503.324 150.196 506.745 149.425 508.174 152.558C511.539 152.902 511.35 148.068 509.193 146.549C506.925 144.552 503.329 144.809 500.457 144.795Z" fill="#161616"/>
<path d="M545.469 169.414C539.997 172.134 542.555 187.538 541.841 193.171C541.961 207.055 541.343 220.924 541.113 234.802C540.066 304.479 546.64 373.975 547.433 443.622C547.843 499.604 550.369 555.514 552.103 611.461C553.274 679.173 551.006 746.986 555.699 814.615C556.358 820.446 555.408 836.3 562.355 827.085C563.835 821.931 561.364 816.274 561.733 810.922C557.616 745.372 559.557 679.661 558.856 614.038C557.22 558.086 554.251 502.195 553.928 446.208C552.914 386.846 548.341 327.625 546.608 268.282C546.446 246.694 546.608 225.111 547.073 203.528C547.124 195.518 546.958 187.502 547.207 179.496C547.336 176.853 547.585 174.227 547.852 171.597C547.945 170.347 546.829 168.896 545.469 169.414Z" fill="#161616"/>
<path d="M550.613 424.412C544.418 427.574 548.004 436.43 546.981 442.027C546.773 446.118 546.736 450.208 546.69 454.303C545.884 478.693 546.345 503.066 546.884 527.453C545.238 585.392 550.48 643.284 552.186 701.176C553.914 734.064 551.752 766.984 553.011 799.876C553.601 808.663 553.55 817.574 554.601 826.292C557.948 832.644 564.333 823.613 562.977 819.188C560.58 787.439 561.618 755.639 561.774 723.839C560.788 686.627 559.018 649.447 557.021 612.268C556.717 591.541 555.366 570.842 555.2 550.116C555.574 525.674 555.182 501.273 554.292 476.844C554.343 464.757 553.771 452.677 553.813 440.591C553.103 436.861 555.675 423.051 550.613 424.412Z" fill="#161616"/>
<path d="M554.435 440.49C554.435 440.498 554.435 440.509 554.426 440.515C554.431 440.507 554.435 440.498 554.435 440.49ZM547.534 435.444C542.495 437.434 537.987 446.283 543.362 450.111C547.986 452.986 550.826 448.671 554.44 446.86C563.927 440.285 556.408 433.447 547.534 435.444Z" fill="#161616"/>
<path d="M558.372 819.109C554.915 821.212 557.118 830.362 556.252 834.318C556.339 836.088 555.864 837.881 556.247 839.619C557.307 842.524 560.732 839.739 560.875 837.665C561.309 833.571 560.433 829.454 560.424 825.347C560.046 823.397 560.525 820.649 559.087 819.146L559.082 819.151C558.861 819.045 558.607 819.045 558.372 819.109Z" fill="#161616"/>
<path d="M533.123 847.862C533.013 847.876 532.897 847.894 532.787 847.908C532.897 847.894 533.013 847.876 533.123 847.862ZM559.741 824.784C554.237 825.799 485.866 850.743 517.357 851.771C533.031 852.444 548.696 851.73 564.37 851.651C575.282 851.877 586.217 851.412 597.032 849.927C600.913 849.582 605.851 849.582 606.621 844.732C608.442 837.125 590.983 836.784 585.949 835.415C572.018 832.667 557.51 832.658 543.606 835.618C548.742 833.414 554.034 831.639 559.387 830.031C561.627 829.551 562.927 824.369 559.741 824.784Z" fill="#161616"/>
<path d="M550.148 831.178C550.231 831.169 550.314 831.16 550.397 831.146C550.319 831.16 550.236 831.169 550.148 831.178ZM548.037 836.36C548.023 836.36 548.014 836.365 548.004 836.365C548.014 836.365 548.023 836.36 548.037 836.36ZM514.232 846.838C525.097 842.934 535.64 837.821 546.797 834.852C546.331 837.245 549.198 836.162 550.568 836.153C552.458 838.776 561.848 837.31 564.656 835.987C572.843 841.145 583.953 839.794 593.256 841.897C588.932 842.814 576.273 841.228 574.867 845.87C562.655 847.087 550.379 846.737 538.167 847.682C528.458 848.328 518.671 850.296 508.939 849.208C510.659 848.323 512.452 847.59 514.232 846.838ZM556.906 827.264C555.662 827.638 554.924 829.477 555.68 830.556C553.808 830.662 551.951 830.971 550.088 831.188C550.111 831.188 550.13 831.183 550.148 831.178C539.577 832.345 530.072 837.66 519.994 840.758C493.201 849.678 502.356 855.238 524.844 853.398C550.148 850.895 575.932 854.496 601.019 850.158C605.934 848.374 622.166 850.425 620.75 842.837C620.22 841.219 618.261 841.357 616.887 840.988C612.844 839.006 609.082 836.083 604.652 834.401C589.066 830.335 573.055 827.255 556.906 827.264Z" fill="#161616"/>
<path d="M561.336 827.536C559.022 828.334 558.907 832.654 562.028 831.436C566.79 831.026 570.902 834.17 575.365 835.346C580.127 837.075 585.17 837.734 589.974 839.273C597.073 842.053 604.657 843.303 611.963 845.428C615.702 847.027 618.039 847.618 618.777 842.625C617.804 837.628 598.027 836.535 593.196 834.087C587.074 832.252 580.597 831.856 574.521 829.772C570.252 828.385 565.909 826.435 561.336 827.536Z" fill="#161616"/>
<path d="M220.34 194.474C215.486 199.848 212.142 207.277 210.763 214.426C211.102 219.709 214.361 210.824 213.746 209.844C213.684 206.789 224.345 194.004 220.34 194.474Z" fill="#73D88B"/>
<path d="M214.976 192.542C212.946 194.891 203.325 206.724 206.225 208.927C207.016 208.913 207.49 208.123 207.679 207.442C208.544 204.655 210.471 202.384 211.995 199.943C213.137 197.402 216.442 195.529 216.545 192.748C216.343 191.987 215.426 192.025 214.976 192.542Z" fill="#73D88B"/>
<path d="M680.86 206.859C677.864 208.184 658.414 217.859 662.425 221.252C666.03 218.764 669.45 215.592 673.521 213.587C675.065 212.285 685.226 209.045 680.86 206.859Z" fill="#161616"/>
<path d="M672.193 204.162C672.225 204.146 672.262 204.13 672.294 204.114C672.262 204.13 672.225 204.146 672.193 204.162ZM672.156 204.179C672.165 204.174 672.179 204.168 672.193 204.162C672.179 204.168 672.165 204.174 672.156 204.179ZM671.99 204.254C672.046 204.229 672.101 204.205 672.156 204.179C672.101 204.204 672.046 204.229 671.99 204.254ZM680.33 200.853C677.375 201.745 660.474 208.5 664.398 212.255C667.943 209.861 671.303 206.845 675.641 205.654C677.513 204.646 680.689 204.69 681.395 202.355C681.621 201.658 681.215 200.568 680.33 200.853Z" fill="#161616"/>
<path d="M468.542 143.288C465.066 144.93 449.832 145.248 451.987 150.737C454.726 151.686 457.811 148.74 460.766 148.752C463.669 147.942 469.123 148.021 469.754 144.394C469.796 143.726 469.233 143.052 468.542 143.288Z" fill="#73D88B"/>
<path d="M460.274 163.111C457.889 163.474 452.393 163.743 453.829 167.383C455.151 168.233 456.953 166.704 458.469 166.765C461.387 166.408 464.37 166.863 467.265 166.296C472.188 162.001 462.636 163.128 460.274 163.111Z" fill="#73D88B"/>
<path d="M453.347 181.329C449.44 185.012 456.237 185.318 458.722 185.927C461.977 186.469 465.098 189.154 468.422 188.558C469.39 187.971 470.118 186.064 468.97 185.343C463.904 183.792 458.641 181.244 453.347 181.329Z" fill="#73D88B"/>
<path d="M446.187 196.38C440.791 199.831 448.529 202.894 451.725 203.753C454.17 204.203 458.104 207.658 460.064 205.395C462.48 201.575 455.919 201.012 453.688 199.538C450.988 198.991 448.679 196.951 446.187 196.38Z" fill="#73D88B"/>
<path d="M591.523 39.2578C582.031 39.6353 572.931 45.2669 565.14 50.1978C560.304 53.6295 550.342 63.5391 562.3 64.4164C558.345 67.4525 543.86 80.6173 548.931 85.4882C555.574 87.9315 589.868 60.2033 576.476 55.9976C582.39 52.8587 589.374 50.1521 593.417 44.5501C594.69 42.4281 594.445 39.1388 591.523 39.2578Z" fill="#73D88B"/>
<path d="M634.612 92.1304C616.145 95.2661 600.065 108.305 585.838 119.744V119.741L585.811 119.778L585.806 119.775C583.414 121.662 581.122 128.144 586.332 125.952C596.488 121.437 605.906 115.862 615.495 110.289C606.703 121.681 611.484 124.457 623.138 118.448C623.11 118.459 623.083 118.471 623.055 118.483C631.219 115.058 638.526 110.201 646.446 106.348C650.996 103.731 656.284 101.709 660.069 98.0316C662.544 94.7037 658.312 93.6231 655.638 94.1542C648.617 95.1324 641.85 97.4632 635.414 100.391C637.268 98.0906 638.835 92.6702 634.612 92.1304Z" fill="#73D88B"/>
<path d="M661.535 154.425C655.528 155.594 625.89 150.783 635.949 163.01C627.255 162.205 618.38 160.457 609.677 161.195C604.772 162.491 608.303 169.395 611.299 165.3C618.689 169.687 627.139 172.865 635.728 172.856C639.715 172.769 653.864 172.54 649.415 165.699C659.294 164.4 670.243 164.945 679.845 162.303C695.261 154.25 666.057 154.604 661.535 154.425Z" fill="#73D88B"/>
<path d="M222.909 474.641C221.177 476.734 221.341 504.196 225.624 500.858C228.529 498.129 224.22 485.65 224.819 480.869C224.723 478.61 225.588 476.485 225.781 474.291C225.616 472.212 223.166 473.097 222.909 474.641Z" fill="#73D88B"/>
<path d="M216.309 482.035C213.438 483.944 216.493 498.747 217.242 502.338C222.146 503.495 218.335 494.068 218.397 491.574C217.358 489.656 218.694 481.551 216.309 482.035Z" fill="#73D88B"/>
<path d="M487.904 453.974C484.266 456.897 487.106 463.904 485.774 468.187C485.511 471.05 484.875 473.913 485.036 476.794C485.488 479.712 488.613 477.638 488.595 475.595C488.71 472.437 492.292 453.196 487.904 453.974Z" fill="#73D88B"/>
<path d="M495.312 454.621C492.795 455.154 493.565 471.377 491.938 475.466C492.085 478.122 488.204 486.152 491.458 487.005C494.556 488.605 499.65 451.755 495.312 454.621Z" fill="#73D88B"/>
<path d="M449.569 273.355C444.11 275.836 396.252 295.108 401.192 300.033C413.719 291.09 428.637 285.487 442.595 278.842C445.048 277.075 449.775 277.452 450.828 274.352C450.959 273.614 450.288 272.955 449.569 273.355Z" fill="#FEFEFE"/>
<path d="M238.595 304.991C236.13 307.192 241.12 310.378 242.032 312.482C247.086 319.217 251.889 326.081 257.466 332.414C277.186 351.444 297.27 371.98 322.592 383.387C338.406 390.944 354.242 381.337 367.97 373.724C382.917 365.711 397.873 357.713 412.783 349.63C427.933 341.404 443.743 334.406 458.687 325.802C460.51 324.014 471.736 320.046 469.786 317.865C458.379 323.225 447.327 330.529 435.588 335.711C415.048 346.138 394.703 356.944 374.488 367.985C362.66 373.309 351.74 382.701 338.449 383.602C338.465 383.602 338.482 383.602 338.499 383.601C334.015 383.866 329.532 383.569 325.389 381.702C325.423 381.715 325.457 381.727 325.492 381.74C300.551 371.505 282.236 350.696 262.284 333.319C255.862 326.312 250.216 318.693 244.536 311.095C242.885 309.855 240.525 303.971 238.595 304.991Z" fill="#FEFEFE"/>
<path d="M286.028 249.881C283.983 252.025 293.799 262.082 295.321 264.768C304.403 276.636 313.495 288.506 322.521 300.418C328.895 307.574 337.587 322.998 346.227 326.061C350.786 325.362 354.569 322.368 358.853 320.847C360.021 320.474 362.447 320.488 361.911 318.689C356.601 318.445 351.944 323.578 346.535 324.012C339.271 319.872 334.85 311.498 329.361 305.259C318.802 291.102 308.091 277.058 297.494 262.931C295.171 261.275 287.806 246.949 286.028 249.881Z" fill="#FEFEFE"/>
<path d="M312.198 194.54C310.126 203.076 308.533 211.922 307.879 220.675C310.157 224.689 320.097 224.799 324.492 225.856C321.363 229.539 310.319 232.101 313.148 238.003C320.671 257.513 333.171 274.438 343.997 292.166C345.331 293.713 347.297 299.914 349.47 298.936C351.071 297.732 349.681 296.069 348.898 294.829C338.494 276.154 325.139 259.074 317.058 239.153C317.107 239.281 317.154 239.408 317.2 239.538C316.721 238.056 316.145 236.614 315.414 235.238C319.206 231.848 326.853 229.124 328.359 224.212C326.277 222.149 321.407 223.102 318.506 222.102C315.794 220.914 308.818 221.836 310.251 217.403C311.041 211.009 312.191 204.667 313.109 198.289C313.116 196.807 315.046 194.416 313.619 193.393C312.98 193.285 312.346 193.996 312.198 194.54Z" fill="#FEFEFE"/>
<path d="M420.085 236.721C420.085 236.739 420.086 236.758 420.086 236.777C420.083 236.759 420.085 236.739 420.085 236.721ZM426.357 233.449C426.32 233.472 426.284 233.494 426.247 233.516C426.283 233.494 426.32 233.471 426.357 233.449ZM423.216 216.41C422.665 216.822 422.154 217.791 422.563 218.457C425.069 222.007 426.444 226.122 428.243 230.004C424.915 232.751 412.731 236.62 420.819 240.99C424.64 244.337 428.024 243.37 423.742 248.828C418.308 257.574 414.443 267.141 409.898 276.338C409.381 277.396 407.642 279.446 409.284 280.198C411.271 279.943 411.803 277.124 412.88 275.697C417.419 266.357 421.412 256.729 426.904 247.88C431.838 241.335 424.776 240.62 420.66 237.208C423.365 234.424 430.31 233.024 430.656 228.97C429.175 226.662 426.094 215.467 423.216 216.41Z" fill="#FEFEFE"/>
<path d="M689.596 271.231C688.508 272.164 686.479 273.96 687.844 275.408C690.361 276.958 692.97 269.828 689.596 271.231Z" fill="#FEFEFE"/>
<path d="M456.452 312.227C454.224 312.425 451.613 318.094 455.18 317.639C457.479 317.284 459.236 312.764 456.452 312.227Z" fill="#FEFEFE"/>
<path d="M274.217 498.267H274.283H274.217ZM297.715 499.627H297.6H297.715ZM276.483 498.23C276.411 498.23 276.338 498.23 276.266 498.235C276.339 498.23 276.41 498.23 276.483 498.23ZM302.421 496.995H302.291H302.421ZM372.446 382.626C369.378 384.656 371.241 400.218 370.036 404.895C368.543 422.419 367.49 439.982 367.923 457.576C367.922 457.535 367.921 457.494 367.919 457.452C369.653 479.053 365.079 485.53 344.117 491.513C321.279 497.041 297.619 496.99 274.283 498.267H274.372C274.295 498.267 274.218 498.267 274.141 498.272C274.167 498.272 274.192 498.272 274.217 498.267C272.122 498.747 261.815 496.686 264.444 500.383C279.016 500.876 293.58 499.576 308.151 499.457C327.066 497.17 348.125 497.516 363.873 485.295C376.461 473.166 369.482 451.659 371.226 435.806C370.98 418.412 374.322 399.044 372.446 382.626Z" fill="#FEFEFE"/>
<path d="M367.883 477.448C364.954 480.514 370.216 485.064 372.233 487.457C386.475 500.48 417.536 508.008 436.655 507.828C438.187 507.755 440.315 508.243 440.875 506.339C441.06 505.8 441.074 504.79 440.296 504.698C438.782 504.523 437.25 504.592 435.728 504.624C421.833 504.468 408.084 500.637 394.884 496.511C384.097 493.473 373.128 486.549 367.883 477.448Z" fill="#FEFEFE"/>
<path d="M415.23 644.169C414.184 646.506 410.475 649.097 411.358 651.674C413.58 651.674 415.076 646.672 416.755 645.11C417.724 643.676 416.114 642.648 415.23 644.169Z" fill="#FEFEFE"/>
<path d="M420.214 649.973C420.188 650.005 420.163 650.042 420.137 650.075C420.163 650.042 420.188 650.005 420.214 649.973ZM420.272 649.895C420.256 649.918 420.241 649.936 420.226 649.959C420.241 649.936 420.257 649.918 420.272 649.895ZM423.074 644.934C421.707 647.11 416.524 651.01 417.069 653.343C419.093 652.882 420.074 649.415 421.769 648.028C422.299 647.488 425.52 643.962 423.074 644.934Z" fill="#FEFEFE"/>
<path d="M298.145 662.803C296.878 664.781 289.083 671.258 291.195 673.102C293.148 672.442 294.012 669.745 295.479 668.312C296.451 666.329 299.598 664.905 299.41 662.641C299.082 662.134 298.454 662.476 298.145 662.803Z" fill="#FEFEFE"/>
<path d="M301.454 666.809C300.418 669.566 293.151 675.729 294.309 677.831C297.136 677.048 300.56 670.133 302.728 667.593C303.53 666.389 302.185 665.536 301.454 666.809Z" fill="#FEFEFE"/>
<path d="M328.837 861.282C326.828 864.32 333.081 865.016 333.669 862.36C334.234 860.982 333.061 860.401 331.85 860.452C330.722 860.115 329.434 860.065 328.837 861.282Z" fill="#FEFEFE"/>
<path d="M470.902 843.828C468.938 843.662 465.942 844.727 466.878 847.184C467.601 848.097 468.957 847.23 469.925 847.207C471.271 847.028 472.553 844.377 470.902 843.828Z" fill="#FEFEFE"/>
<path d="M496.994 146.368C488.789 153.542 487.751 170.195 493.569 179.115C494.062 179.843 494.846 181.054 495.69 179.991C496.994 177.988 493.781 175.588 493.376 173.487C491.167 165.794 491.845 156.788 495.713 149.722C496.303 148.512 498.29 148.182 498.128 146.656C498.046 146.08 497.377 146.028 496.994 146.368Z" fill="#FEFEFE"/>
<path d="M489.222 154.956C487.872 156 480.758 158.929 482.307 160.716C482.999 160.234 492.417 155.133 489.222 154.956Z" fill="#FEFEFE"/>
<path d="M487.968 161.106C486.742 161.751 481.367 163.827 482.791 165.422C484.589 164.561 486.332 163.342 488.185 162.497C488.77 162.177 488.927 160.753 487.968 161.106Z" fill="#FEFEFE"/>
<path d="M487.59 166.687C486.314 167.331 482.589 168.066 483.778 170.045C484.801 170.238 490.209 167.653 487.59 166.687Z" fill="#FEFEFE"/>
<path d="M484.635 155.569C483.312 156.597 484.944 157.528 485.502 158.432C485.917 158.949 486.161 159.976 486.917 160.005C487.507 159.88 488.024 159.055 487.715 158.494C486.88 157.608 486.051 155.026 484.635 155.569Z" fill="#FEFEFE"/>
<path d="M483.709 160.297C482.192 161.659 484.626 163.961 485.534 165.066C488.181 165.169 484.792 159.204 483.709 160.297Z" fill="#FEFEFE"/>
<path d="M484.617 166.764C483.114 167.828 485.889 170.176 486.622 171.139C487.323 171.186 487.931 170.215 487.609 169.604C486.76 168.784 485.949 166.231 484.617 166.764Z" fill="#FEFEFE"/>
<path d="M511.572 161.633C511.595 161.587 511.613 161.54 511.636 161.494C511.613 161.54 511.595 161.587 511.572 161.633ZM515.287 157.774C513.706 158.571 512.332 159.845 511.636 161.494C511.673 161.415 511.71 161.336 511.751 161.257C509.917 164 509.137 174.96 513.595 174.629C516.135 173.135 509.031 167.587 514.259 160.578C514.965 159.937 516.182 159.669 516.255 158.541C516.371 157.982 515.822 157.455 515.287 157.774Z" fill="#FEFEFE"/>
<path d="M541.753 158.766C538.144 161.825 537.162 167.662 538.48 172.064C538.775 173.04 539.089 175.233 540.532 174.18C542.569 172.189 538.725 167.196 540.873 162.611C540.942 161.063 543.016 160.574 542.906 159.055C542.827 158.478 542.118 158.411 541.753 158.766Z" fill="#FEFEFE"/>
<path d="M552.001 159.994C549.456 161.697 546.879 175.54 550.489 175.672C552.978 174.31 550.065 166.943 551.568 163.582C551.642 162.156 553.61 161.254 553.177 159.842C552.882 159.393 552.259 159.662 552.001 159.994Z" fill="#FEFEFE"/>
<path d="M594.127 192.248C594.15 192.302 594.169 192.355 594.192 192.409C594.169 192.355 594.15 192.302 594.127 192.248ZM579.998 168.959C579.214 169.601 578.661 170.821 579.173 171.779C583.492 176.369 587.637 181.207 591.094 186.485C596.299 195.234 598.507 205.415 601.43 215.081C607.234 237.22 604.947 260.431 603.269 282.974C602.467 300.834 600.489 318.595 598.59 336.365C594.768 375.608 587.71 414.509 585.673 453.924C583.202 489.776 580.062 525.674 582.367 561.627C583.142 590.739 585.991 619.741 589.199 648.673C591.486 666.242 595.446 683.548 596.847 701.236C602.227 756.985 606.524 782.981 657.492 813.13C692.643 837.554 629.537 832.271 615.928 834.069C610.995 834.055 571.193 836.775 573.945 843.187C587.549 840.813 602.269 837.065 616.661 837.43C616.633 837.43 616.606 837.43 616.578 837.434C630.768 836.277 645.257 837.771 659.239 834.876C688.955 825.808 658.276 807.059 645.409 799.083C626.674 787.305 613.568 769.52 608.059 748.069C602.762 728.089 602.001 707.275 599.3 686.858C589.066 624.724 582.824 561.42 586.207 498.401C587.895 473.193 588.946 447.932 591.145 422.763C593.994 394.392 598.115 366.174 600.867 337.795C602.619 320.198 604.846 302.643 605.699 284.971C607.413 263.76 609.562 242.269 606.21 221.11C602.531 204.175 598.341 186.228 585.825 173.494C584.327 171.79 582.99 169.793 581.123 168.572C580.717 168.513 580.307 168.718 579.998 168.959Z" fill="#161616"/>
</svg>
