<svg width="141" height="65" viewBox="0 0 141 65" fill="none" xmlns="http://www.w3.org/2000/svg">
<g clip-path="url(#clip0_446_4357)">
<path d="M133.53 18.9998C134.53 19.9998 135.32 20.8298 136.1 21.6998C141.26 27.3997 141.94 34.5497 137.96 41.1697C136.022 44.2468 133.509 46.9222 130.56 49.0497C123.926 53.9336 116.402 57.4733 108.41 59.4697C83.02 66.1497 57.41 66.4697 31.7299 61.3697C24.8963 60.1222 18.2977 57.8215 12.1699 54.5497C8.74337 52.7858 5.73292 50.3107 3.33994 47.2897C-0.580061 42.0797 -1.00006 36.5497 1.85994 30.7597C3.88435 26.9837 6.71868 23.7021 10.1599 21.1498C16.1352 16.4953 22.7585 12.739 29.8199 9.99977C55.56 -0.480202 82.1 -2.4602 109.25 2.82979C116.625 4.1361 123.674 6.87065 130 10.8798C131.348 11.7417 132.628 12.7044 133.83 13.7598C136.2 15.8798 136.15 16.5698 133.53 18.9998ZM109.44 8.08978C109.44 7.96978 109.44 7.85978 109.44 7.73978C107.88 7.39978 106.34 6.99978 104.78 6.73978C83.7704 3.06531 62.1916 4.37374 41.7799 10.5598C32.7368 13.1381 24.1625 17.1417 16.3799 22.4198C13.3884 24.4586 10.658 26.8565 8.24994 29.5597C2.92994 35.8297 3.51994 42.1997 9.99994 47.3197C12.8873 49.5013 16.039 51.309 19.3799 52.6997C26.4599 55.7897 33.9999 57.3397 41.63 58.3897C59.7206 60.9314 78.0963 60.648 96.1 57.5497C105.83 55.8697 115.19 53.0097 123.76 47.9497C127.325 45.9904 130.464 43.3385 132.99 40.1497C137.1 34.6497 136.71 28.8297 131.82 24.0397C130.285 22.5498 128.611 21.2104 126.82 20.0398C118.632 14.685 108.975 12.0242 99.2 12.4298C97.07 12.4798 94.94 12.6698 92.81 12.7498C91.49 12.7998 90.42 12.2698 90.34 10.8398C90.3193 10.5648 90.3557 10.2885 90.4469 10.0283C90.5381 9.76803 90.6821 9.52947 90.87 9.32756C91.0578 9.12566 91.2853 8.96477 91.5383 8.85501C91.7913 8.74526 92.0642 8.689 92.34 8.68978C94.4245 8.25712 96.536 7.96646 98.66 7.81978C102.25 7.75978 105.84 7.99978 109.44 8.08978Z" fill="black"/>
<path d="M36.3591 47.288C36.0711 47.216 35.9391 47.18 35.9631 47.18C35.5311 45.404 35.0511 42.752 34.5231 39.224L32.5431 26.372L32.2191 24.788C31.6911 22.724 31.4271 21.272 31.4271 20.432C31.4271 20.264 31.4751 20.12 31.5711 20C31.6911 19.856 31.8111 19.784 31.9311 19.784C32.0031 19.784 32.0871 19.808 32.1831 19.856C32.3031 19.904 32.4111 20.036 32.5071 20.252C32.6031 20.444 32.6511 20.624 32.6511 20.792L32.7231 21.296L33.2271 24.068L33.5511 25.976L35.3511 38.324L35.8191 41.744C36.0111 42.896 36.1671 43.988 36.2871 45.02L36.5391 42.464L36.9351 38.324L37.7991 30.44C38.0151 28.208 38.1711 26.744 38.2671 26.048L38.4471 24.176L38.6991 22.376C38.8191 21.656 38.9031 20.984 38.9511 20.36C38.9991 19.904 39.2271 19.676 39.6351 19.676L39.8511 19.82H39.7791L40.1391 20.108C40.1391 20.804 40.0431 21.824 39.8511 23.168L39.6351 24.572L39.5271 25.472C39.2151 28.088 39.0231 29.72 38.9511 30.368C38.5911 33.416 38.2071 36.716 37.7991 40.268C37.4151 43.82 37.2111 45.908 37.1871 46.532C36.9951 47.06 36.7671 47.324 36.5031 47.324L36.3591 47.288ZM36.3231 45.236L36.2871 45.128L36.2151 45.236H36.3231ZM46.4462 47C45.8942 47 45.5702 46.88 45.4742 46.64C45.3542 46.64 45.2582 46.652 45.1862 46.676H44.8982C44.3702 46.676 44.0342 46.556 43.8902 46.316C43.8902 46.148 43.9862 46.004 44.1782 45.884L44.3582 45.704H45.4022L45.5462 45.56L45.6182 45.236L45.6542 44.804C45.6542 43.34 45.6182 42.032 45.5462 40.88L45.4742 39.548L45.4022 36.92C45.4022 35.984 45.4382 34.58 45.5102 32.708L45.5822 28.532C45.5822 26.708 45.5222 25.316 45.4022 24.356C45.1862 24.284 44.8262 24.248 44.3222 24.248L43.9262 24.284C43.7822 24.308 43.6262 24.32 43.4582 24.32C43.0022 24.32 42.7742 24.116 42.7742 23.708C42.7742 23.612 42.8822 23.516 43.0982 23.42C43.3142 23.324 43.4942 23.276 43.6382 23.276C44.5502 23.276 45.4622 23.324 46.3742 23.42C46.9262 23.444 47.4782 23.552 48.0302 23.744C48.4622 23.888 48.6782 24.092 48.6782 24.356C48.6782 24.404 48.6422 24.5 48.5702 24.644L47.7422 24.716C47.5742 24.572 47.2262 24.5 46.6982 24.5L46.5182 24.608C46.5902 24.824 46.6262 25.46 46.6262 26.516C46.6262 28.1 46.6142 29.528 46.5902 30.8L46.5182 35.084C46.5182 36.164 46.5662 37.472 46.6622 39.008C46.7342 40.76 46.7702 42.08 46.7702 42.968V43.436C46.7462 43.604 46.7342 43.82 46.7342 44.084C46.7342 44.636 46.7702 44.972 46.8422 45.092L46.8062 45.164C46.8062 45.404 47.0702 45.524 47.5982 45.524C47.8142 45.524 47.9942 45.512 48.1382 45.488H48.6782C49.3742 45.488 49.7222 45.656 49.7222 45.992C49.7222 46.208 49.6502 46.388 49.5062 46.532C49.3622 46.652 49.1702 46.712 48.9302 46.712C48.7142 46.712 48.5222 46.688 48.3542 46.64C48.1622 46.616 47.9582 46.604 47.7422 46.604C47.5982 46.604 47.3822 46.664 47.0942 46.784C46.8062 46.928 46.5902 47 46.4462 47ZM53.7291 47.468C53.2971 47.468 53.0571 47.216 53.0091 46.712V46.244C53.0331 46.124 53.0451 45.98 53.0451 45.812L52.9011 45.668C53.0931 45.164 53.1891 44.672 53.1891 44.192C53.1891 43.64 53.1531 42.848 53.0811 41.816L53.0091 39.44C53.0091 38.24 53.0451 36.44 53.1171 34.04C53.2131 31.904 53.2611 30.092 53.2611 28.604L53.1891 26.444C53.1411 25.796 53.1171 25.076 53.1171 24.284C53.1171 23.924 53.2011 23.672 53.3691 23.528C53.5371 23.36 53.8011 23.276 54.1611 23.276C54.4011 23.276 54.5931 23.348 54.7371 23.492C54.7851 23.516 55.1331 23.564 55.7811 23.636C56.3811 23.708 56.8971 23.816 57.3291 23.96C57.7851 24.104 58.0131 24.284 58.0131 24.5C58.0131 24.74 57.7851 24.98 57.3291 25.22C55.9611 24.764 54.9891 24.536 54.4131 24.536L54.2331 24.752C54.2571 24.968 54.2691 25.484 54.2691 26.3C54.2691 27.332 54.2451 28.256 54.1971 29.072C54.1731 29.912 54.1611 30.848 54.1611 31.88C54.1611 32.552 54.3291 32.888 54.6651 32.888L55.2411 32.852C55.4331 32.828 55.6371 32.816 55.8531 32.816C56.7891 32.816 57.2571 33.032 57.2571 33.464C57.2571 33.728 57.1971 33.956 57.0771 34.148C56.9571 34.316 56.7771 34.4 56.5371 34.4C56.1771 34.4 55.9011 34.304 55.7091 34.112L54.5571 33.932H54.3771L54.1971 34.112V34.22C54.2451 34.628 54.2691 35.576 54.2691 37.064C54.2691 38 54.2571 38.852 54.2331 39.62L54.1971 42.176C54.1971 43.112 54.2331 44.072 54.3051 45.056C54.3291 45.608 54.4491 45.98 54.6651 46.172C54.8811 46.34 55.2771 46.424 55.8531 46.424L56.5011 46.388C56.7171 46.364 56.9571 46.352 57.2211 46.352C57.9171 46.352 58.2651 46.508 58.2651 46.82C58.2651 47.252 57.7371 47.468 56.6811 47.468H53.7291ZM70.0321 48.188C69.7681 48.188 69.6001 48.044 69.5281 47.756C69.4561 47.468 69.4201 47.192 69.4201 46.928V46.604C69.3241 45.644 69.1921 44.744 69.0241 43.904C68.8081 42.728 68.6641 41.816 68.5921 41.168C68.5201 40.52 68.4121 39.344 68.2681 37.64C68.0521 34.952 67.8481 32.912 67.6561 31.52C67.4401 29.744 67.2121 28.736 66.9721 28.496L66.7561 30.44C66.6361 31.592 66.5761 32.408 66.5761 32.888C66.5761 33.896 66.5281 34.904 66.4321 35.912C66.3361 36.92 66.1681 38.204 65.9281 39.764L65.4961 42.752C65.4721 42.8 65.4481 42.896 65.4241 43.04C65.4241 43.16 65.4121 43.316 65.3881 43.508C65.3401 44.18 65.2081 45.068 64.9921 46.172C64.9201 46.652 64.8121 47.036 64.6681 47.324C64.5721 47.612 64.4281 47.756 64.2361 47.756C63.9001 47.756 63.6241 47.216 63.4081 46.136C63.2401 45.176 63.0841 43.652 62.9401 41.564C62.8681 40.244 62.8081 39.26 62.7601 38.612C62.7121 37.964 62.6161 37.196 62.4721 36.308L62.3281 35.192C62.1361 33.896 62.0161 32.972 61.9681 32.42C61.9201 31.868 61.8721 31.064 61.8241 30.008C61.8001 29.216 61.7641 28.508 61.7161 27.884C61.6681 27.236 61.5841 26.564 61.4641 25.868C61.3681 25.268 61.2121 24.632 60.9961 23.96C61.0921 23.768 61.2841 23.672 61.5721 23.672C61.8601 23.672 62.0641 23.948 62.1841 24.5C62.2081 24.596 62.2441 25.076 62.2921 25.94V26.408C62.3161 26.912 62.5921 29.288 63.1201 33.536C63.6001 37.376 63.8761 40.508 63.9481 42.932C64.0441 43.148 64.1041 43.472 64.1281 43.904C64.1761 44.384 64.2361 44.708 64.3081 44.876H64.3441L64.9201 41.096C64.9201 40.76 64.9921 40.184 65.1361 39.368C65.3041 38.096 65.4481 36.848 65.5681 35.624C65.6881 34.16 65.7601 32.888 65.7841 31.808C65.8561 30.08 65.9401 28.928 66.0361 28.352L66.1441 27.452C66.2401 26.54 66.2881 26.096 66.2881 26.12L66.9361 25.832C67.1041 25.832 67.2481 25.88 67.3681 25.976C67.4881 26.072 67.5481 26.192 67.5481 26.336C67.5481 26.408 67.5121 26.504 67.4401 26.624C68.4001 29.864 69.0481 33.74 69.3841 38.252L69.4561 39.584C69.4801 40.664 69.5641 41.588 69.7081 42.356C69.8521 42.98 69.9841 43.436 70.1041 43.724C70.3921 42.908 70.6321 40.916 70.8241 37.748C71.0161 34.58 71.1121 31.832 71.1121 29.504C71.1121 29.072 71.1961 28.148 71.3641 26.732C71.5321 25.556 71.6161 24.62 71.6161 23.924C71.6161 23.708 71.5681 23.504 71.4721 23.312C71.4721 22.928 71.7121 22.736 72.1921 22.736C72.3841 22.736 72.5041 22.76 72.5521 22.808C72.6241 22.856 72.6601 22.976 72.6601 23.168C72.6601 23.84 72.6001 24.356 72.4801 24.716L72.5521 24.932C72.3601 25.964 72.2641 27.092 72.2641 28.316C72.2641 28.532 72.2881 28.664 72.3361 28.712L72.1201 29.432L72.2281 29.684C72.1561 29.828 72.1201 29.972 72.1201 30.116L72.2281 30.8L72.1201 30.944C72.1201 31.784 72.0241 33.656 71.8321 36.56C71.6401 39.464 71.4961 41.312 71.4001 42.104L71.1841 43.076C71.0401 43.58 70.9681 43.976 70.9681 44.264C70.9681 45.032 70.9321 45.764 70.8601 46.46C70.8361 46.94 70.7401 47.36 70.5721 47.72C70.4041 48.032 70.2241 48.188 70.0321 48.188ZM70.1401 43.904L70.1041 43.868V43.904H70.1401ZM90.266 47.324C89.906 47.324 89.678 47.276 89.582 47.18C89.486 47.108 89.414 46.892 89.366 46.532C89.15 44.78 89.018 43.688 88.97 43.256L88.79 41.816C88.262 41.696 87.662 41.636 86.99 41.636L85.694 41.564C85.118 41.492 84.698 41.456 84.434 41.456C84.29 41.456 84.206 41.516 84.182 41.636C84.182 41.708 84.17 41.744 84.146 41.744L84.074 42.464C84.05 42.896 83.918 43.76 83.678 45.056C83.558 45.704 83.414 46.208 83.246 46.568C83.054 46.976 82.874 47.18 82.706 47.18C82.562 47.18 82.406 47.12 82.238 47C82.07 46.856 81.986 46.712 81.986 46.568L82.022 46.46L82.058 46.352C82.49 44.648 82.85 42.956 83.138 41.276L83.57 39.044L84.002 36.308C84.002 36.308 84.134 35.516 84.398 33.932C84.518 33.284 84.734 32.24 85.046 30.8C85.382 29.168 85.586 28.052 85.658 27.452C85.682 27.38 85.73 26.936 85.802 26.12C85.898 25.208 85.982 24.536 86.054 24.104C86.126 23.48 86.198 23.12 86.27 23.024H86.522C86.594 23.048 86.678 23.06 86.774 23.06C87.062 23.06 87.278 22.988 87.422 22.844C87.59 22.844 87.734 22.904 87.854 23.024C87.998 23.12 88.07 23.24 88.07 23.384C88.07 24.536 88.154 25.856 88.322 27.344C88.418 28.112 88.49 28.748 88.538 29.252C88.802 32.348 89.474 38.156 90.554 46.676V46.784C90.554 47.024 90.458 47.204 90.266 47.324ZM88.61 40.844C88.37 37.388 87.914 32.288 87.242 25.544L85.298 35.156C84.746 37.916 84.47 39.656 84.47 40.376C84.47 40.496 84.926 40.604 85.838 40.7C86.75 40.796 87.554 40.844 88.25 40.844H88.61ZM95.1072 47.468C94.7712 47.468 94.5672 47.192 94.4952 46.64C94.5432 46.496 94.5672 46.1 94.5672 45.452C94.5672 43.244 94.6032 39.968 94.6752 35.624C94.7472 31.304 94.7832 28.184 94.7832 26.264L94.8552 24.968L94.9632 23.888C94.9632 23.72 95.0472 23.636 95.2152 23.636C95.3352 23.636 95.5032 23.672 95.7192 23.744L95.8272 23.78C95.8272 24.308 95.8152 24.788 95.7912 25.22V26.624V30.548C95.8152 31.7 95.8272 33.008 95.8272 34.472C95.8032 34.592 95.7912 34.856 95.7912 35.264L95.7552 36.02C95.7312 36.5 95.7192 36.992 95.7192 37.496C95.7192 38.048 95.7312 38.552 95.7552 39.008L95.7912 40.556L95.6832 40.844L95.7192 40.808C95.7192 40.88 95.7072 40.928 95.6832 40.952V41.096C95.6832 41.288 95.7192 41.456 95.7912 41.6L95.6832 45.056V45.272C95.6832 45.68 95.6952 45.92 95.7192 45.992C95.7192 46.112 95.7792 46.172 95.8992 46.172L97.7712 46.244C98.3232 46.244 98.6952 46.256 98.8872 46.28C99.1032 46.28 99.2352 46.28 99.2832 46.28H99.3912C99.5112 46.28 99.6312 46.352 99.7512 46.496C99.8712 46.616 99.9312 46.748 99.9312 46.892C99.9312 47.18 99.7392 47.336 99.3552 47.36C98.9472 47.336 97.9512 47.324 96.3672 47.324L96.4392 47.36C96.1992 47.36 95.9712 47.372 95.7552 47.396C95.5632 47.444 95.3472 47.468 95.1072 47.468ZM104.072 47.468C103.736 47.468 103.532 47.192 103.46 46.64C103.508 46.496 103.532 46.1 103.532 45.452C103.532 43.244 103.568 39.968 103.64 35.624C103.712 31.304 103.748 28.184 103.748 26.264L103.82 24.968L103.928 23.888C103.928 23.72 104.012 23.636 104.18 23.636C104.3 23.636 104.468 23.672 104.684 23.744L104.792 23.78C104.792 24.308 104.78 24.788 104.756 25.22V26.624V30.548C104.78 31.7 104.792 33.008 104.792 34.472C104.768 34.592 104.756 34.856 104.756 35.264L104.72 36.02C104.696 36.5 104.684 36.992 104.684 37.496C104.684 38.048 104.696 38.552 104.72 39.008L104.756 40.556L104.648 40.844L104.684 40.808C104.684 40.88 104.672 40.928 104.648 40.952V41.096C104.648 41.288 104.684 41.456 104.756 41.6L104.648 45.056V45.272C104.648 45.68 104.66 45.92 104.684 45.992C104.684 46.112 104.744 46.172 104.864 46.172L106.736 46.244C107.288 46.244 107.66 46.256 107.852 46.28C108.068 46.28 108.2 46.28 108.248 46.28H108.356C108.476 46.28 108.596 46.352 108.716 46.496C108.836 46.616 108.896 46.748 108.896 46.892C108.896 47.18 108.704 47.336 108.32 47.36C107.912 47.336 106.916 47.324 105.332 47.324L105.404 47.36C105.164 47.36 104.936 47.372 104.72 47.396C104.528 47.444 104.312 47.468 104.072 47.468Z" fill="black"/>
</g>
<defs>
<clipPath id="clip0_446_4357">
<rect width="140.53" height="64.8599" fill="white"/>
</clipPath>
</defs>
</svg>
